<?xml version="1.0" encoding="UTF-8" standalone="no"?>
<svg
   width="100%"
   height="100%"
   viewBox="0 0 24 24"
   version="1.1"
   xml:space="preserve"
   style="fill-rule:evenodd;clip-rule:evenodd;stroke-linejoin:round;stroke-miterlimit:2;"
   id="svg3"
   xmlns="http://www.w3.org/2000/svg"
   xmlns:svg="http://www.w3.org/2000/svg"><defs
   id="defs3">
        
    
            
            
            
        
                
            
                
            </defs>
    <path
   d="m 7.0305425,21.071924 c -0.5500024,0 -1.0208294,-0.195825 -1.4125062,-0.5875 C 5.2263596,20.092748 5.0305337,19.621923 5.0305337,19.071923 V 6.0719178 H 4.0305293 V 4.071917 H 9.0305514 V 3.0719166 H 15.030578 V 4.071917 H 20.0306 V 6.0719178 H 19.030595 V 19.071923 c 0,0.55 -0.195826,1.020825 -0.587502,1.412501 -0.391677,0.391675 -0.862504,0.5875 -1.412506,0.5875 z m 0,-2.000001 H 17.030587 V 6.0719178 H 7.0305425 Z"
   id="path1"
   style="stroke-width:0.0250001;fill:#000000;fill-opacity:1" /><path
   d="m 9.4305531,16.571922 2.6000119,-2.600001 2.600011,2.600001 1.400006,-1.400001 L 13.430571,12.57192 16.030582,9.9719194 14.630576,8.5719188 12.030565,11.17192 9.4305531,8.5719188 8.030547,9.9719194 10.630558,12.57192 8.030547,15.171921 Z"
   style="fill:#e72727;stroke-width:0.0250001"
   id="path2" />
</svg>
