<?xml version="1.0" encoding="UTF-8" standalone="no"?>
<!DOCTYPE svg PUBLIC "-//W3C//DTD SVG 1.1//EN" "http://www.w3.org/Graphics/SVG/1.1/DTD/svg11.dtd">
<svg width="100%" height="100%" viewBox="0 0 70 70" version="1.1" xmlns="http://www.w3.org/2000/svg" xmlns:xlink="http://www.w3.org/1999/xlink" xml:space="preserve" xmlns:serif="http://www.serif.com/" style="fill-rule:evenodd;clip-rule:evenodd;stroke-linejoin:round;stroke-miterlimit:2;">
    <g transform="matrix(1,0,0,1,-982,-40)">
        <g id="docs_changelog" transform="matrix(1.051,0,0,1.53506,1038.86,186.711)">
            <rect x="-54.103" y="-95.573" width="66.603" height="45.601" style="fill:none;"/>
            <g transform="matrix(1.03351,0,0,0.694242,-997.307,-171.681)">
                <path d="M966.02,119.949L966.02,170.62C966.02,171.138 965.608,171.558 965.1,171.558L929.195,171.558C928.179,171.558 927.354,170.717 927.354,169.681L927.354,120.887C927.354,119.852 928.179,119.011 929.195,119.011L965.1,119.011C965.608,119.011 966.02,119.431 966.02,119.949Z" style="fill-opacity:0.2;"/>
            </g>
            <g transform="matrix(3.46742,0,0,0.188897,-3280.13,-81.4201)">
                <rect x="934.5" y="125.097" width="10.976" height="13.795" style="fill:rgb(230,230,230);"/>
            </g>
            <g transform="matrix(3.46742,0,0,2.36122,-3280.13,-385.742)">
                <rect x="934.5" y="125.097" width="10.976" height="13.795" style="fill:rgb(97,160,230);"/>
            </g>
            <g transform="matrix(0.346742,0,0,2.36122,-363.861,-385.742)">
                <rect x="934.5" y="125.097" width="10.976" height="13.795" style="fill:white;fill-opacity:0.25;"/>
            </g>
            <g transform="matrix(1.38697,0,0,0.0944486,-1323.58,-81.9822)">
                <rect x="934.5" y="125.097" width="10.976" height="13.795" style="fill:rgb(28,98,176);"/>
            </g>
            <g transform="matrix(1.73371,0,0,0.0944486,-1659.03,-68.9534)">
                <path d="M941.634,125.097L936.695,138.891L934.5,138.891L934.5,125.097L941.634,125.097Z" style="fill-opacity:0.2;"/>
            </g>
            <g transform="matrix(1.38697,0,0,0.0944486,-1323.58,-79.3765)">
                <rect x="934.5" y="125.097" width="10.976" height="13.795" style="fill:rgb(28,98,176);"/>
            </g>
            <g transform="matrix(1.38697,0,0,0.0944486,-1322.63,-81.3308)">
                <rect x="934.5" y="125.097" width="10.976" height="13.795" style="fill:white;"/>
            </g>
            <g transform="matrix(1.38697,0,0,0.0944486,-1322.63,-78.725)">
                <rect x="934.5" y="125.097" width="10.976" height="13.795" style="fill:white;"/>
            </g>
            <g transform="matrix(1.38697,0,0,0.0944486,-1323.58,-76.7707)">
                <rect x="934.5" y="125.097" width="10.976" height="13.795" style="fill:rgb(28,98,176);"/>
            </g>
            <g transform="matrix(1.38697,0,0,0.0944486,-1322.63,-76.1193)">
                <rect x="934.5" y="125.097" width="10.976" height="13.795" style="fill:white;"/>
            </g>
            <g transform="matrix(0.0866855,0,0,1.88897,-117.033,-322.106)">
                <rect x="934.5" y="125.097" width="10.976" height="13.795" style="fill:rgb(21,74,132);"/>
            </g>
            <g transform="matrix(0.0866855,-1.41259e-19,-4.12635e-19,0.0944486,-118.936,-89.7995)">
                <rect x="934.5" y="125.097" width="10.976" height="13.795" style="fill:rgb(35,122,220);"/>
            </g>
            <g transform="matrix(0.0866855,-1.41259e-19,-4.12635e-19,0.0944486,-118.936,-80.6794)">
                <rect x="934.5" y="125.097" width="10.976" height="13.795" style="fill:rgb(35,122,220);"/>
            </g>
            <g transform="matrix(0.260057,0,0,0.33057,-243.843,-127.155)">
                <rect x="934.5" y="125.097" width="10.976" height="13.795" style="fill:rgb(255,198,24);"/>
            </g>
            <g transform="matrix(0.0866855,0,0,0.236122,-79.9252,-114.688)">
                <rect x="934.5" y="125.097" width="10.976" height="13.795" style="fill-opacity:0.2;"/>
            </g>
            <g transform="matrix(0.260057,0,0,0.377795,-244.795,-127.199)">
                <rect x="934.5" y="125.097" width="10.976" height="13.795" style="fill:rgb(211,142,54);"/>
            </g>
            <g transform="matrix(0.0866855,0,0,0.236122,-80.8767,-108.174)">
                <rect x="934.5" y="125.097" width="10.976" height="13.795" style="fill-opacity:0.2;"/>
            </g>
            <g transform="matrix(1.03351,0,0,0.694242,-999.21,-173.635)">
                <path d="M966.02,119.949L966.02,170.62C966.02,171.138 965.608,171.558 965.1,171.558L929.195,171.558C928.179,171.558 927.354,170.717 927.354,169.681L927.354,120.887C927.354,119.852 928.179,119.011 929.195,119.011L965.1,119.011C965.608,119.011 966.02,119.431 966.02,119.949ZM929.195,120.887L929.195,169.681L964.179,169.681L964.179,120.887L929.195,120.887Z" style="fill:rgb(21,74,132);"/>
            </g>
            <g transform="matrix(1.03351,0,0,0.0743831,-999.21,-67.2935)">
                <path d="M966.02,127.769L966.02,162.8C966.02,167.634 965.608,171.558 965.1,171.558L929.195,171.558C928.179,171.558 927.354,163.71 927.354,154.042L927.354,136.526C927.354,126.859 928.179,119.011 929.195,119.011L965.1,119.011C965.608,119.011 966.02,122.935 966.02,127.769ZM929.195,136.526L929.195,154.042L964.179,154.042L964.179,136.526L929.195,136.526Z"/>
            </g>
            <g transform="matrix(0.95147,0,0,0.651441,-105.482,-302.096)">
                <path d="M90,352L95,347L93.6,345.6L92,347.2L92,336.025L89,336.025L89,348.2L86.4,345.6L85,347L90,352Z" style="fill:rgb(28,98,176);fill-rule:nonzero;"/>
            </g>
            <g transform="matrix(0.95147,0,0,0.651441,-104.531,-301.445)">
                <path d="M90,352L95,347L93.6,345.6L91,348.2L91,336.025L89,336.025L89,348.2L86.4,345.6L85,347L90,352Z" style="fill:white;fill-rule:nonzero;"/>
            </g>
            <g transform="matrix(0.173371,0,0,2.36122,-164.739,-385.09)">
                <path d="M945.476,125.372L945.476,138.615C945.476,138.768 943.017,138.891 939.988,138.891C936.959,138.891 934.5,138.768 934.5,138.615L934.5,125.097L939.988,125.097C943.017,125.097 945.476,125.22 945.476,125.372Z"/>
            </g>
        </g>
    </g>
</svg>
