<?xml version="1.0" encoding="UTF-8" standalone="no"?>
<svg
   width="100%"
   height="100%"
   viewBox="0 0 70 70"
   version="1.1"
   xml:space="preserve"
   style="fill-rule:evenodd;clip-rule:evenodd;stroke-linejoin:round;stroke-miterlimit:2;"
   id="svg19"
   xmlns="http://www.w3.org/2000/svg"
   xmlns:svg="http://www.w3.org/2000/svg"><defs
   id="defs19">
        
    
            
            
            
            
            
            
            
            
            
            
            
            
            
            
            
            
        </defs>
    <g
   transform="matrix(0.02499993,0,0,0.02499999,9.9978018,83.00033)"
   id="g1">
                <path
   d="M 480,-680 H 360 c -66.23,0 -120,-53.77 -120,-120 v -2000 c 0,-66.23 53.77,-120 120,-120 h 1520 c 22.08,0 40,17.92 40,40 v 2160 c 0,22.077 -17.92,40 -40,40 H 680 v 160 l -100,-80 -100,80 z"
   style="fill-opacity:0.2"
   id="path1" />
            </g><g
   transform="matrix(3.6442584,0,0,0.28996823,-3390.5566,21.726261)"
   id="g2">
                <rect
   x="934.5"
   y="125.097"
   width="10.976"
   height="13.795"
   style="fill:#e6e6e6"
   id="rect2" />
            </g><g
   transform="matrix(1.8221292,0,0,0.14498427,-1686.7805,40.863394)"
   id="g3">
                <path
   d="m 942.732,125.097 -4.939,13.794 H 934.5 v -13.794 z"
   style="fill-opacity:0.2"
   id="path2" />
            </g><g
   transform="matrix(3.6442584,0,0,3.6246144,-3390.5566,-445.42611)"
   id="g4">
                <rect
   x="934.5"
   y="125.097"
   width="10.976"
   height="13.795"
   style="fill:#f54c0e"
   id="rect3" />
            </g><g
   transform="matrix(0.27331991,0,0,3.6246144,-240.41955,-445.42611)"
   id="g5">
                <rect
   x="934.5"
   y="125.097"
   width="10.976"
   height="13.795"
   style="fill:#ffffff;fill-opacity:0.25"
   id="rect4" />
            </g><g
   transform="matrix(1.086219,0,0,1.0657031,-993.30971,-119.82914)"
   id="g6">
                <path
   d="m 966.02,119.949 v 50.671 c 0,0.518 -0.412,0.938 -0.92,0.938 h -34.984 c -1.524,0 -2.762,-1.261 -2.762,-2.815 v -46.917 c 0,-1.554 1.238,-2.815 2.762,-2.815 H 965.1 c 0.508,0 0.92,0.42 0.92,0.938 z m -1.841,49.732 v -48.794 h -34.063 c -0.508,0 -0.921,0.421 -0.921,0.939 v 46.917 c 0,0.518 0.413,0.938 0.921,0.938 z"
   style="fill:#932c06"
   id="path5" />
            </g><g
   transform="matrix(1.086219,0,0,0.11418252,-993.30971,43.41144)"
   id="g7">
                <path
   d="M 966.02,127.769 V 162.8 c 0,4.834 -0.412,8.758 -0.92,8.758 h -34.984 c -1.524,0 -2.762,-11.773 -2.762,-26.274 0,-14.5 1.238,-26.273 2.762,-26.273 H 965.1 c 0.508,0 0.92,3.924 0.92,8.758 z m -1.841,26.273 v -17.516 h -34.063 c -0.508,0 -0.921,3.925 -0.921,8.758 0,4.834 0.413,8.758 0.921,8.758 z"
   id="path6" />
            </g><g
   transform="matrix(0.02499993,0,0,0.02499999,7.9977488,82.000392)"
   id="g8">
                <path
   d="m 480,-880 h 200 v 360 l -100,-80 -100,80 v -360"
   style="fill:#621d04;fill-rule:nonzero"
   id="path7" />
            </g><g
   transform="matrix(0.02499993,0,0,0.02499999,22.989738,36.000324)"
   id="g9">
                <path
   d="m 584,-637 c 0,-28.667 -9.5,-51.667 -28.5,-69 -19,-17.333 -44.167,-26 -75.5,-26 -19.333,0 -36.833,4.167 -52.5,12.5 -15.667,8.333 -29.167,20.5 -40.5,36.5 -10.667,15.333 -25.167,24.167 -43.5,26.5 -18.333,2.333 -34.167,-2.5 -47.5,-14.5 -9.333,-8.667 -14.5,-19.333 -15.5,-32 -1,-12.667 2.167,-24.667 9.5,-36 21.333,-32 48.5,-56.833 81.5,-74.5 33,-17.667 69.167,-26.5 108.5,-26.5 64.667,0 117.167,18.333 157.5,55 40.333,36.667 60.5,84.667 60.5,144 0,30 -6.333,57 -19,81 -12.667,24 -36,52.333 -70,85 -24.667,23.333 -41.333,41.5 -50,54.5 -8.667,13 -14.333,27.833 -17,44.5 -2.667,16 -9.5,29.333 -20.5,40 -11,10.667 -24.167,16 -39.5,16 -15.333,0 -28.5,-5.167 -39.5,-15.5 -11,-10.333 -16.5,-23.167 -16.5,-38.5 0,-26 5.667,-49.833 17,-71.5 11.333,-21.667 30.333,-44.5 57,-68.5 34,-30 56.5,-53.167 67.5,-69.5 11,-16.333 16.5,-34.167 16.5,-53.5 z"
   style="fill-opacity:0.25"
   id="path8" />
            </g><g
   transform="matrix(0.02499993,0,0,0.02499999,22.997726,37.000415)"
   id="g10">
                <path
   d="m 480,-80 c -22,0 -40.833,-7.833 -56.5,-23.5 C 407.833,-119.167 400,-138 400,-160 c 0,-22 7.833,-40.833 23.5,-56.5 15.667,-15.667 34.5,-23.5 56.5,-23.5 22,0 40.833,7.833 56.5,23.5 15.667,15.667 23.5,34.5 23.5,56.5 0,22 -7.833,40.833 -23.5,56.5 C 520.833,-87.833 502,-80 480,-80 Z"
   style="fill-opacity:0.25"
   id="path9" />
            </g><g
   transform="matrix(0.02499993,0,0,0.02499999,23.98966,37.000415)"
   id="g11">
                <path
   d="m 584,-637 c 0,-28.667 -9.5,-51.667 -28.5,-69 -19,-17.333 -44.167,-26 -75.5,-26 -19.333,0 -36.833,4.167 -52.5,12.5 -15.667,8.333 -29.167,20.5 -40.5,36.5 -10.667,15.333 -25.167,24.167 -43.5,26.5 -18.333,2.333 -34.167,-2.5 -47.5,-14.5 -9.333,-8.667 -14.5,-19.333 -15.5,-32 -1,-12.667 2.167,-24.667 9.5,-36 21.333,-32 48.5,-56.833 81.5,-74.5 33,-17.667 69.167,-26.5 108.5,-26.5 64.667,0 117.167,18.333 157.5,55 40.333,36.667 60.5,84.667 60.5,144 0,30 -6.333,57 -19,81 -12.667,24 -36,52.333 -70,85 -24.667,23.333 -41.333,41.5 -50,54.5 -8.667,13 -14.333,27.833 -17,44.5 -2.667,16 -9.5,29.333 -20.5,40 -11,10.667 -24.167,16 -39.5,16 -15.333,0 -28.5,-5.167 -39.5,-15.5 -11,-10.333 -16.5,-23.167 -16.5,-38.5 0,-26 5.667,-49.833 17,-71.5 11.333,-21.667 30.333,-44.5 57,-68.5 34,-30 56.5,-53.167 67.5,-69.5 11,-16.333 16.5,-34.167 16.5,-53.5 z"
   style="fill:#ffffff"
   id="path10" />
            </g><g
   transform="matrix(0.02499993,0,0,0.02499999,23.997752,38.000353)"
   id="g12">
                <path
   d="m 480,-80 c -22,0 -40.833,-7.833 -56.5,-23.5 C 407.833,-119.167 400,-138 400,-160 c 0,-22 7.833,-40.833 23.5,-56.5 15.667,-15.667 34.5,-23.5 56.5,-23.5 22,0 40.833,7.833 56.5,23.5 15.667,15.667 23.5,34.5 23.5,56.5 0,22 -7.833,40.833 -23.5,56.5 C 520.833,-87.833 502,-80 480,-80 Z"
   style="fill:#ffffff"
   id="path11" />
            </g><g
   transform="matrix(0.18221292,0,0,3.6246144,-116.28069,-444.42526)"
   id="g13">
                <path
   d="m 945.476,125.372 v 13.243 c 0,0.153 -2.459,0.276 -5.488,0.276 -3.029,0 -5.488,-0.123 -5.488,-0.276 v -13.518 h 5.488 c 3.029,0 5.488,0.123 5.488,0.275 z"
   id="path12" />
            </g><g
   transform="matrix(0.91059901,0,0,0.96952241,-513.44098,-62.718771)"
   id="g15">
                <path
   d="m 599.329,110.624 c 0,0.462 -0.057,0.882 -0.171,1.259 -0.114,0.377 -0.292,0.698 -0.533,0.964 -0.242,0.266 -0.551,0.471 -0.928,0.615 -0.377,0.145 -0.828,0.217 -1.354,0.217 h -1.514 v -5.959 h 1.765 c 0.456,0 0.854,0.057 1.196,0.171 0.342,0.114 0.627,0.29 0.855,0.527 0.228,0.237 0.399,0.538 0.513,0.903 0.114,0.364 0.171,0.799 0.171,1.303 z m -1.204,0.073 c 0,-0.322 -0.025,-0.609 -0.077,-0.861 -0.052,-0.252 -0.139,-0.466 -0.262,-0.641 -0.123,-0.174 -0.288,-0.307 -0.495,-0.399 -0.207,-0.091 -0.463,-0.136 -0.77,-0.136 h -0.57 v 4.08 h 0.492 c 0.55,0 0.968,-0.164 1.254,-0.493 0.286,-0.328 0.428,-0.844 0.428,-1.55 z"
   style="fill-opacity:0.25;fill-rule:nonzero"
   id="path13" />
                <path
   d="m 604.376,111.327 c 0,0.364 -0.052,0.698 -0.155,1 -0.104,0.303 -0.253,0.562 -0.447,0.777 -0.195,0.216 -0.433,0.383 -0.716,0.502 -0.283,0.118 -0.605,0.178 -0.966,0.178 -0.344,0 -0.651,-0.05 -0.921,-0.151 -0.271,-0.1 -0.5,-0.25 -0.689,-0.449 -0.188,-0.199 -0.332,-0.448 -0.433,-0.747 -0.1,-0.3 -0.15,-0.649 -0.15,-1.047 0,-0.367 0.052,-0.702 0.157,-1.003 0.105,-0.3 0.255,-0.557 0.451,-0.77 0.196,-0.213 0.436,-0.378 0.718,-0.495 0.283,-0.117 0.602,-0.175 0.958,-0.175 0.346,0 0.655,0.051 0.925,0.153 0.271,0.101 0.5,0.253 0.689,0.453 0.188,0.201 0.332,0.449 0.43,0.746 0.099,0.296 0.149,0.639 0.149,1.028 z m -1.158,0.027 c 0,-0.48 -0.091,-0.841 -0.272,-1.083 -0.18,-0.241 -0.447,-0.362 -0.8,-0.362 -0.194,0 -0.36,0.038 -0.497,0.114 -0.136,0.076 -0.249,0.18 -0.337,0.312 -0.088,0.132 -0.153,0.286 -0.194,0.463 -0.041,0.176 -0.061,0.364 -0.061,0.565 0,0.483 0.097,0.847 0.292,1.092 0.194,0.244 0.46,0.367 0.797,0.367 0.186,0 0.347,-0.037 0.484,-0.112 0.136,-0.074 0.247,-0.178 0.332,-0.31 0.085,-0.132 0.149,-0.288 0.192,-0.467 0.042,-0.179 0.064,-0.372 0.064,-0.579 z"
   style="fill-opacity:0.25;fill-rule:nonzero"
   id="path14" />
                <path
   d="m 609.085,113.501 c -0.219,0.088 -0.445,0.154 -0.679,0.196 -0.234,0.043 -0.479,0.064 -0.734,0.064 -0.368,0 -0.698,-0.05 -0.99,-0.15 -0.291,-0.101 -0.539,-0.25 -0.743,-0.447 -0.203,-0.198 -0.359,-0.442 -0.467,-0.734 -0.108,-0.292 -0.162,-0.629 -0.162,-1.012 0,-0.371 0.059,-0.707 0.176,-1.008 0.117,-0.301 0.282,-0.557 0.494,-0.77 0.213,-0.213 0.469,-0.377 0.768,-0.493 0.3,-0.115 0.633,-0.173 1.001,-0.173 0.301,0 0.554,0.016 0.759,0.048 0.205,0.032 0.39,0.072 0.554,0.121 v 1.08 c -0.188,-0.094 -0.393,-0.167 -0.613,-0.219 -0.22,-0.051 -0.429,-0.077 -0.627,-0.077 -0.207,0 -0.392,0.035 -0.556,0.105 -0.164,0.07 -0.303,0.167 -0.415,0.292 -0.112,0.124 -0.198,0.275 -0.258,0.453 -0.059,0.178 -0.088,0.373 -0.088,0.586 0,0.222 0.031,0.421 0.095,0.597 0.064,0.176 0.155,0.326 0.272,0.449 0.117,0.123 0.257,0.218 0.421,0.283 0.164,0.065 0.347,0.098 0.547,0.098 0.098,0 0.2,-0.007 0.308,-0.021 0.108,-0.013 0.216,-0.033 0.324,-0.059 0.108,-0.026 0.214,-0.055 0.319,-0.089 0.105,-0.033 0.203,-0.07 0.294,-0.109 z"
   style="fill-opacity:0.25;fill-rule:nonzero"
   id="path15" />
            </g><g
   transform="matrix(0.91059901,0,0,0.96952241,-512.69056,-61.968127)"
   id="g18">
                <path
   d="m 599.329,110.624 c 0,0.462 -0.057,0.882 -0.171,1.259 -0.114,0.377 -0.292,0.698 -0.533,0.964 -0.242,0.266 -0.551,0.471 -0.928,0.615 -0.377,0.145 -0.828,0.217 -1.354,0.217 h -1.514 v -5.959 h 1.765 c 0.456,0 0.854,0.057 1.196,0.171 0.342,0.114 0.627,0.29 0.855,0.527 0.228,0.237 0.399,0.538 0.513,0.903 0.114,0.364 0.171,0.799 0.171,1.303 z m -1.204,0.073 c 0,-0.322 -0.025,-0.609 -0.077,-0.861 -0.052,-0.252 -0.139,-0.466 -0.262,-0.641 -0.123,-0.174 -0.288,-0.307 -0.495,-0.399 -0.207,-0.091 -0.463,-0.136 -0.77,-0.136 h -0.57 v 4.08 h 0.492 c 0.55,0 0.968,-0.164 1.254,-0.493 0.286,-0.328 0.428,-0.844 0.428,-1.55 z"
   style="fill:#ffffff;fill-rule:nonzero"
   id="path16" />
                <path
   d="m 604.376,111.327 c 0,0.364 -0.052,0.698 -0.155,1 -0.104,0.303 -0.253,0.562 -0.447,0.777 -0.195,0.216 -0.433,0.383 -0.716,0.502 -0.283,0.118 -0.605,0.178 -0.966,0.178 -0.344,0 -0.651,-0.05 -0.921,-0.151 -0.271,-0.1 -0.5,-0.25 -0.689,-0.449 -0.188,-0.199 -0.332,-0.448 -0.433,-0.747 -0.1,-0.3 -0.15,-0.649 -0.15,-1.047 0,-0.367 0.052,-0.702 0.157,-1.003 0.105,-0.3 0.255,-0.557 0.451,-0.77 0.196,-0.213 0.436,-0.378 0.718,-0.495 0.283,-0.117 0.602,-0.175 0.958,-0.175 0.346,0 0.655,0.051 0.925,0.153 0.271,0.101 0.5,0.253 0.689,0.453 0.188,0.201 0.332,0.449 0.43,0.746 0.099,0.296 0.149,0.639 0.149,1.028 z m -1.158,0.027 c 0,-0.48 -0.091,-0.841 -0.272,-1.083 -0.18,-0.241 -0.447,-0.362 -0.8,-0.362 -0.194,0 -0.36,0.038 -0.497,0.114 -0.136,0.076 -0.249,0.18 -0.337,0.312 -0.088,0.132 -0.153,0.286 -0.194,0.463 -0.041,0.176 -0.061,0.364 -0.061,0.565 0,0.483 0.097,0.847 0.292,1.092 0.194,0.244 0.46,0.367 0.797,0.367 0.186,0 0.347,-0.037 0.484,-0.112 0.136,-0.074 0.247,-0.178 0.332,-0.31 0.085,-0.132 0.149,-0.288 0.192,-0.467 0.042,-0.179 0.064,-0.372 0.064,-0.579 z"
   style="fill:#ffffff;fill-rule:nonzero"
   id="path17" />
                <path
   d="m 609.085,113.501 c -0.219,0.088 -0.445,0.154 -0.679,0.196 -0.234,0.043 -0.479,0.064 -0.734,0.064 -0.368,0 -0.698,-0.05 -0.99,-0.15 -0.291,-0.101 -0.539,-0.25 -0.743,-0.447 -0.203,-0.198 -0.359,-0.442 -0.467,-0.734 -0.108,-0.292 -0.162,-0.629 -0.162,-1.012 0,-0.371 0.059,-0.707 0.176,-1.008 0.117,-0.301 0.282,-0.557 0.494,-0.77 0.213,-0.213 0.469,-0.377 0.768,-0.493 0.3,-0.115 0.633,-0.173 1.001,-0.173 0.301,0 0.554,0.016 0.759,0.048 0.205,0.032 0.39,0.072 0.554,0.121 v 1.08 c -0.188,-0.094 -0.393,-0.167 -0.613,-0.219 -0.22,-0.051 -0.429,-0.077 -0.627,-0.077 -0.207,0 -0.392,0.035 -0.556,0.105 -0.164,0.07 -0.303,0.167 -0.415,0.292 -0.112,0.124 -0.198,0.275 -0.258,0.453 -0.059,0.178 -0.088,0.373 -0.088,0.586 0,0.222 0.031,0.421 0.095,0.597 0.064,0.176 0.155,0.326 0.272,0.449 0.117,0.123 0.257,0.218 0.421,0.283 0.164,0.065 0.347,0.098 0.547,0.098 0.098,0 0.2,-0.007 0.308,-0.021 0.108,-0.013 0.216,-0.033 0.324,-0.059 0.108,-0.026 0.214,-0.055 0.319,-0.089 0.105,-0.033 0.203,-0.07 0.294,-0.109 z"
   style="fill:#ffffff;fill-rule:nonzero"
   id="path18" />
            </g>
</svg>
