<?xml version="1.0" encoding="UTF-8" standalone="no"?>
<!DOCTYPE svg PUBLIC "-//W3C//DTD SVG 1.1//EN" "http://www.w3.org/Graphics/SVG/1.1/DTD/svg11.dtd">
<svg width="100%" height="100%" viewBox="0 0 70 70" version="1.1" xmlns="http://www.w3.org/2000/svg" xmlns:xlink="http://www.w3.org/1999/xlink" xml:space="preserve" xmlns:serif="http://www.serif.com/" style="fill-rule:evenodd;clip-rule:evenodd;stroke-linejoin:round;stroke-miterlimit:2;">
    <g transform="matrix(1,0,0,1,-912,-40)">
        <g id="docs_help" transform="matrix(1.051,0,0,1.53506,968.862,186.711)">
            <rect x="-54.103" y="-95.573" width="66.603" height="45.601" style="fill:none;"/>
            <g transform="matrix(0.0237868,0,0,0.016286,-44.5882,-41.5037)">
                <path d="M480,-680L360,-680C293.77,-680 240,-733.77 240,-800L240,-2800C240,-2866.23 293.77,-2920 360,-2920L1880,-2920C1902.08,-2920 1920,-2902.08 1920,-2880L1920,-720C1920,-697.923 1902.08,-680 1880,-680L680,-680L680,-520L580,-600L480,-520L480,-680Z" style="fill-opacity:0.2;"/>
            </g>
            <g transform="matrix(3.46742,0,0,0.188897,-3280.13,-81.4201)">
                <rect x="934.5" y="125.097" width="10.976" height="13.795" style="fill:rgb(230,230,230);"/>
            </g>
            <g transform="matrix(1.73371,0,0,0.0944486,-1659.03,-68.9534)">
                <path d="M942.732,125.097L937.793,138.891L934.5,138.891L934.5,125.097L942.732,125.097Z" style="fill-opacity:0.2;"/>
            </g>
            <g transform="matrix(3.46742,0,0,2.36122,-3280.13,-385.742)">
                <rect x="934.5" y="125.097" width="10.976" height="13.795" style="fill:rgb(245,76,14);"/>
            </g>
            <g transform="matrix(0.260057,0,0,2.36122,-282.854,-385.742)">
                <rect x="934.5" y="125.097" width="10.976" height="13.795" style="fill:white;fill-opacity:0.25;"/>
            </g>
            <g transform="matrix(1.03351,0,0,0.694242,-999.21,-173.635)">
                <path d="M966.02,119.949L966.02,170.62C966.02,171.138 965.608,171.558 965.1,171.558L930.116,171.558C928.592,171.558 927.354,170.297 927.354,168.743L927.354,121.826C927.354,120.272 928.592,119.011 930.116,119.011L965.1,119.011C965.608,119.011 966.02,119.431 966.02,119.949ZM964.179,169.681L964.179,120.887L930.116,120.887C929.608,120.887 929.195,121.308 929.195,121.826L929.195,168.743C929.195,169.261 929.608,169.681 930.116,169.681L964.179,169.681Z" style="fill:rgb(147,44,6);"/>
            </g>
            <g transform="matrix(1.03351,0,0,0.0743831,-999.21,-67.2935)">
                <path d="M966.02,127.769L966.02,162.8C966.02,167.634 965.608,171.558 965.1,171.558L930.116,171.558C928.592,171.558 927.354,159.785 927.354,145.284C927.354,130.784 928.592,119.011 930.116,119.011L965.1,119.011C965.608,119.011 966.02,122.935 966.02,127.769ZM964.179,154.042L964.179,136.526L930.116,136.526C929.608,136.526 929.195,140.451 929.195,145.284C929.195,150.118 929.608,154.042 930.116,154.042L964.179,154.042Z"/>
            </g>
            <g transform="matrix(0.0237868,0,0,0.016286,-46.4912,-42.1551)">
                <path d="M480,-880L680,-880L680,-520L580,-600L480,-520L480,-880" style="fill:rgb(98,29,4);fill-rule:nonzero;"/>
            </g>
            <g transform="matrix(0.0237868,0,0,0.016286,-32.2267,-72.1214)">
                <path d="M584,-637C584,-665.667 574.5,-688.667 555.5,-706C536.5,-723.333 511.333,-732 480,-732C460.667,-732 443.167,-727.833 427.5,-719.5C411.833,-711.167 398.333,-699 387,-683C376.333,-667.667 361.833,-658.833 343.5,-656.5C325.167,-654.167 309.333,-659 296,-671C286.667,-679.667 281.5,-690.333 280.5,-703C279.5,-715.667 282.667,-727.667 290,-739C311.333,-771 338.5,-795.833 371.5,-813.5C404.5,-831.167 440.667,-840 480,-840C544.667,-840 597.167,-821.667 637.5,-785C677.833,-748.333 698,-700.333 698,-641C698,-611 691.667,-584 679,-560C666.333,-536 643,-507.667 609,-475C584.333,-451.667 567.667,-433.5 559,-420.5C550.333,-407.5 544.667,-392.667 542,-376C539.333,-360 532.5,-346.667 521.5,-336C510.5,-325.333 497.333,-320 482,-320C466.667,-320 453.5,-325.167 442.5,-335.5C431.5,-345.833 426,-358.667 426,-374C426,-400 431.667,-423.833 443,-445.5C454.333,-467.167 473.333,-490 500,-514C534,-544 556.5,-567.167 567.5,-583.5C578.5,-599.833 584,-617.667 584,-637Z" style="fill-opacity:0.25;"/>
            </g>
            <g transform="matrix(0.0237868,0,0,0.016286,-32.2191,-71.4699)">
                <path d="M480,-80C458,-80 439.167,-87.833 423.5,-103.5C407.833,-119.167 400,-138 400,-160C400,-182 407.833,-200.833 423.5,-216.5C439.167,-232.167 458,-240 480,-240C502,-240 520.833,-232.167 536.5,-216.5C552.167,-200.833 560,-182 560,-160C560,-138 552.167,-119.167 536.5,-103.5C520.833,-87.833 502,-80 480,-80Z" style="fill-opacity:0.25;"/>
            </g>
            <g transform="matrix(0.0237868,0,0,0.016286,-31.2753,-71.4699)">
                <path d="M584,-637C584,-665.667 574.5,-688.667 555.5,-706C536.5,-723.333 511.333,-732 480,-732C460.667,-732 443.167,-727.833 427.5,-719.5C411.833,-711.167 398.333,-699 387,-683C376.333,-667.667 361.833,-658.833 343.5,-656.5C325.167,-654.167 309.333,-659 296,-671C286.667,-679.667 281.5,-690.333 280.5,-703C279.5,-715.667 282.667,-727.667 290,-739C311.333,-771 338.5,-795.833 371.5,-813.5C404.5,-831.167 440.667,-840 480,-840C544.667,-840 597.167,-821.667 637.5,-785C677.833,-748.333 698,-700.333 698,-641C698,-611 691.667,-584 679,-560C666.333,-536 643,-507.667 609,-475C584.333,-451.667 567.667,-433.5 559,-420.5C550.333,-407.5 544.667,-392.667 542,-376C539.333,-360 532.5,-346.667 521.5,-336C510.5,-325.333 497.333,-320 482,-320C466.667,-320 453.5,-325.167 442.5,-335.5C431.5,-345.833 426,-358.667 426,-374C426,-400 431.667,-423.833 443,-445.5C454.333,-467.167 473.333,-490 500,-514C534,-544 556.5,-567.167 567.5,-583.5C578.5,-599.833 584,-617.667 584,-637Z" style="fill:white;"/>
            </g>
            <g transform="matrix(0.0237868,0,0,0.016286,-31.2676,-70.8185)">
                <path d="M480,-80C458,-80 439.167,-87.833 423.5,-103.5C407.833,-119.167 400,-138 400,-160C400,-182 407.833,-200.833 423.5,-216.5C439.167,-232.167 458,-240 480,-240C502,-240 520.833,-232.167 536.5,-216.5C552.167,-200.833 560,-182 560,-160C560,-138 552.167,-119.167 536.5,-103.5C520.833,-87.833 502,-80 480,-80Z" style="fill:white;"/>
            </g>
            <g transform="matrix(0.866412,0,0,0.631586,-544.53,-136.431)">
                <path d="M598.016,113.679L598.016,111.085L595.992,111.085L595.992,113.679L594.87,113.679L594.87,107.72L595.992,107.72L595.992,110.114L598.016,110.114L598.016,107.72L599.137,107.72L599.137,113.679L598.016,113.679Z" style="fill-opacity:0.25;fill-rule:nonzero;"/>
                <path d="M604.239,111.007C604.239,111.083 604.237,111.182 604.232,111.304C604.227,111.425 604.221,111.539 604.211,111.646L601.166,111.646C601.166,111.849 601.197,112.029 601.26,112.184C601.322,112.339 601.41,112.469 601.524,112.573C601.638,112.678 601.775,112.758 601.934,112.813C602.094,112.867 602.271,112.895 602.465,112.895C602.69,112.895 602.931,112.877 603.188,112.842C603.445,112.807 603.712,112.75 603.988,112.671L603.988,113.556C603.87,113.589 603.74,113.62 603.601,113.647C603.461,113.674 603.318,113.699 603.172,113.72C603.026,113.741 602.879,113.757 602.73,113.768C602.581,113.778 602.437,113.784 602.297,113.784C601.944,113.784 601.628,113.734 601.349,113.633C601.069,113.533 600.832,113.385 600.637,113.189C600.443,112.993 600.294,112.75 600.191,112.462C600.087,112.173 600.036,111.839 600.036,111.459C600.036,111.082 600.087,110.739 600.191,110.431C600.294,110.122 600.44,109.858 600.628,109.637C600.817,109.417 601.045,109.247 601.314,109.127C601.583,109.007 601.883,108.947 602.215,108.947C602.543,108.947 602.833,108.998 603.085,109.1C603.338,109.201 603.549,109.343 603.719,109.526C603.889,109.708 604.018,109.925 604.107,110.178C604.195,110.43 604.239,110.707 604.239,111.007ZM603.108,110.848C603.111,110.665 603.088,110.507 603.04,110.371C602.991,110.236 602.925,110.125 602.842,110.036C602.758,109.948 602.661,109.883 602.55,109.84C602.439,109.798 602.32,109.777 602.192,109.777C601.912,109.777 601.683,109.87 601.504,110.057C601.324,110.244 601.218,110.507 601.184,110.848L603.108,110.848Z" style="fill-opacity:0.25;fill-rule:nonzero;"/>
                <path d="M606.833,108.103L605.524,108.103L605.524,107.237L607.972,107.237L607.972,112.813L609.308,112.813L609.308,113.679L605.365,113.679L605.365,112.813L606.833,112.813L606.833,108.103Z" style="fill-opacity:0.25;fill-rule:nonzero;"/>
                <path d="M614.638,111.281C614.638,111.706 614.577,112.074 614.457,112.384C614.337,112.694 614.17,112.952 613.956,113.157C613.742,113.362 613.489,113.514 613.197,113.613C612.905,113.712 612.588,113.761 612.244,113.761C612.129,113.761 612.013,113.753 611.898,113.738C611.782,113.723 611.677,113.703 611.583,113.679L611.583,115.489L610.471,115.489L610.471,109.047L611.433,109.047L611.46,109.731C611.554,109.612 611.652,109.505 611.754,109.407C611.856,109.31 611.966,109.227 612.085,109.159C612.203,109.09 612.331,109.038 612.468,109.002C612.604,108.965 612.758,108.947 612.928,108.947C613.201,108.947 613.445,109.002 613.657,109.111C613.87,109.22 614.049,109.376 614.193,109.578C614.337,109.78 614.448,110.025 614.524,110.312C614.6,110.599 614.638,110.922 614.638,111.281ZM613.47,111.327C613.47,111.071 613.452,110.854 613.416,110.675C613.379,110.495 613.327,110.348 613.258,110.232C613.19,110.117 613.107,110.033 613.008,109.979C612.909,109.926 612.796,109.9 612.668,109.9C612.48,109.9 612.3,109.976 612.128,110.128C611.956,110.28 611.775,110.486 611.583,110.748L611.583,112.772C611.671,112.805 611.78,112.832 611.909,112.854C612.038,112.875 612.17,112.886 612.303,112.886C612.48,112.886 612.64,112.849 612.784,112.776C612.929,112.703 613.052,112.6 613.154,112.466C613.255,112.333 613.334,112.169 613.388,111.976C613.443,111.783 613.47,111.567 613.47,111.327Z" style="fill-opacity:0.25;fill-rule:nonzero;"/>
            </g>
            <g transform="matrix(0.866412,0,0,0.631586,-543.816,-135.942)">
                <path d="M598.016,113.679L598.016,111.085L595.992,111.085L595.992,113.679L594.87,113.679L594.87,107.72L595.992,107.72L595.992,110.114L598.016,110.114L598.016,107.72L599.137,107.72L599.137,113.679L598.016,113.679Z" style="fill:white;"/>
                <path d="M604.239,111.007C604.239,111.083 604.237,111.182 604.232,111.304C604.227,111.425 604.221,111.539 604.211,111.646L601.166,111.646C601.166,111.849 601.197,112.029 601.26,112.184C601.322,112.339 601.41,112.469 601.524,112.573C601.638,112.678 601.775,112.758 601.934,112.813C602.094,112.867 602.271,112.895 602.465,112.895C602.69,112.895 602.931,112.877 603.188,112.842C603.445,112.807 603.712,112.75 603.988,112.671L603.988,113.556C603.87,113.589 603.74,113.62 603.601,113.647C603.461,113.674 603.318,113.699 603.172,113.72C603.026,113.741 602.879,113.757 602.73,113.768C602.581,113.778 602.437,113.784 602.297,113.784C601.944,113.784 601.628,113.734 601.349,113.633C601.069,113.533 600.832,113.385 600.637,113.189C600.443,112.993 600.294,112.75 600.191,112.462C600.087,112.173 600.036,111.839 600.036,111.459C600.036,111.082 600.087,110.739 600.191,110.431C600.294,110.122 600.44,109.858 600.628,109.637C600.817,109.417 601.045,109.247 601.314,109.127C601.583,109.007 601.883,108.947 602.215,108.947C602.543,108.947 602.833,108.998 603.085,109.1C603.338,109.201 603.549,109.343 603.719,109.526C603.889,109.708 604.018,109.925 604.107,110.178C604.195,110.43 604.239,110.707 604.239,111.007ZM603.108,110.848C603.111,110.665 603.088,110.507 603.04,110.371C602.991,110.236 602.925,110.125 602.842,110.036C602.758,109.948 602.661,109.883 602.55,109.84C602.439,109.798 602.32,109.777 602.192,109.777C601.912,109.777 601.683,109.87 601.504,110.057C601.324,110.244 601.218,110.507 601.184,110.848L603.108,110.848Z" style="fill:white;"/>
                <path d="M606.833,108.103L605.524,108.103L605.524,107.237L607.972,107.237L607.972,112.813L609.308,112.813L609.308,113.679L605.365,113.679L605.365,112.813L606.833,112.813L606.833,108.103Z" style="fill:white;"/>
                <path d="M614.638,111.281C614.638,111.706 614.577,112.074 614.457,112.384C614.337,112.694 614.17,112.952 613.956,113.157C613.742,113.362 613.489,113.514 613.197,113.613C612.905,113.712 612.588,113.761 612.244,113.761C612.129,113.761 612.013,113.753 611.898,113.738C611.782,113.723 611.677,113.703 611.583,113.679L611.583,115.489L610.471,115.489L610.471,109.047L611.433,109.047L611.46,109.731C611.554,109.612 611.652,109.505 611.754,109.407C611.856,109.31 611.966,109.227 612.085,109.159C612.203,109.09 612.331,109.038 612.468,109.002C612.604,108.965 612.758,108.947 612.928,108.947C613.201,108.947 613.445,109.002 613.657,109.111C613.87,109.22 614.049,109.376 614.193,109.578C614.337,109.78 614.448,110.025 614.524,110.312C614.6,110.599 614.638,110.922 614.638,111.281ZM613.47,111.327C613.47,111.071 613.452,110.854 613.416,110.675C613.379,110.495 613.327,110.348 613.258,110.232C613.19,110.117 613.107,110.033 613.008,109.979C612.909,109.926 612.796,109.9 612.668,109.9C612.48,109.9 612.3,109.976 612.128,110.128C611.956,110.28 611.775,110.486 611.583,110.748L611.583,112.772C611.671,112.805 611.78,112.832 611.909,112.854C612.038,112.875 612.17,112.886 612.303,112.886C612.48,112.886 612.64,112.849 612.784,112.776C612.929,112.703 613.052,112.6 613.154,112.466C613.255,112.333 613.334,112.169 613.388,111.976C613.443,111.783 613.47,111.567 613.47,111.327Z" style="fill:white;"/>
            </g>
            <g transform="matrix(0.173371,0,0,2.36122,-164.739,-385.09)">
                <path d="M945.476,125.372L945.476,138.615C945.476,138.768 943.017,138.891 939.988,138.891C936.959,138.891 934.5,138.768 934.5,138.615L934.5,125.097L939.988,125.097C943.017,125.097 945.476,125.22 945.476,125.372Z"/>
            </g>
        </g>
    </g>
</svg>
