<?xml version="1.0" encoding="UTF-8" standalone="no"?>
<svg
   width="100%"
   height="100%"
   viewBox="0 0 24 24"
   version="1.1"
   xml:space="preserve"
   style="fill-rule:evenodd;clip-rule:evenodd;stroke-linejoin:round;stroke-miterlimit:2;"
   id="svg4"
   xmlns="http://www.w3.org/2000/svg"
   xmlns:svg="http://www.w3.org/2000/svg"><defs
   id="defs4">
        
    
            
            
            
        
                
            
                
            </defs>
    <rect
   x="3.0394788"
   y="20.071911"
   width="18.000015"
   height="3"
   id="rect2"
   style="stroke-width:0.0205396;fill:#000000;fill-opacity:1" /><path
   d="M 4.0396597,18.071923 V 13.821921 L 15.239709,2.6469164 c 0.183326,-0.183325 0.395827,-0.3250001 0.637503,-0.4250001 0.241676,-0.1000001 0.495827,-0.1500001 0.762503,-0.1500001 0.266676,0 0.525002,0.05 0.775004,0.1500001 0.250001,0.1 0.475002,0.2500001 0.675003,0.4500001 l 1.375006,1.4000006 c 0.2,0.1833251 0.345826,0.4000002 0.437502,0.6500003 0.09168,0.2500001 0.1375,0.5083252 0.1375,0.7750003 0,0.2500001 -0.04582,0.4958252 -0.1375,0.7375003 -0.09168,0.2416751 -0.237502,0.4625002 -0.437502,0.6625002 L 8.2896785,18.071923 Z M 13.814703,6.8719181 6.0396685,14.671921 v 1.400001 H 7.4396747 L 15.239709,8.2969187 Z"
   id="path2"
   style="stroke-width:0.0250001;fill:#000000;fill-opacity:1" />
</svg>
