<?xml version="1.0" encoding="UTF-8" standalone="no"?>
<svg
   width="100%"
   height="100%"
   viewBox="0 0 24 24"
   version="1.1"
   xml:space="preserve"
   style="fill-rule:evenodd;clip-rule:evenodd;stroke-linejoin:round;stroke-miterlimit:2;"
   id="svg5"
   xmlns="http://www.w3.org/2000/svg"
   xmlns:svg="http://www.w3.org/2000/svg"><defs
   id="defs5">
        
    
            
            
            
        
                
                
            
                    
                
                    
                </defs>
    <path
   d="m 6.0304683,22.072366 c -0.5499996,0 -1.0209993,-0.196 -1.411999,-0.586999 -0.3919997,-0.392 -0.5879995,-0.862999 -0.5879995,-1.412998 V 4.0723971 c 0,-0.549999 0.1959998,-1.0209982 0.5879995,-1.4129975 0.3909997,-0.3909994 0.8619994,-0.586999 1.411999,-0.586999 h 7.9999937 l 5.999996,5.9999895 V 12.097383 H 18.030459 V 9.0723884 H 13.030463 V 4.0723971 H 6.0304683 V 20.072369 h 4.9999967 l -1,1.999997 z"
   style="fill-rule:nonzero;stroke-width:0.999999;fill:#000000;fill-opacity:1"
   id="path2" /><path
   d="m 19.726467,14.612003 4.000064,6.400111 c 0.385291,0.616377 0.405588,1.393604 0.05328,2.029282 -0.352669,0.636108 -1.022488,1.030727 -1.749575,1.030727 h -7.999765 c -0.727086,0 -1.396905,-0.394619 -1.749212,-1.030727 -0.35267,-0.635678 -0.332372,-1.412905 0.05328,-2.029282 l 3.999701,-6.400111 c 0.365718,-0.584636 1.00654,-0.939792 1.696294,-0.939792 0.689391,0 1.330213,0.355156 1.695931,0.939792 z m -1.695931,1.059894 -4.000064,6.400111 h 7.999765 z"
   id="path3"
   style="stroke-width:0.394296;fill:#000000;fill-opacity:1" />
                
            
</svg>
