<?xml version="1.0" encoding="UTF-8" standalone="no"?>
<svg
   width="100%"
   height="100%"
   viewBox="0 0 24 24"
   version="1.1"
   xml:space="preserve"
   style="fill-rule:evenodd;clip-rule:evenodd;stroke-linejoin:round;stroke-miterlimit:2;"
   id="svg4"
   xmlns="http://www.w3.org/2000/svg"
   xmlns:svg="http://www.w3.org/2000/svg"><defs
   id="defs4">
        
    
            
            
            
            
        
                
            
                
            
                
            </defs>
    <path
   d="M 18.025649,20.499659 H 6.0255965 c -0.2761512,0 -0.5000022,-0.22385 -0.5000022,-0.500001 V 3.999652 c 0,-0.2761501 0.223851,-0.5000002 0.5000022,-0.5000002 h 7.0000305 c 0.276152,0 0.500002,0.2238501 0.500002,0.5000002 l 2.5e-5,4.5000018 h 4.499995 c 0.276152,0 0.500002,0.2238501 0.500002,0.5000002 v 11.000004 c 0,0.276151 -0.22385,0.500001 -0.500002,0.500001 z"
   style="fill:#ffc618;stroke-width:0.0250001"
   id="path1" /><path
   d="m 15.025496,12.072108 v 4.000006 c 0,0.552501 -0.447501,1.000002 -1.000002,1.000002 h -4.000009 c -0.5518759,0 -1.0000019,-0.447501 -1.0000019,-1.000002 v -4.000006 c 0,-0.551876 0.448126,-1.000002 1.0000019,-1.000002 h 4.000009 c 0.552501,0 1.000002,0.448126 1.000002,1.000002 z"
   id="path2"
   style="stroke-width:0.625001;fill:#000000;fill-opacity:1" /><path
   d="M 18.025649,21.999659 H 6.0255965 c -0.5500024,0 -1.0208295,-0.195825 -1.4125062,-0.5875 -0.3916767,-0.391675 -0.5875026,-0.8625 -0.5875026,-1.412501 V 3.999652 c 0,-0.5500002 0.1958259,-1.0208254 0.5875026,-1.4125006 C 5.004767,2.1954763 5.4755941,1.9996512 6.0255965,1.9996512 h 8.0000355 l 6.000026,6.0000024 V 19.999658 c 0,0.550001 -0.195826,1.020826 -0.587502,1.412501 -0.391677,0.391675 -0.862504,0.5875 -1.412507,0.5875 z m 0,-2.000001 V 8.999654 H 13.025627 V 3.999652 H 6.0255965 v 16.000006 z"
   id="path3"
   style="stroke-width:0.0250001;fill:#000000;fill-opacity:1" />
</svg>
