<?xml version="1.0" encoding="UTF-8" standalone="no"?>
<svg
   width="100%"
   height="100%"
   viewBox="0 0 24 24"
   version="1.1"
   xml:space="preserve"
   style="fill-rule:evenodd;clip-rule:evenodd;stroke-linejoin:round;stroke-miterlimit:2;"
   id="svg6"
   xmlns="http://www.w3.org/2000/svg"
   xmlns:svg="http://www.w3.org/2000/svg"><defs
   id="defs6">
        
    
            
            
            
        
                
                
                
            
                    
                
                    
                
                    
                </defs>
    <path
   d="m 18.030591,11.671905 -1.009129,0.12935 c -0.325502,0.08488 -0.637853,0.2102 -0.929955,0.372075 -0.584227,0.323825 -1.087454,0.793826 -1.452931,1.378576 l -4.000018,6.400002 c -0.0099,0.01588 -0.0197,0.03177 -0.02937,0.04775 H 6.0305381 V 3.999652 h 7.0000309 v 5.000002 h 5.000022 z"
   style="fill:#ffc618;stroke-width:0.0250001"
   id="path2" /><path
   d="M 10.031465,21.999686 H 6.0304683 c -0.5499996,0 -1.0209993,-0.196 -1.412999,-0.586999 -0.3909997,-0.392 -0.5869995,-0.862999 -0.5869995,-1.412998 V 3.9997171 c 0,-0.549999 0.1959998,-1.0209982 0.5869995,-1.4129975 0.3919997,-0.3909994 0.8629994,-0.586999 1.412999,-0.586999 h 7.9999937 l 5.999996,5.9999895 v 4.2079929 c -0.02,-0.012 -0.041,-0.023 -0.061,-0.034 -0.292,-0.162 -0.604,-0.288 -0.929999,-0.371999 l -1.009,-0.13 V 8.9997084 H 13.030463 V 3.9997171 H 6.0304683 V 19.999689 h 4.5789967 c -0.372,0.613999 -0.566,1.304998 -0.578,1.999997 z"
   id="path3"
   style="stroke-width:0.999999;fill:#000000;fill-opacity:1" /><path
   d="m 19.726467,14.612003 4.000064,6.400111 c 0.385291,0.616377 0.405588,1.393604 0.05328,2.029282 -0.352669,0.636108 -1.022488,1.030727 -1.749575,1.030727 h -7.999765 c -0.727086,0 -1.396905,-0.394619 -1.749212,-1.030727 -0.35267,-0.635678 -0.332372,-1.412905 0.05328,-2.029282 l 3.999701,-6.400111 c 0.365718,-0.584636 1.00654,-0.939792 1.696294,-0.939792 0.689391,0 1.330213,0.355156 1.695931,0.939792 z m -1.695931,1.059894 -4.000064,6.400111 h 7.999765 z"
   id="path4"
   style="stroke-width:0.394296;fill:#000000;fill-opacity:1" />
                
            
</svg>
