<?xml version="1.0" encoding="UTF-8" standalone="no"?>
<svg
   width="100%"
   height="100%"
   viewBox="0 0 24 24"
   version="1.1"
   xml:space="preserve"
   style="fill-rule:evenodd;clip-rule:evenodd;stroke-linejoin:round;stroke-miterlimit:2;"
   id="svg6"
   xmlns="http://www.w3.org/2000/svg"
   xmlns:svg="http://www.w3.org/2000/svg"><defs
   id="defs6">
        
    
            
            
            
        
                
                
                
            
                    
                
                    
                
                    
                </defs>
    <path
   d="m 18.999959,20.999688 3.999997,-3.999994 -1.399999,-1.399997 -1.599998,1.599997 V 13.024701 H 17.99996 v 4.174993 l -1.599999,-1.599997 -1.399999,1.399997 z"
   style="fill-rule:nonzero;stroke-width:0.999999;fill:#000000;fill-opacity:1"
   id="path2" /><rect
   x="14.999963"
   y="21.999685"
   width="7.9999943"
   height="1.9999965"
   style="fill-rule:nonzero;stroke-width:0.999999;fill:#000000;fill-opacity:1"
   id="rect3" /><path
   d="m 6.0000233,21.999686 c -0.5499996,0 -1.0209993,-0.196 -1.411999,-0.586999 -0.3919997,-0.392 -0.5879995,-0.862999 -0.5879995,-1.412998 V 3.9997171 c 0,-0.549999 0.1959998,-1.0209982 0.5879995,-1.4129975 0.3909997,-0.3909994 0.8619994,-0.586999 1.411999,-0.586999 h 7.9999937 l 5.999996,5.9999895 V 11.024705 H 18.000014 V 8.9997084 H 13.000018 V 3.9997171 H 6.0000233 V 19.999689 h 6.9999947 v 1.999997 z"
   style="fill-rule:nonzero;stroke-width:0.999999;fill:#000000;fill-opacity:1"
   id="path3" />
                
            
</svg>
