<?xml version="1.0" encoding="UTF-8" standalone="no"?>
<svg
   width="100%"
   height="100%"
   viewBox="0 0 24 24"
   version="1.1"
   xml:space="preserve"
   style="fill-rule:evenodd;clip-rule:evenodd;stroke-linejoin:round;stroke-miterlimit:2;"
   id="svg3"
   xmlns="http://www.w3.org/2000/svg"
   xmlns:svg="http://www.w3.org/2000/svg"><defs
   id="defs3">
        
    
            
            
            
        
                
            
                
            </defs>
    <path
   d="m 3.9737205,20.000072 c -0.5499985,0 -1.0208221,-0.195825 -1.412496,-0.587499 -0.3916739,-0.391675 -0.5874984,-0.8625 -0.5874984,-1.412499 V 6.0000834 c 0,-0.5499996 0.1958245,-1.0208242 0.5874984,-1.4124989 C 2.9528984,4.1959098 3.423722,4.000085 3.9737205,4.000085 h 5.9999832 l 1.9999943,1.9999984 h 7.999978 c 0.549998,0 1.020822,0.1958248 1.412496,0.5874995 0.391674,0.3916747 0.587498,0.8624993 0.587498,1.4124989 v 9.9999922 c 0,0.549999 -0.195824,1.020824 -0.587498,1.412499 -0.391674,0.391674 -0.862498,0.587499 -1.412496,0.587499 z"
   id="path1"
   style="stroke-width:0.025;fill:#000000;fill-opacity:1" /><rect
   x="3.9737206"
   y="8.000082"
   width="15.999955"
   height="9.9999924"
   style="fill:#ffc618;stroke-width:0.025"
   id="rect2" />
</svg>
