<?xml version="1.0" encoding="UTF-8" standalone="no"?>
<svg
   width="100%"
   height="100%"
   viewBox="0 0 24 24"
   version="1.1"
   xml:space="preserve"
   style="fill-rule:evenodd;clip-rule:evenodd;stroke-linejoin:round;stroke-miterlimit:2;"
   id="svg2"
   xmlns="http://www.w3.org/2000/svg"
   xmlns:svg="http://www.w3.org/2000/svg"><defs
   id="defs2">
        
    
            
            
        
                
            </defs>
    <path
   d="m 4.0003852,19.999658 c -0.5500024,0 -1.0208295,-0.195825 -1.4125062,-0.5875 -0.3916767,-0.391675 -0.5875026,-0.8625 -0.5875026,-1.4125 V 5.9996528 c 0,-0.5500002 0.1958259,-1.0208254 0.5875026,-1.4125006 C 2.9795557,4.1954771 3.4503828,3.999652 4.0003852,3.999652 h 6.0000268 l 2.000008,2.0000008 h 8.000036 c 0.550002,0 1.020829,0.1958251 1.412506,0.5875002 0.391677,0.3916752 0.587502,0.8625004 0.587502,1.4125006 V 17.999658 c 0,0.55 -0.195825,1.020825 -0.587502,1.4125 -0.391677,0.391675 -0.862504,0.5875 -1.412506,0.5875 z m 0,-2 H 20.000456 V 7.9996536 H 4.0003852 Z"
   id="path1"
   style="stroke-width:0.0250001;fill:#000000;fill-opacity:1;stroke:none" />
</svg>
