<?xml version="1.0" encoding="UTF-8" standalone="no"?>
<svg
   width="100%"
   height="100%"
   viewBox="0 0 24 24"
   version="1.1"
   xml:space="preserve"
   style="fill-rule:evenodd;clip-rule:evenodd;stroke-linejoin:round;stroke-miterlimit:2;"
   id="svg3"
   xmlns="http://www.w3.org/2000/svg"
   xmlns:svg="http://www.w3.org/2000/svg"><defs
   id="defs3">
        
    
            
            
            
        
                
            
                
            </defs>
    <path
   d="m 4.9667177,20.000074 c -0.5499985,0 -1.0208221,-0.195825 -1.412496,-0.5875 C 3.1625478,19.020899 2.9667233,18.550075 2.9667233,18.000075 V 7.000084 c 0,-0.5499996 0.1958245,-1.0208242 0.5874984,-1.4124989 C 3.9458956,5.1959104 4.4167192,5.0000856 4.9667177,5.0000856 H 7.9667093 V 7.000084 H 4.9667177 V 18.000075 H 18.966678 V 7.000084 H 15.966687 V 5.0000856 h 2.999991 c 0.549999,0 1.020823,0.1958248 1.412497,0.5874995 0.391673,0.3916747 0.587498,0.8624993 0.587498,1.4124989 v 10.999991 c 0,0.55 -0.195825,1.020824 -0.587498,1.412499 -0.391674,0.391675 -0.862498,0.5875 -1.412497,0.5875 z"
   id="path1"
   style="stroke-width:0.025;fill:#000000;fill-opacity:1" /><path
   d="M 11.966698,16.000075 6.9667121,11.000079 8.3667082,9.6000805 10.966701,12.175078 V 8.82e-5 h 1.999994 V 12.175078 l 2.599993,-2.5749975 1.399996,1.3999985 z"
   id="path2"
   style="stroke-width:0.025;fill:#000000;fill-opacity:1" />
</svg>
