<?xml version="1.0" encoding="UTF-8" standalone="no"?>
<svg
   width="100%"
   height="100%"
   viewBox="0 0 48 48"
   version="1.1"
   xml:space="preserve"
   style="fill-rule:evenodd;clip-rule:evenodd;stroke-linejoin:round;stroke-miterlimit:2;"
   id="svg10"
   xmlns="http://www.w3.org/2000/svg"
   xmlns:svg="http://www.w3.org/2000/svg"><defs
   id="defs10">
        
    
            
            
            
            
            
            
            
        </defs>
    <g
   transform="matrix(0.67960396,0,0,0.80424667,21.452312,5.3686892)"
   id="g1">
                <path
   d="m 6.667,35.601 1.784,2.412 c 0.567,0.767 0.597,1.733 0.078,2.524 -0.518,0.79 -1.504,1.281 -2.574,1.281 h -22.071 c -1.07,0 -2.056,-0.491 -2.574,-1.281 -0.519,-0.791 -0.489,-1.757 0.078,-2.524 L -7.576,23.092 c 0.538,-0.727 1.481,-1.169 2.496,-1.169 1.014,0 1.957,0.442 2.495,1.169 l 1.091,1.475 5.69,-7.692 c 0.537,-0.727 1.48,-1.168 2.495,-1.168 1.015,0 1.958,0.441 2.496,1.168 l 1.091,1.475 5.689,-7.692 c 0.538,-0.727 1.481,-1.168 2.496,-1.168 1.014,0 1.957,0.441 2.495,1.168 l 11.036,14.921 c 0.567,0.767 0.597,1.733 0.078,2.524 -0.518,0.79 -1.504,1.281 -2.574,1.281 h -11.06 l 1.784,2.412 c 0.567,0.767 0.598,1.733 0.079,2.524 -0.519,0.79 -1.504,1.281 -2.574,1.281 z"
   style="fill-opacity:0.15"
   id="path1" />
            </g><g
   transform="matrix(0.67960396,0,0,0.80424667,19.452328,2.3687507)"
   id="g3">
                <path
   d="M 18.463,11.976 29.498,26.897 H 7.427 Z"
   style="fill:#ffffff"
   id="path2" />
                <path
   d="m 20.958,10.658 11.036,14.921 c 0.567,0.767 0.597,1.733 0.078,2.524 -0.518,0.79 -1.504,1.281 -2.574,1.281 H 7.427 c -1.07,0 -2.056,-0.491 -2.574,-1.281 C 4.334,27.312 4.364,26.346 4.931,25.579 L 15.967,10.658 c 0.538,-0.727 1.481,-1.168 2.496,-1.168 1.014,0 1.957,0.441 2.495,1.168 z M 18.463,11.976 7.427,26.897 h 22.071 z"
   id="path3" />
            </g><g
   transform="matrix(0.67960396,0,0,0.80424667,11.45232,7.3687534)"
   id="g5">
                <path
   d="M 18.463,11.976 29.498,26.897 H 7.427 Z"
   style="fill:#ffffff"
   id="path4" />
                <path
   d="m 20.958,10.658 11.036,14.921 c 0.567,0.767 0.597,1.733 0.078,2.524 -0.518,0.79 -1.504,1.281 -2.574,1.281 H 7.427 c -1.07,0 -2.056,-0.491 -2.574,-1.281 C 4.334,27.312 4.364,26.346 4.931,25.579 L 15.967,10.658 c 0.538,-0.727 1.481,-1.168 2.496,-1.168 1.014,0 1.957,0.441 2.495,1.168 z M 18.463,11.976 7.427,26.897 h 22.071 z"
   id="path5" />
            </g><g
   transform="matrix(0.67960396,0,0,0.80424667,3.452312,12.368756)"
   id="g7">
                <path
   d="M 18.463,11.976 29.498,26.897 H 7.427 Z"
   style="fill:#ffc618"
   id="path6" />
                <path
   d="m 20.958,10.658 11.036,14.921 c 0.567,0.767 0.597,1.733 0.078,2.524 -0.518,0.79 -1.504,1.281 -2.574,1.281 H 7.427 c -1.07,0 -2.056,-0.491 -2.574,-1.281 C 4.334,27.312 4.364,26.346 4.931,25.579 L 15.967,10.658 c 0.538,-0.727 1.481,-1.168 2.496,-1.168 1.014,0 1.957,0.441 2.495,1.168 z M 18.463,11.976 7.427,26.897 h 22.071 z"
   id="path7" />
            </g><g
   transform="matrix(0.67960396,0,0,0.80424667,11.45232,7.3687534)"
   id="g8">
                <path
   d="m 23.404,26.897 h -6.805 l -4.586,-6.2 1.931,-2.612 z"
   style="fill-opacity:0.15"
   id="path8" />
            </g><g
   transform="matrix(0.67960396,0,0,0.80424667,19.452328,2.3687507)"
   id="g9">
                <path
   d="m 23.404,26.897 h -6.805 l -4.586,-6.2 1.931,-2.612 z"
   style="fill-opacity:0.15"
   id="path9" />
            </g>
</svg>
