<?xml version="1.0" encoding="UTF-8" standalone="no"?>
<!DOCTYPE svg PUBLIC "-//W3C//DTD SVG 1.1//EN" "http://www.w3.org/Graphics/SVG/1.1/DTD/svg11.dtd">
<svg width="100%" height="100%" viewBox="0 0 48 48" version="1.1" xmlns="http://www.w3.org/2000/svg" xmlns:xlink="http://www.w3.org/1999/xlink" xml:space="preserve" xmlns:serif="http://www.serif.com/" style="fill-rule:evenodd;clip-rule:evenodd;stroke-linejoin:round;stroke-miterlimit:2;">
    <g transform="matrix(1,0,0,1,-48,-50)">
        <g id="menu_scconfig_system" transform="matrix(0.720689,0,0,1.05261,86.9914,150.602)">
            <rect x="-54.103" y="-95.573" width="66.603" height="45.601" style="fill:none;"/>
            <g transform="matrix(3.14331,0,0,1.78278,-77.2164,-108.374)">
                <path d="M18.831,26.897L10.885,26.897C10.397,26.897 10.002,26.42 10.002,25.831L10.002,13.042C10.002,12.454 10.397,11.976 10.885,11.976L26.776,11.976C27.264,11.976 27.659,12.454 27.659,13.042L27.659,25.831C27.659,26.42 27.264,26.897 26.776,26.897L21.479,26.897L21.479,27.43L23.245,27.43C23.488,27.43 23.686,27.669 23.686,27.963L23.686,28.496L16.623,28.496L16.623,27.963C16.623,27.669 16.821,27.43 17.065,27.43L18.831,27.43L18.831,26.897Z" style="fill-opacity:0.15;"/>
            </g>
            <g transform="matrix(1.25732,0,0,0.127342,-44.4775,-60.9976)">
                <path d="M27.659,19.437L27.659,26.897L10.002,26.897L10.002,19.437C10.002,15.319 10.496,11.976 11.105,11.976L26.556,11.976C27.165,11.976 27.659,15.319 27.659,19.437Z"/>
            </g>
            <g transform="matrix(1.04068,0,0,0.678584,-91.5675,-123.667)">
                <rect x="64" y="89" width="8" height="7"/>
            </g>
            <g transform="matrix(2.82898,0,0,1.5281,-74.0725,-104.374)">
                <path d="M28.64,12.598L28.64,26.275L28.61,26.65L28.524,27.002L28.388,27.319L28.209,27.594L27.992,27.821L27.742,27.993L27.464,28.103L27.169,28.14L10.492,28.14L10.197,28.103L9.919,27.993L9.669,27.821L9.452,27.594L9.273,27.319L9.137,27.002L9.051,26.65L9.021,26.275L9.021,12.598L9.051,12.223L9.137,11.871L9.273,11.554L9.452,11.279L9.669,11.052L9.919,10.88L10.197,10.771L10.492,10.733L27.169,10.733L27.464,10.771L27.742,10.88L27.992,11.052L28.209,11.279L28.388,11.554L28.524,11.871L28.61,12.223L28.64,12.598Z"/>
            </g>
            <g transform="matrix(2.82898,0,0,1.5281,-74.0725,-104.374)">
                <path d="M27.659,12.598C27.659,12.255 27.439,11.976 27.169,11.976L10.492,11.976C10.222,11.976 10.002,12.255 10.002,12.598L10.002,26.275C10.002,26.619 10.222,26.897 10.492,26.897L27.169,26.897C27.439,26.897 27.659,26.619 27.659,26.275L27.659,12.598Z" style="fill:white;"/>
            </g>
            <g transform="matrix(2.17799,0,0,0.108702,-78.7779,-82.9583)">
                <rect x="18.337" y="15.045" width="1.911" height="17.479" style="fill:rgb(30,163,0);"/>
            </g>
            <g transform="matrix(2.17799,0,0,0.108702,-78.7779,-79.1583)">
                <rect x="18.337" y="15.045" width="1.911" height="17.479" style="fill:rgb(30,163,0);"/>
            </g>
            <g transform="matrix(2.17799,0,0,0.108702,-78.7779,-75.3582)">
                <rect x="18.337" y="15.045" width="1.911" height="17.479" style="fill:rgb(30,163,0);"/>
            </g>
            <g transform="matrix(2.17799,0,0,0.108702,-78.7779,-71.5581)">
                <rect x="18.337" y="15.045" width="1.911" height="17.479" style="fill:rgb(30,163,0);"/>
            </g>
            <g transform="matrix(5.80798,0,0,0.108702,-139.791,-82.9583)">
                <rect x="18.337" y="15.045" width="1.911" height="17.479"/>
            </g>
            <g transform="matrix(5.80798,0,0,0.108702,-139.791,-79.1583)">
                <rect x="18.337" y="15.045" width="1.911" height="17.479"/>
            </g>
            <g transform="matrix(5.80798,0,0,0.108702,-139.791,-75.3582)">
                <rect x="18.337" y="15.045" width="1.911" height="17.479"/>
            </g>
            <g transform="matrix(5.80798,0,0,0.108702,-139.791,-71.5581)">
                <rect x="18.337" y="15.045" width="1.911" height="17.479"/>
            </g>
            <g transform="matrix(0.034689,0,0,0.0237504,-27.3924,-61.8476)">
                <path d="M508,-398L734,-624L678,-682L508,-512L422,-596L366,-540L508,-398Z" style="fill:rgb(30,163,0);"/>
            </g>
        </g>
    </g>
</svg>
