<?xml version="1.0" encoding="UTF-8" standalone="no"?>
<svg
   width="100%"
   height="100%"
   viewBox="0 0 48 48"
   version="1.1"
   xml:space="preserve"
   style="fill-rule:evenodd;clip-rule:evenodd;stroke-linejoin:round;stroke-miterlimit:2;"
   id="svg8"
   xmlns="http://www.w3.org/2000/svg"
   xmlns:svg="http://www.w3.org/2000/svg"><defs
   id="defs8">
        
    
            
            
            
            
            
            
            
            
        
                
            
                
            
                
            
                
            
                
            
                
            
                
            </defs>
    <path
   d="M 8.9812792,32.87474 C 8.3452007,31.032934 7.9984534,29.056033 7.9984534,26.9992 c 0,-2.056833 0.3467473,-4.033734 0.9828258,-5.87554 C 8.902473,20.764531 8.8292958,20.406527 8.7651251,20.055278 8.4994356,18.582734 8.4026166,17.218267 8.6266513,16.323258 9.3708069,13.347773 12.347429,10.371164 15.322926,9.6270111 c 0.895013,-0.2240338 2.259486,-0.1272152 3.732036,0.1384731 0.35125,0.064171 0.709255,0.1373474 1.068387,0.2161532 1.841813,-0.6360758 3.818722,-0.9828216 5.875564,-0.9828216 2.056841,0 4.033751,0.3467458 5.875564,0.9828216 0.359131,-0.078806 0.717136,-0.1519827 1.068387,-0.2161532 1.47255,-0.2656883 2.837023,-0.3625069 3.732036,-0.1384731 2.975496,0.7441529 5.952119,3.7207619 6.696274,6.6962469 0.224035,0.895009 0.127216,2.259476 -0.138473,3.73202 -0.06417,0.351249 -0.137348,0.709253 -0.216155,1.068382 0.636079,1.841806 0.982826,3.818707 0.982826,5.87554 0,2.056833 -0.346747,4.033734 -0.982826,5.87554 0.07881,0.359129 0.151984,0.717133 0.216155,1.068382 0.265689,1.472544 0.362508,2.837011 0.138473,3.73202 -0.744155,2.975485 -3.720778,5.952094 -6.696274,6.696247 -0.895013,0.224034 -2.259486,0.127215 -3.732036,-0.138473 -0.351251,-0.06417 -0.709256,-0.137348 -1.068387,-0.216153 -1.841813,0.636075 -3.818723,0.982821 -5.875564,0.982821 -2.056842,0 -4.033751,-0.346746 -5.875564,-0.982821 -0.359132,0.07881 -0.717137,0.151982 -1.068387,0.216153 -1.47255,0.265688 -2.837023,0.362507 -3.732036,0.138473 C 12.347429,43.627236 9.3708069,40.650627 8.6266513,37.675142 8.4026166,36.780133 8.4994356,35.415666 8.7651251,33.943122 8.8292958,33.591873 8.902473,33.233869 8.9812792,32.87474 Z m 0.690117,1.705584 c -0.1812542,1.128049 -0.2499282,2.1514 -0.074303,2.851646 0.6630978,2.653506 3.3154888,5.305886 5.9690058,5.968981 0.700249,0.175625 1.723604,0.106951 2.851658,-0.0743 C 14.572015,41.53663 11.461423,38.42605 9.6713962,34.580324 Z M 25.998913,19.499134 c -4.69122,0 -8.499811,3.808574 -8.499811,8.499775 0,4.6912 3.808591,8.499775 8.499811,8.499775 4.69122,0 8.49981,-3.808575 8.49981,-8.499775 0,-4.691201 -3.80859,-8.499775 -8.49981,-8.499775 z m 7.581155,23.827514 c 1.128054,0.181254 2.151409,0.249928 2.851658,0.0743 2.653517,-0.663095 5.305909,-3.315475 5.969006,-5.968981 0.175626,-0.700246 0.106952,-1.723597 -0.0743,-2.851646 -1.790026,3.845726 -4.900619,6.956306 -8.746361,8.746324 z m 8.746361,-23.908572 c 0.181255,-1.128049 0.249929,-2.1514 0.0743,-2.851646 -0.663097,-2.653506 -3.315489,-5.305886 -5.969006,-5.968981 -0.700249,-0.175625 -1.723604,-0.106951 -2.851658,0.0743 3.845742,1.790018 6.956335,4.900598 8.746361,8.746324 z M 18.417757,10.671752 c -1.128054,-0.181254 -2.151409,-0.249928 -2.851658,-0.0743 -2.653517,0.663095 -5.305908,3.315475 -5.9690057,5.968981 -0.1756253,0.700246 -0.1069513,1.723597 0.074303,2.851646 1.7900267,-3.845726 4.9006187,-6.956306 8.7463607,-8.746324 z"
   style="fill-opacity:0.15;stroke-width:1.1258"
   id="path1" /><path
   d="M 6.9813592,29.8748 C 6.3452807,28.032994 5.9985334,26.056093 5.9985334,23.99926 c 0,-2.056833 0.3467473,-4.033734 0.9828258,-5.87554 C 6.902553,17.764591 6.8293758,17.406587 6.7652051,17.055338 6.4995156,15.582794 6.4026966,14.218327 6.6267313,13.323318 7.3708869,10.347833 10.347509,7.3712235 13.323006,6.6270711 c 0.895013,-0.2240338 2.259486,-0.1272152 3.732036,0.1384731 0.35125,0.064171 0.709255,0.1373474 1.068387,0.2161532 1.841813,-0.6360758 3.818722,-0.9828216 5.875564,-0.9828216 2.056841,0 4.033751,0.3467458 5.875564,0.9828216 0.359131,-0.078806 0.717136,-0.1519827 1.068387,-0.2161532 1.47255,-0.2656883 2.837023,-0.3625069 3.732036,-0.1384731 2.975496,0.7441524 5.952119,3.7207619 6.696274,6.6962469 0.224035,0.895009 0.127216,2.259476 -0.138473,3.73202 -0.06417,0.351249 -0.137348,0.709253 -0.216155,1.068382 0.636079,1.841806 0.982826,3.818707 0.982826,5.87554 0,2.056833 -0.346747,4.033734 -0.982826,5.87554 0.07881,0.359129 0.151984,0.717133 0.216155,1.068382 0.265689,1.472544 0.362508,2.837011 0.138473,3.73202 -0.744155,2.975485 -3.720778,5.952094 -6.696274,6.696247 -0.895013,0.224034 -2.259486,0.127215 -3.732036,-0.138473 -0.351251,-0.06417 -0.709256,-0.137348 -1.068387,-0.216153 -1.841813,0.636075 -3.818723,0.982821 -5.875564,0.982821 -2.056842,0 -4.033751,-0.346746 -5.875564,-0.982821 -0.359132,0.0788 -0.717137,0.151982 -1.068387,0.216153 -1.47255,0.265688 -2.837023,0.362507 -3.732036,0.138473 C 10.347509,40.627296 7.3708869,37.650687 6.6267313,34.675202 6.4026966,33.780193 6.4995156,32.415726 6.7652051,30.943182 6.8293758,30.591933 6.902553,30.233929 6.9813592,29.8748 Z m 0.690117,1.705584 c -0.1812542,1.128049 -0.2499282,2.1514 -0.074303,2.851646 0.6630978,2.653506 3.3154888,5.305886 5.9690058,5.968981 0.700249,0.175625 1.723604,0.106951 2.851658,-0.0743 C 12.572095,38.53669 9.4615025,35.42611 7.6714762,31.580384 Z M 23.998993,15.499485 c -4.69122,0 -8.499811,3.808575 -8.499811,8.499775 0,4.6912 3.808591,8.499775 8.499811,8.499775 4.69122,0 8.49981,-3.808575 8.49981,-8.499775 0,-4.6912 -3.80859,-8.499775 -8.49981,-8.499775 z m 7.581155,24.827223 c 1.128054,0.181254 2.151409,0.249928 2.851658,0.0743 2.653517,-0.663095 5.305909,-3.315475 5.969006,-5.968981 0.175626,-0.700246 0.106952,-1.723597 -0.0743,-2.851646 -1.790026,3.845726 -4.900619,6.956306 -8.746361,8.746324 z m 8.746361,-23.908572 c 0.181255,-1.128049 0.249929,-2.1514 0.0743,-2.851646 C 39.737715,10.912984 37.085323,8.260604 34.431806,7.5975089 33.731557,7.4218845 32.708202,7.4905581 31.580148,7.6718116 35.42589,9.4618304 38.536483,12.57241 40.326509,16.418136 Z M 16.417837,7.6718116 C 15.289783,7.4905581 14.266428,7.4218844 13.566179,7.5975089 10.912662,8.260604 8.2602711,10.912984 7.5971733,13.56649 7.421548,14.266736 7.490222,15.290087 7.6714762,16.418136 9.4615025,12.57241 12.572095,9.4618304 16.417837,7.6718116 Z"
   id="path2"
   style="stroke-width:1.1258" /><path
   d="m 23.999097,8.0001659 c 8.83091,0 15.999673,7.1691471 15.999673,16.0013161 0,8.830335 -7.168763,15.999482 -15.999673,15.999482 -8.830911,0 -15.9996739,-7.169147 -15.9996739,-15.999482 0,-8.832169 7.1687629,-16.0013161 15.9996739,-16.0013161 z m 0,5.5006241 c -5.795099,0 -10.500534,4.704867 -10.500534,10.500692 0,5.793991 4.705435,10.498858 10.500534,10.498858 5.795098,0 10.500533,-4.704867 10.500533,-10.498858 0,-5.795825 -4.705435,-10.500692 -10.500533,-10.500692 z"
   style="fill:#ffffff;stroke-width:1.65549"
   id="path3" /><path
   d="m 33.291881,28.891537 4.866867,2.561457 c -1.506696,2.854824 -3.85194,5.199923 -6.706889,6.707094 l -2.56198,-4.866218 c 1.872906,-0.990113 3.412486,-2.528454 4.402002,-4.402333 z"
   style="fill:#e72727;stroke-width:1.65549"
   id="path4" /><path
   d="m 14.707299,28.891537 -4.8668667,2.561457 c 1.5066957,2.854824 3.8519397,5.199923 6.7068887,6.707094 l 2.56198,-4.866218 c -1.872906,-0.990113 -3.412486,-2.528454 -4.402002,-4.402333 z"
   style="fill:#e72727;stroke-width:1.65549"
   id="path5" /><path
   d="m 33.291881,19.110333 4.866867,-2.561457 C 36.652052,13.694052 34.306808,11.348953 31.451859,9.8417816 L 28.889879,14.708 c 1.872906,0.990113 3.412486,2.528454 4.402002,4.402333 z"
   style="fill:#e72727;stroke-width:1.65549"
   id="path6" /><path
   d="M 14.707299,19.110333 9.8404323,16.548876 C 11.347128,13.694052 13.692372,11.348953 16.547321,9.8417816 L 19.109301,14.708 c -1.872906,0.990113 -3.412486,2.528454 -4.402002,4.402333 z"
   style="fill:#e72727;stroke-width:1.65549"
   id="path7" />
</svg>
