<?xml version="1.0" encoding="UTF-8" standalone="no"?>
<svg
   width="100%"
   height="100%"
   viewBox="0 0 48 48"
   version="1.1"
   xml:space="preserve"
   style="fill-rule:evenodd;clip-rule:evenodd;stroke-linejoin:round;stroke-miterlimit:2;"
   id="svg5"
   xmlns="http://www.w3.org/2000/svg"
   xmlns:svg="http://www.w3.org/2000/svg"><defs
   id="defs5">
        
    
            
            
            
            
            
        </defs>
    <g
   transform="matrix(1.1779806,0,0,1.3940241,4.2509795,-3.4946028)"
   id="g1">
                <path
   d="M 11.011,28.332 H 7.427 C 6.81,28.332 6.241,28.049 5.942,27.593 5.643,27.136 5.66,26.579 5.987,26.137 L 17.023,11.216 c 0.31,-0.42 0.854,-0.674 1.44,-0.674 0.585,0 1.129,0.254 1.439,0.674 l 11.036,14.921 c 0.327,0.442 0.345,0.999 0.045,1.456 -0.299,0.456 -0.867,0.739 -1.485,0.739 H 16.044 l -3.665,4.861 c -0.63,0.835 -1.943,1.081 -2.93,0.549 C 8.461,33.211 8.17,32.101 8.799,31.266 Z m -0.417,2.711 c -0.572,0.107 -0.933,0.586 -0.806,1.069 0.126,0.484 0.694,0.789 1.265,0.682 0.572,-0.107 0.933,-0.587 0.807,-1.07 -0.127,-0.483 -0.694,-0.788 -1.266,-0.681 z"
   style="fill-opacity:0.15"
   id="path1" />
            </g><g
   transform="matrix(1.1779806,0,0,1.3940241,2.2509955,-6.4947518)"
   id="g2">
                <path
   d="m 19.902,11.216 11.036,14.921 c 0.327,0.442 0.345,0.999 0.045,1.456 -0.299,0.456 -0.867,0.739 -1.485,0.739 H 7.427 C 6.81,28.332 6.241,28.049 5.942,27.593 5.643,27.136 5.66,26.579 5.987,26.137 L 17.023,11.216 c 0.31,-0.42 0.854,-0.674 1.44,-0.674 0.585,0 1.129,0.254 1.439,0.674 z"
   style="fill:#ffc618"
   id="path2" />
            </g><g
   transform="matrix(1.1779806,0,0,1.3940241,2.2509955,-6.4947518)"
   id="g3">
                <path
   d="M 9.502,28.332 H 7.427 C 6.81,28.332 6.241,28.049 5.942,27.593 5.643,27.136 5.66,26.579 5.987,26.137 L 17.023,11.216 c 0.31,-0.42 0.854,-0.674 1.44,-0.674 0.585,0 1.129,0.254 1.439,0.674 l 11.036,14.921 c 0.327,0.442 0.345,0.999 0.045,1.456 -0.299,0.456 -0.867,0.739 -1.485,0.739 H 17.554 l 1.081,-1.435 H 29.498 L 18.463,11.976 7.427,26.897 h 3.156 z"
   id="path3" />
            </g><g
   transform="matrix(0.97629577,-0.21643872,0.21643948,0.97629367,-582.24796,-248.52242)"
   id="g4">
                <path
   d="m 538.075,396.963 c 10e-4,0.128 -0.003,0.256 -0.012,0.386 -0.193,2.753 -2.584,4.831 -5.337,4.639 -0.325,-0.023 -0.641,-0.076 -0.944,-0.157 l -9.301,9.301 c -0.976,0.975 -2.56,0.975 -3.536,0 -0.976,-0.976 -0.976,-2.56 0,-3.536 l 9.3,-9.3 c -0.14,-0.522 -0.197,-1.076 -0.158,-1.645 0.193,-2.753 2.584,-4.831 5.337,-4.639 1.171,0.082 2.219,0.562 3.023,1.297 l -4.185,1.864 c -0.504,0.224 -0.732,0.816 -0.507,1.32 l 0.813,1.827 c 0.225,0.504 0.816,0.732 1.321,0.507 z m -16.998,10.787 c -0.69,0 -1.25,0.56 -1.25,1.25 0,0.69 0.56,1.25 1.25,1.25 0.69,0 1.25,-0.56 1.25,-1.25 0,-0.69 -0.56,-1.25 -1.25,-1.25 z"
   id="path4" />
            </g>
</svg>
