<?xml version="1.0" encoding="UTF-8" standalone="no"?>
<!DOCTYPE svg PUBLIC "-//W3C//DTD SVG 1.1//EN" "http://www.w3.org/Graphics/SVG/1.1/DTD/svg11.dtd">
<svg width="100%" height="100%" viewBox="0 0 48 48" version="1.1" xmlns="http://www.w3.org/2000/svg" xmlns:xlink="http://www.w3.org/1999/xlink" xml:space="preserve" xmlns:serif="http://www.serif.com/" style="fill-rule:evenodd;clip-rule:evenodd;stroke-linejoin:round;stroke-miterlimit:2;">
    <g transform="matrix(1,0,0,1,-144,-50)">
        <g id="menu_scconfig_modules" transform="matrix(0.720689,0,0,1.05261,182.991,150.602)">
            <rect x="-54.103" y="-95.573" width="66.603" height="45.601" style="fill:none;"/>
            <g transform="matrix(1.41449,0,0,1.14607,-47.4371,-92.1986)">
                <path d="M29.621,11.147L18.831,16.121L8.04,11.147L18.831,6.174L29.621,11.147Z" style="fill:white;"/>
            </g>
            <g transform="matrix(1.41449,0,0,1.14607,-30.7863,-82.6985)">
                <path d="M27.148,12.704L16.357,17.678C16.278,17.714 16.193,17.741 16.105,17.758L7.821,19.348C7.522,19.406 7.208,19.341 6.973,19.175C6.738,19.008 6.609,18.758 6.624,18.499L7.06,11.106C7.076,10.835 7.248,10.588 7.52,10.444L15.368,6.3C15.668,6.141 16.046,6.132 16.357,6.275L27.148,11.249C27.463,11.394 27.659,11.673 27.659,11.976C27.659,12.28 27.463,12.559 27.148,12.704Z" style="fill-opacity:0.1;"/>
            </g>
            <g transform="matrix(1.41449,0,0,1.14607,-32.1739,-89.3486)">
                <path d="M18.831,18.608L8.04,23.581L8.04,13.634L18.831,8.661L18.831,18.608Z" style="fill:rgb(194,194,194);"/>
            </g>
            <g transform="matrix(-1.41449,0,0,1.14607,-9.4291,-89.3486)">
                <path d="M18.831,18.608L16.948,19.475L18.005,20.877L11.903,23.581L10.906,22.26L8.04,23.581L8.04,13.634L18.831,8.661L18.831,18.608Z" style="fill:rgb(230,230,230);"/>
            </g>
            <g transform="matrix(1.35467,-0.205621,0.300323,0.927498,-860.619,-330.725)">
                <path d="M528.245,398.296L530.046,400.421L526.732,406.846L522.481,411.132C521.505,412.107 519.921,412.107 518.945,411.132C517.969,410.156 517.969,408.572 518.945,407.596L528.245,398.296ZM521.077,407.75C520.387,407.75 519.827,408.31 519.827,409C519.827,409.69 520.387,410.25 521.077,410.25C521.767,410.25 522.327,409.69 522.327,409C522.327,408.31 521.767,407.75 521.077,407.75Z" style="fill-opacity:0.15;"/>
            </g>
            <g transform="matrix(1.35467,-0.205621,0.300323,0.927498,-863.395,-331.675)">
                <path d="M538.075,396.963C538.076,397.091 538.072,397.219 538.063,397.349C537.87,400.102 535.479,402.18 532.726,401.988C532.401,401.965 532.085,401.912 531.782,401.831L522.481,411.132C521.505,412.107 519.921,412.107 518.945,411.132C517.969,410.156 517.969,408.572 518.945,407.596L528.245,398.296C528.105,397.774 528.048,397.22 528.087,396.651C528.28,393.898 530.671,391.82 533.424,392.012C534.595,392.094 535.643,392.574 536.447,393.309L532.262,395.173C531.758,395.397 531.53,395.989 531.755,396.493L532.568,398.32C532.793,398.824 533.384,399.052 533.889,398.827L538.075,396.963ZM521.077,407.75C520.387,407.75 519.827,408.31 519.827,409C519.827,409.69 520.387,410.25 521.077,410.25C521.767,410.25 522.327,409.69 522.327,409C522.327,408.31 521.767,407.75 521.077,407.75Z"/>
            </g>
            <g transform="matrix(1.41449,0,0,1.14607,-47.4371,-94.0987)">
                <path d="M8.865,25.021L7.1,24.208C6.47,23.917 6.078,23.359 6.078,22.752L6.078,12.805C6.078,12.199 6.47,11.64 7.1,11.35L17.891,6.376C18.477,6.106 19.184,6.106 19.77,6.376L30.561,11.35C31.191,11.64 31.583,12.199 31.583,12.805L31.583,22.752C31.583,23.359 31.191,23.917 30.561,24.208L19.77,29.181C19.184,29.451 18.477,29.451 17.891,29.181L14.907,27.806L15.964,26.405L18.831,27.726L29.621,22.752L29.621,12.805L18.831,7.832L8.04,12.805L8.04,22.752L9.922,23.62L8.865,25.021Z"/>
            </g>
        </g>
    </g>
</svg>
