<?xml version="1.0" encoding="UTF-8" standalone="no"?>
<svg
   width="100%"
   height="100%"
   viewBox="0 0 50 50"
   version="1.1"
   xml:space="preserve"
   style="fill-rule:evenodd;clip-rule:evenodd;stroke-linejoin:round;stroke-miterlimit:2;"
   id="svg7"
   xmlns="http://www.w3.org/2000/svg"
   xmlns:svg="http://www.w3.org/2000/svg"><defs
   id="defs7">
        
    
            
            
            
            
            
            
        
                
            
                
            
                
            
                
            
                
                
            </defs>
    <path
   d="m 30.00038,40.999856 v 1.999861 c 0,0.551969 -0.44892,1.000044 -1.001439,1.000044 h -3.999477 c -0.552518,0 -0.9983,-0.448075 -0.9983,-1.000044 v -1.999861 c 0,-0.551969 0.445782,-1.000044 0.9983,-1.000044 h 3.999477 c 0.552519,0 1.001439,0.448075 1.001439,1.000044 z m 5.000917,-6.000038 v 2.999905 c 0,0.551969 -0.448921,1.000044 -1.001439,1.000044 h -5.000917 c -0.549378,0 -0.998299,-0.448075 -0.998299,-1.000044 v -2.999905 c 0,-0.55197 0.448921,-1.000045 0.998299,-1.000045 h 5.000917 c 0.552518,0 1.001439,0.448075 1.001439,1.000045 z M 21.335892,29.013738 31.337725,11.366727 c 0.354742,-0.626802 1.017136,-1.014004 1.739177,-1.014004 0.718901,0 1.384434,0.387202 1.739176,1.014004 l 10.001834,17.647011 c 0.348463,0.61925 0.345324,1.378094 -0.01256,1.992995 -0.357881,0.614902 -1.017136,0.992951 -1.729759,0.992951 H 23.078207 c -0.712622,0 -1.371877,-0.378049 -1.729758,-0.992951 -0.357881,-0.614901 -0.36416,-1.373745 -0.01256,-1.992995 z"
   style="fill-opacity:0.2;stroke-width:0.84759"
   id="path1" /><path
   d="m 28.998542,38.99973 v 2.000089 c 0,0.55197 -0.445781,1.000045 -0.9983,1.000045 h -3.999477 c -0.552518,0 -1.001439,-0.448075 -1.001439,-1.000045 V 38.99973 c 0,-0.551741 0.448921,-0.999816 1.001439,-0.999816 h 3.999477 c 0.552519,0 0.9983,0.448075 0.9983,0.999816 z"
   style="fill:#580e0e;stroke-width:0.84759"
   id="path2" /><path
   d="m 32.998403,31.999701 v 3.000131 c 0,0.551797 -0.446828,1.000044 -0.99987,1.000044 h -4.999351 c -0.549379,0 -0.99987,-0.448247 -0.99987,-1.000044 v -3.000131 c 0,-0.551797 0.450491,-0.999758 0.99987,-0.999758 h 4.999351 c 0.553042,0 0.99987,0.447961 0.99987,0.999758 z"
   style="fill:#580e0e;stroke-width:1.02356"
   id="path3" /><path
   d="M 19.336673,26.013733 29.336675,8.3666822 c 0.355089,-0.6266833 1.019732,-1.0139752 1.74003,-1.0139752 0.720298,0 1.384941,0.3872919 1.74003,1.0139752 L 42.816737,26.013733 c 0.350863,0.619138 0.346279,1.378113 -0.01202,1.992991 -0.358304,0.614848 -1.01634,0.993012 -1.728006,0.993012 H 21.076703 c -0.711667,0 -1.369703,-0.378164 -1.728006,-0.993012 -0.358304,-0.614878 -0.362887,-1.373853 -0.01202,-1.992991 z"
   style="fill:#e72727;stroke-width:0.0300921"
   id="path4" /><path
   d="M 19.336673,26.013733 29.336675,8.3666822 c 0.355089,-0.6266833 1.019732,-1.0139752 1.74003,-1.0139752 0.720298,0 1.384941,0.3872919 1.74003,1.0139752 L 42.816737,26.013733 c 0.350863,0.619138 0.346279,1.378113 -0.01202,1.992991 -0.358304,0.614848 -1.01634,0.993012 -1.728006,0.993012 H 21.076703 c -0.711667,0 -1.369703,-0.378164 -1.728006,-0.993012 -0.358304,-0.614878 -0.362887,-1.373853 -0.01202,-1.992991 z m 0.87,0.492992 c -0.175417,0.309584 -0.173125,0.689056 0.006,0.996511 0.179167,0.307423 0.508185,0.496521 0.864018,0.496521 h 20.000004 c 0.355833,0 0.684851,-0.189098 0.864018,-0.496521 0.179137,-0.307455 0.181428,-0.686927 0.006,-0.996511 L 31.946735,8.8596739 c -0.17756,-0.3133264 -0.509881,-0.5069876 -0.87003,-0.5069876 -0.360149,0 -0.692471,0.1936612 -0.87003,0.5069876 z"
   style="fill-opacity:0.5;stroke-width:0.0300921"
   id="path5" /><path
   d="m 29.743338,19.999843 v -7.999985 h 2.666667 v 7.999985 z m -0.166667,5.999989 v -2.999994 h 3.000001 v 2.999994 z"
   style="fill:#ffffff;stroke-width:0.0398409"
   id="path6" />
</svg>
