<?xml version="1.0" encoding="UTF-8" standalone="no"?>
<svg
   width="100%"
   height="100%"
   viewBox="0 0 24 24"
   version="1.1"
   xml:space="preserve"
   style="fill-rule:evenodd;clip-rule:evenodd;stroke-linejoin:round;stroke-miterlimit:2;"
   id="svg3"
   xmlns="http://www.w3.org/2000/svg"
   xmlns:svg="http://www.w3.org/2000/svg"><defs
   id="defs3">
        
    
            
            
            
        
                
            
                
            </defs>
    <path
   d="m 9.9666572,21.000074 h -9.000009 v -2.519996 c 0,-0.719999 0.1875202,-1.387478 0.5625206,-2.002477 0.3749603,-0.614999 0.9074809,-1.057519 1.5974816,-1.327518 1.080001,-0.449999 2.1974822,-0.787479 3.3525233,-1.012479 1.1550012,-0.224999 2.3174823,-0.337519 3.4874835,-0.337519 z m 0,-8.999986 c -1.1200011,0 -2.0666821,-0.38668 -2.8400028,-1.159999 C 6.3533336,10.06677 5.9666532,9.1200919 5.9666532,8.0000936 c 0,-1.1199983 0.3866804,-2.0666769 1.1600012,-2.8399957 C 7.8999751,4.386779 8.8466561,4.0000996 9.9666572,4.0000996 Z"
   id="path1"
   style="stroke-width:0.04;fill:#000000;fill-opacity:1" /><path
   d="M 11.966581,22.999949 V 1.0003841 h 2.000002 V 2.999913 h 6.000007 c 0.550001,0 1.020001,0.1955855 1.413335,0.5877058 0.391667,0.3911709 0.586667,0.8620951 0.586667,1.4127726 v 9.9995436 c 0,0.549728 -0.195,1.020652 -0.586667,1.412772 -0.393334,0.391171 -0.863334,0.587706 -1.413335,0.587706 h -6.000007 v 0.999765 h 8.000009 c 0.551668,0 1.000002,0.447188 1.000002,0.999764 v 0.999764 c 0,0.552577 -0.448334,1.000714 -1.000002,1.000714 h -8.000009 v 1.999529 z m 2.000002,-8.000014 H 19.96659 V 5.0003914 h -6.000007 z"
   id="path2"
   style="stroke-width:0.397795;fill:#000000;fill-opacity:1" />
</svg>
