<?xml version="1.0" encoding="UTF-8" standalone="no"?>
<svg
   width="100%"
   height="100%"
   viewBox="0 0 70 70"
   version="1.1"
   xml:space="preserve"
   style="fill-rule:evenodd;clip-rule:evenodd;stroke-linejoin:round;stroke-miterlimit:1;"
   id="svg25"
   xmlns="http://www.w3.org/2000/svg"
   xmlns:svg="http://www.w3.org/2000/svg"><defs
   id="defs25">
        
    
            
            
            
            
            
            
            
            
            
            
            
        </defs>
    <g
   transform="matrix(2.4918685,0,0,2.0106216,-11.923533,-12.078677)"
   id="g1">
                <path
   d="M 28.863,12.474 V 26.4 l -0.033,0.399 -0.094,0.376 -0.343,0.631 -0.51,0.426 -0.303,0.117 -0.322,0.04 H 10.403 L 10.081,28.349 9.778,28.232 9.268,27.806 8.925,27.175 8.831,26.799 8.798,26.4 V 12.474 l 0.033,-0.4 0.094,-0.375 0.343,-0.632 0.51,-0.426 0.303,-0.116 0.322,-0.041 h 16.855 l 0.322,0.041 0.303,0.116 0.51,0.426 0.343,0.632 0.094,0.375 z m -1.204,0 c 0,-0.275 -0.18,-0.498 -0.401,-0.498 H 10.403 c -0.221,0 -0.401,0.223 -0.401,0.498 V 26.4 c 0,0.274 0.18,0.497 0.401,0.497 h 16.855 c 0.221,0 0.401,-0.223 0.401,-0.497 z"
   style="fill:#999999;fill-opacity:0.6"
   id="path1" />
            </g><g
   transform="matrix(0.22653359,0,0,0.20106216,37.7338,42.592332)"
   id="g2">
                <rect
   x="10.002"
   y="11.976"
   width="17.657"
   height="14.921"
   style="fill-opacity:0.1"
   id="rect2" />
            </g><g
   transform="matrix(0.5663345,0,0,0.20106216,24.335232,42.592332)"
   id="g3">
                <rect
   x="10.002"
   y="11.976"
   width="17.657"
   height="14.921"
   style="fill:#4d4d4d;fill-opacity:0.6"
   id="rect3" />
            </g><g
   transform="matrix(2.3786022,0,0,0.6702072,-9.7907384,40.973765)"
   id="g4">
                <path
   d="m 28.08,13.468 v 11.937 c 0,1.647 -0.377,2.984 -0.841,2.984 H 10.422 c -0.464,0 -0.841,-1.337 -0.841,-2.984 V 13.468 c 0,-1.647 0.377,-2.984 0.841,-2.984 h 16.817 c 0.464,0 0.841,1.337 0.841,2.984 z"
   style="fill:#999999;fill-opacity:0.6"
   id="path3" />
            </g><g
   transform="matrix(2.3786022,0,0,0.6702072,-9.7907384,42.973794)"
   id="g5">
                <path
   d="m 28.08,22.421 v 2.984 c 0,1.647 -0.377,2.984 -0.841,2.984 H 10.422 c -0.464,0 -0.841,-1.337 -0.841,-2.984 v -2.984 c 0,1.647 0.377,2.984 0.841,2.984 h 16.817 c 0.464,0 0.841,-1.337 0.841,-2.984 z"
   style="fill:#4d4d4d;fill-opacity:0.6"
   id="path4" />
            </g><g
   transform="matrix(2.4918685,0,0,0.87126935,-8.9235583,41.565837)"
   id="g6">
                <path
   d="m 25.653,7.385 h 4.815 c 0.443,0 0.803,1.029 0.803,2.296 v 2.295 c 0,1.267 -0.36,2.296 -0.803,2.296 h -2.809 v 10.33 c 0,1.267 -0.359,2.295 -0.802,2.295 H 10.804 c -0.443,0 -0.802,-1.028 -0.802,-2.295 v -1.148 h 15.651 c 0.443,0 0.802,-1.029 0.802,-2.296 V 9.681 c 0,-1.267 -0.359,-2.296 -0.802,-2.296 z"
   style="fill-opacity:0.1"
   id="path5" />
            </g><g
   transform="matrix(0.79582981,0,0,0.17777837,-771.99654,4.03608e-4)"
   id="g21">
                <g
   opacity="0.5"
   id="g20">
                    <g
   transform="matrix(0.213488,0,0,0.753982,988.022,277.845)"
   id="g7">
                        <path
   d="m 27.659,19.437 c 0,4.117 -2.637,7.46 -5.886,7.46 h -5.885 c -3.249,0 -5.886,-3.343 -5.886,-7.46 0,-4.118 2.637,-7.461 5.886,-7.461 h 5.885 c 3.249,0 5.886,3.343 5.886,7.461 z"
   style="fill:#ffffff"
   id="path6" />
                    </g>
                    <g
   transform="matrix(0.284651,0,0,0.753982,992.336,277.845)"
   id="g8">
                        <path
   d="m 27.659,19.437 c 0,4.117 -1.978,7.46 -4.414,7.46 h -8.829 c -2.436,0 -4.414,-3.343 -4.414,-7.46 0,-4.118 1.978,-7.461 4.414,-7.461 h 8.829 c 2.436,0 4.414,3.343 4.414,7.461 z"
   style="fill:#ffffff"
   id="path7" />
                    </g>
                    <g
   transform="matrix(0.284651,0,0,0.753982,998.619,277.845)"
   id="g9">
                        <path
   d="m 27.659,19.437 c 0,4.117 -1.978,7.46 -4.414,7.46 h -8.829 c -2.436,0 -4.414,-3.343 -4.414,-7.46 0,-4.118 1.978,-7.461 4.414,-7.461 h 8.829 c 2.436,0 4.414,3.343 4.414,7.461 z"
   style="fill:#ffffff"
   id="path8" />
                    </g>
                    <g
   transform="matrix(0.284651,0,0,0.753982,1004.9,277.845)"
   id="g10">
                        <path
   d="m 27.659,19.437 c 0,4.117 -1.978,7.46 -4.414,7.46 h -8.829 c -2.436,0 -4.414,-3.343 -4.414,-7.46 0,-4.118 1.978,-7.461 4.414,-7.461 h 8.829 c 2.436,0 4.414,3.343 4.414,7.461 z"
   style="fill:#ffffff"
   id="path9" />
                    </g>
                    <g
   transform="matrix(0.284651,0,0,0.753982,1011.18,277.845)"
   id="g11">
                        <path
   d="m 27.659,19.437 c 0,4.117 -1.978,7.46 -4.414,7.46 h -8.829 c -2.436,0 -4.414,-3.343 -4.414,-7.46 0,-4.118 1.978,-7.461 4.414,-7.461 h 8.829 c 2.436,0 4.414,3.343 4.414,7.461 z"
   style="fill:#ffffff"
   id="path10" />
                    </g>
                    <g
   transform="matrix(0.284651,0,0,0.753982,1017.47,277.845)"
   id="g12">
                        <path
   d="m 27.659,19.437 c 0,4.117 -1.978,7.46 -4.414,7.46 h -8.829 c -2.436,0 -4.414,-3.343 -4.414,-7.46 0,-4.118 1.978,-7.461 4.414,-7.461 h 8.829 c 2.436,0 4.414,3.343 4.414,7.461 z"
   style="fill:#ffffff"
   id="path11" />
                    </g>
                    <g
   transform="matrix(0.284651,0,0,0.753982,1023.75,277.845)"
   id="g13">
                        <path
   d="m 27.659,19.437 c 0,4.117 -1.978,7.46 -4.414,7.46 h -8.829 c -2.436,0 -4.414,-3.343 -4.414,-7.46 0,-4.118 1.978,-7.461 4.414,-7.461 h 8.829 c 2.436,0 4.414,3.343 4.414,7.461 z"
   style="fill:#ffffff"
   id="path12" />
                    </g>
                    <g
   transform="matrix(0.284651,0,0,0.753982,1030.03,277.845)"
   id="g14">
                        <path
   d="m 27.659,19.437 c 0,4.117 -1.978,7.46 -4.414,7.46 h -8.829 c -2.436,0 -4.414,-3.343 -4.414,-7.46 0,-4.118 1.978,-7.461 4.414,-7.461 h 8.829 c 2.436,0 4.414,3.343 4.414,7.461 z"
   style="fill:#ffffff"
   id="path13" />
                    </g>
                    <g
   transform="matrix(0.355814,0,0,0.753982,986.598,300.345)"
   id="g15">
                        <path
   d="m 27.659,19.437 c 0,4.117 -1.582,7.46 -3.531,7.46 H 13.533 c -1.949,0 -3.531,-3.343 -3.531,-7.46 0,-4.118 1.582,-7.461 3.531,-7.461 h 10.595 c 1.949,0 3.531,3.343 3.531,7.461 z"
   style="fill:#ffffff"
   id="path14" />
                    </g>
                    <g
   transform="matrix(0.213488,0,0,0.753982,995.561,300.345)"
   id="g16">
                        <path
   d="m 27.659,19.437 c 0,4.117 -2.637,7.46 -5.886,7.46 h -5.885 c -3.249,0 -5.886,-3.343 -5.886,-7.46 0,-4.118 2.637,-7.461 5.886,-7.461 h 5.885 c 3.249,0 5.886,3.343 5.886,7.461 z"
   style="fill:#ffffff"
   id="path15" />
                    </g>
                    <g
   transform="matrix(0.284651,0,0,0.753982,1025.01,300.345)"
   id="g17">
                        <path
   d="m 27.659,19.437 c 0,4.117 -1.978,7.46 -4.414,7.46 h -8.829 c -2.436,0 -4.414,-3.343 -4.414,-7.46 0,-4.118 1.978,-7.461 4.414,-7.461 h 8.829 c 2.436,0 4.414,3.343 4.414,7.461 z"
   style="fill:#ffffff"
   id="path16" />
                    </g>
                    <g
   transform="matrix(0.213488,0,0,0.753982,1032,300.345)"
   id="g18">
                        <path
   d="m 27.659,19.437 c 0,4.117 -2.637,7.46 -5.886,7.46 h -5.885 c -3.249,0 -5.886,-3.343 -5.886,-7.46 0,-4.118 2.637,-7.461 5.886,-7.461 h 5.885 c 3.249,0 5.886,3.343 5.886,7.461 z"
   style="fill:#ffffff"
   id="path17" />
                    </g>
                    <g
   transform="matrix(1.35209,0,0,0.753982,989.199,300.345)"
   id="g19">
                        <path
   d="m 27.659,19.437 c 0,4.117 -0.416,7.46 -0.929,7.46 H 10.931 c -0.513,0 -0.929,-3.343 -0.929,-7.46 0,-4.118 0.416,-7.461 0.929,-7.461 H 26.73 c 0.513,0 0.929,3.343 0.929,7.461 z"
   style="fill:#ffffff"
   id="path18" />
                    </g>
                </g>
            </g><g
   transform="matrix(2.4918685,0,0,2.0106216,-11.923533,-12.078677)"
   id="g22">
                <path
   d="M 27.659,12.474 V 26.4 c 0,0.274 -0.18,0.497 -0.401,0.497 H 10.403 c -0.221,0 -0.401,-0.223 -0.401,-0.497 V 12.474 c 0,-0.275 0.18,-0.498 0.401,-0.498 h 16.855 c 0.221,0 0.401,0.223 0.401,0.498 z"
   style="fill:#ffffff;fill-opacity:0.5"
   id="path21" />
            </g><g
   transform="matrix(0.88761364,0,0,0.79992284,11.412031,26.611283)"
   id="g23">
                <path
   d="m 2.915,0.999 c 0,0.005 2.916,-0.011 5.831,-0.011 0.232,-0.011 0.493,-0.059 0.723,-0.025 0.289,0.028 0.494,0.299 0.784,0.299 0.63,-0.031 1.081,-0.479 1.508,-0.874 0.762,-0.669 1.186,0.47 1.508,1.036 0.595,1.045 0.881,0.676 1.508,-0.088 0.489,-0.597 0.785,-0.615 1.448,-0.841 0.878,-0.257 1.025,0.231 1.447,0.95 0.54,0.919 1.204,-0.283 1.448,-0.734 0.402,-0.741 0.838,1.284 1.447,1.071 0.408,-0.155 0.598,-1.059 0.724,-1.408 0.213,-0.614 0.354,-1.397 0.724,-1.937 0.33,-0.487 0.695,1.646 0.723,1.813 0.163,0.94 0.289,1.885 0.423,2.829 0.042,0.3 0.274,2.459 0.543,2.407 0.385,-0.056 0.455,-2.562 0.482,-2.864 0.059,-0.662 0.653,-7.156 0.724,-7.136 0.286,0.098 0.282,1.843 0.301,2.079 0.06,0.736 0.11,1.474 0.161,2.212 0.052,0.753 0.105,1.507 0.17,2.259 0.013,0.141 0.269,1.852 0.333,1.792 0.271,-0.258 0.528,-4.053 0.784,-3.977 0.439,0.128 0.569,2.708 0.723,3.181 0.334,1.003 0.678,-0.182 0.785,-0.62 0.271,-1.097 0.453,-2.215 0.724,-3.312 0.142,-0.597 0.487,-1.777 0.783,-0.544 0.23,0.94 0.329,1.919 0.453,2.878 0.124,0.962 0.129,2.144 0.513,3.042 0.178,0.42 0.336,-0.314 0.361,-0.429 0.112,-0.511 0.176,-1.033 0.242,-1.552 0.138,-1.106 0.241,-2.217 0.391,-3.322 0.057,-0.415 0.302,-2.236 0.634,-1.013 0.304,1.14 0.37,2.349 0.784,3.459 0.161,0.428 0.384,1.158 0.724,1.474 0.323,0.306 0.746,-2.365 0.784,-2.576 0.021,-0.121 0.314,-2.013 0.724,-1.56 0.629,0.675 0.586,2.24 0.784,3.091 0.252,1.13 0.481,0.499 0.724,-0.222 0.052,-0.158 0.146,-0.585 0.361,-0.617 0.156,-0.023 0.26,0.204 0.423,0.131 0.455,-0.222 0.571,-1.375 0.723,-1.798 0.42,-1.162 0.711,1.293 0.754,1.573 0.049,0.312 0.336,2.514 0.573,2.431 0.264,-0.101 0.323,-0.999 0.362,-1.213 0.145,-0.783 0.254,-1.573 0.422,-2.351 0.077,-0.359 0.376,-1.668 0.724,-0.734 0.425,1.113 0.493,2.349 0.784,3.499 0.345,1.344 0.648,-0.678 0.724,-1.088 0.033,-0.176 0.432,-2.6 0.784,-2.359 0.503,0.368 0.539,1.661 0.724,2.215 0.269,0.836 0.498,0.367 0.784,-0.148 0.213,-0.394 0.354,-0.409 0.724,-0.251 0.379,0.171 0.62,-0.594 0.783,-0.809 0.559,-0.726 0.919,2.482 1.508,1.52 0.38,-0.579 0.384,-1.331 0.724,-1.927 0.352,-0.628 0.729,1.099 0.785,1.282 0.075,0.26 0.197,0.918 0.775,0.918"
   style="fill:none;fill-rule:nonzero;stroke:#000000;stroke-width:0.89px;stroke-opacity:0.5"
   id="path22" />
            </g><g
   transform="matrix(0.16990046,0,0,0.20106216,13.300362,12.592347)"
   id="g24">
                <path
   d="m 27.659,16.95 v 4.973 c 0,2.745 -2.637,4.974 -5.886,4.974 h -5.885 c -3.249,0 -5.886,-2.229 -5.886,-4.974 V 16.95 c 0,-2.745 2.637,-4.974 5.886,-4.974 h 5.885 c 3.249,0 5.886,2.229 5.886,4.974 z"
   style="fill:#d0d0d0;fill-opacity:0.5"
   id="path23" />
            </g>
</svg>
