<?xml version="1.0" encoding="UTF-8" standalone="no"?>
<svg
   width="100%"
   height="100%"
   viewBox="0 0 24 24"
   version="1.1"
   xml:space="preserve"
   style="fill-rule:evenodd;clip-rule:evenodd;stroke-linejoin:round;stroke-miterlimit:2;"
   id="svg6"
   xmlns="http://www.w3.org/2000/svg"
   xmlns:svg="http://www.w3.org/2000/svg"><defs
   id="defs6">
        
    
            
            
            
        
                
                
            
                    
                
                    
                    
                </defs>
    <path
   d="m 22.000331,11.999063 c 0,2.759647 -2.240913,4.999981 -5.000009,4.999981 H 7.0003046 c -2.7600048,0 -5.0000086,-2.240334 -5.0000086,-4.999981 0,-2.7596471 2.2400038,-4.9999812 5.0000086,-4.9999812 H 17.000322 c 2.759096,0 5.000009,2.2403341 5.000009,4.9999812 z"
   style="fill:#1ea300;stroke-width:0.643526"
   id="path2" /><path
   d="m 24.000334,11.999063 c 0,3.863415 -3.137278,6.999792 -7.000012,6.999792 H 7.0003046 c -3.863643,0 -7.00001209504,-3.136377 -7.00001209504,-6.999792 0,-3.8634148 3.13636909504,-7.0002471 7.00001209504,-7.0002471 H 17.000322 c 3.862734,0 7.000012,3.1368323 7.000012,7.0002471 z m -2.000003,0 c 0,-2.7596471 -2.240913,-4.9999812 -5.000009,-4.9999812 H 7.0003046 c -2.7600048,0 -5.0000086,2.2403341 -5.0000086,4.9999812 0,2.759647 2.2400038,4.999981 5.0000086,4.999981 H 17.000322 c 2.759096,0 5.000009,-2.240334 5.000009,-4.999981 z"
   style="fill:#135305;stroke-width:0.643526"
   id="path3" /><ellipse
   cx="16.999041"
   cy="12.000741"
   style="fill:#dbffd3;stroke-width:1.85444"
   id="circle3"
   rx="3.4993227"
   ry="3.4993246" />
                
            
</svg>
