<?xml version="1.0" encoding="UTF-8" standalone="no"?>
<svg
   width="100%"
   height="100%"
   viewBox="0 0 24 24"
   version="1.1"
   xml:space="preserve"
   style="fill-rule:evenodd;clip-rule:evenodd;stroke-linejoin:round;stroke-miterlimit:2;"
   id="svg3"
   xmlns="http://www.w3.org/2000/svg"
   xmlns:svg="http://www.w3.org/2000/svg"><defs
   id="defs3">
        
    
            
            
            
        
                
            
                
            </defs>
    <path
   d="M 12.000057,11.499215 V 4.4992276 c 0,-0.4169993 0.146,-0.7709987 0.438,-1.0629982 0.291,-0.2909995 0.644999,-0.4369992 1.061999,-0.4369992 h 6.999995 c 0.417,0 0.770999,0.1459997 1.062999,0.4369992 0.291,0.2919995 0.437,0.6459989 0.437,1.0629982 v 6.9999874 c 0,0.417 -0.146,0.770999 -0.437,1.061999 -0.292,0.291999 -0.645999,0.437999 -1.062999,0.437999 h -6.999995 c -0.417,0 -0.770999,-0.146 -1.061999,-0.437999 -0.292,-0.291 -0.438,-0.644999 -0.438,-1.061999 z m 8.499994,-6.9999874 h -6.999995 v 6.9999874 h 6.999995 z"
   id="path1"
   style="stroke-width:0.999999;fill:#000000;fill-opacity:1;stroke:none" /><path
   d="m 20.775051,14.999209 h -2.074999 c -0.432999,1.466998 -1.257999,2.666996 -2.474998,3.599994 -1.216999,0.932998 -2.624998,1.399998 -4.224997,1.399998 -1.949998,0 -3.6039971,-0.678999 -4.9619961,-2.037997 -1.358999,-1.357997 -2.0379985,-3.011995 -2.0379985,-4.961991 0,-1.199998 0.2709998,-2.299996 0.8129994,-3.2999945 C 6.3540614,8.6992203 7.0830608,7.8822217 8.0000602,7.2492228 V 9.999218 H 10.000059 V 3.9992285 H 4.0000631 V 5.999225 H 6.3500614 C 5.3170621,6.8322235 4.5000628,7.8532218 3.9000632,9.0612197 3.3000636,10.270218 3.0000639,11.582215 3.0000639,12.999213 c 0,1.249998 0.2379998,2.420996 0.7129994,3.511994 0.4749997,1.091998 1.1159992,2.041996 1.9249986,2.849995 0.8079994,0.808998 1.7579987,1.449997 2.8499979,1.924996 1.0909992,0.475 2.2619982,0.712999 3.5119972,0.712999 2.149999,0 4.037997,-0.662999 5.662996,-1.987996 1.624999,-1.324998 2.661998,-2.994995 3.111998,-5.011992 z"
   style="fill-rule:nonzero;stroke-width:0.999999;fill:#000000;fill-opacity:1;stroke:none"
   id="path2" />
</svg>
