<?xml version="1.0" encoding="UTF-8" standalone="no"?>
<svg
   width="100%"
   height="100%"
   viewBox="0 0 24 24"
   version="1.1"
   xml:space="preserve"
   style="fill-rule:evenodd;clip-rule:evenodd;stroke-linejoin:round;stroke-miterlimit:2;"
   id="svg2"
   xmlns="http://www.w3.org/2000/svg"
   xmlns:svg="http://www.w3.org/2000/svg"><defs
   id="defs2">
        
    
            
            
        
                
            </defs>
    <path
   d="M 2.9094016,15.953375 V 7.8348563 c 0,-0.7147417 0.3814206,-1.375145 1.000509,-1.7323208 L 11.021041,1.9997542 c 0.619059,-0.3571758 1.38166,-0.3568458 2.000418,8.401e-4 l 7.10432,4.106712 c 0.617768,0.3570858 0.998468,1.0162888 0.999068,1.7298304 l 0.0068,8.1145883 c 6.01e-4,0.714142 -0.37965,1.374425 -0.997628,1.732351 l -7.111131,4.118534 c -0.620018,0.359066 -1.38472,0.359066 -2.004738,0 L 3.9070302,17.684076 C 3.289562,17.32645 2.9094016,16.666947 2.9094016,15.953375 Z M 18.12302,7.2596964 12.02053,3.732105 4.9093995,7.8348563 v 8.1185187 l 6.1111015,3.539354 -6e-5,-6.966549 -2.5011076,-1.448657 C 8.0414174,10.80073 7.8783715,10.188934 8.1551655,9.7110196 8.4319595,9.2331049 9.0437868,9.0700594 9.5217027,9.3468526 L 12.02053,10.793979 Z M 13.020529,19.492729 19.13166,15.953375 19.12581,8.9901569 13.020529,12.52612 Z"
   id="path1"
   style="stroke-width:0.0300047;fill:#000000;fill-opacity:1" />
</svg>
