<?xml version="1.0" encoding="UTF-8" standalone="no"?>
<svg
   width="100%"
   height="100%"
   viewBox="0 0 24 24"
   version="1.1"
   xml:space="preserve"
   style="fill-rule:evenodd;clip-rule:evenodd;stroke-linejoin:round;stroke-miterlimit:2;"
   id="svg3"
   xmlns="http://www.w3.org/2000/svg"
   xmlns:svg="http://www.w3.org/2000/svg"><defs
   id="defs3">
        
    
            
            
            
        </defs>
    <g
   transform="matrix(0.02500011,0,0,0.02500001,-0.99957728,23.99966)"
   id="g1">
                <path
   d="m 160,-160 v -80 h 109 c -34,-29.333 -60.667,-64.667 -80,-106 -19.333,-41.333 -29,-86 -29,-134 0,-74.667 22.667,-140.5 68,-197.5 45.333,-57 102.667,-94.5 172,-112.5 v 84 c -46.667,16.667 -85,45.5 -115,86.5 -30,41 -45,87.5 -45,139.5 0,36 7.167,69.167 21.5,99.5 14.333,30.333 33.833,56.5 58.5,78.5 v -98 h 80 v 240 z"
   style="fill:#1ea300"
   id="path1" />
            </g><g
   transform="matrix(-0.02500011,0,0,-0.02500001,25.000473,0.24965371)"
   id="g2">
                <path
   d="m 160,-160 v -80 h 109 c -34,-29.333 -60.667,-64.667 -80,-106 -19.333,-41.333 -29,-86 -29,-134 0,-74.667 22.667,-140.5 68,-197.5 45.333,-57 102.667,-94.5 172,-112.5 v 84 c -46.667,16.667 -85,45.5 -115,86.5 -30,41 -45,87.5 -45,139.5 0,36 7.167,69.167 21.5,99.5 14.333,30.333 33.833,56.5 58.5,78.5 v -98 h 80 v 240 z"
   style="fill:#e72727"
   id="path2" />
            </g>
</svg>
