<?xml version="1.0" encoding="UTF-8" standalone="no"?>
<svg
   width="100%"
   height="100%"
   viewBox="0 0 24 24"
   version="1.1"
   xml:space="preserve"
   style="fill-rule:evenodd;clip-rule:evenodd;stroke-linejoin:round;stroke-miterlimit:2;"
   id="svg5"
   xmlns="http://www.w3.org/2000/svg"
   xmlns:svg="http://www.w3.org/2000/svg"><defs
   id="defs5">
        
    
            
            
            
        
                
                
            <clipPath
   clipPathUnits="userSpaceOnUse"
   id="clipPath5"><rect
     x="1.3470201"
     y="-4.6023145"
     width="48.146294"
     height="39.780354"
     id="rect5"
     style="stroke-width:1" /></clipPath><clipPath
   clipPathUnits="userSpaceOnUse"
   id="clipPath6"><rect
     x="-14.705215"
     y="5.3447824"
     width="48.146294"
     height="39.780354"
     id="rect6"
     style="stroke-width:1" /></clipPath></defs>
    <g
   transform="matrix(0.49837629,0,0,0.60318652,7.3290965,-3.2241319)"
   id="g2"
   clip-path="url(#clipPath6)"
   style="fill:#000000;fill-opacity:1">
                    <path
   d="m 16.922,35.186 c 0.706,1.012 0.718,2.258 0.025,3.28 -0.711,1.046 -2.049,1.694 -3.501,1.694 H -8.625 c -1.452,0 -2.79,-0.648 -3.5,-1.694 -0.711,-1.046 -0.682,-2.327 0.075,-3.351 l 11.036,-14.92 c 0.729,-0.986 2.027,-1.587 3.425,-1.587 0.646,0 1.27,0.128 1.827,0.364 l 2.774,-3.751 c 0.729,-0.986 2.027,-1.587 3.425,-1.587 0.646,0 1.27,0.129 1.827,0.364 l 2.774,-3.751 c 0.729,-0.985 2.027,-1.586 3.425,-1.586 1.398,0 2.695,0.601 3.424,1.586 l 11.036,14.921 c 0.757,1.024 0.786,2.305 0.076,3.351 -0.71,1.046 -2.049,1.694 -3.501,1.694 h -4.55 c 0.707,1.011 0.718,2.258 0.025,3.28 -0.711,1.046 -2.049,1.693 -3.501,1.693 z M 10.437,16.95 6.936,21.683 14.471,31.871 h 7.001 z m 12.06,9.947 h 7.001 L 18.463,11.976 14.962,16.71 Z"
   id="path2"
   style="fill:#000000;fill-opacity:1" />
                </g><g
   transform="matrix(0.49837629,0,0,0.60318652,-0.67095689,2.775823)"
   id="g3"
   clip-path="url(#clipPath5)">
                    <path
   d="M 18.463,11.976 29.498,26.897 H 7.427 Z"
   style="fill:#ffc618"
   id="path3" />
                </g>
                
            
</svg>
