<?xml version="1.0" encoding="UTF-8" standalone="no"?>
<svg
   width="100%"
   height="100%"
   viewBox="0 0 24 24"
   version="1.1"
   xml:space="preserve"
   style="fill-rule:evenodd;clip-rule:evenodd;stroke-linejoin:round;stroke-miterlimit:2;"
   id="svg4"
   xmlns="http://www.w3.org/2000/svg"
   xmlns:svg="http://www.w3.org/2000/svg"><defs
   id="defs4">
        
    
            
            
            
        
                
            
                    
                </defs>
    <path
   d="m 15.76262,17.999589 c 0.351854,0.610425 0.357834,1.361995 0.01246,1.978452 -0.354345,0.630933 -1.021173,1.021798 -1.744815,1.021798 H 3.030601 c -0.7236424,0 -1.3904699,-0.390865 -1.744317,-1.021798 C 0.93193844,19.347108 0.94639135,18.574426 1.323662,17.956763 L 6.8237429,8.9572199 c 0.3633164,-0.5947419 1.0102088,-0.957257 1.7069388,-0.957257 0.3219511,0 0.6329379,0.077208 0.9105335,0.2195599 L 10.823711,5.9569701 c 0.363316,-0.5947419 1.010209,-0.957257 1.706939,-0.957257 0.321951,0 0.632938,0.077811 0.910533,0.2195599 l 1.382496,-2.2625526 c 0.363316,-0.5941388 1.010209,-0.9566539 1.706939,-0.9566539 0.69673,0 1.343124,0.3625151 1.70644,0.9566539 l 5.500081,9.0001456 c 0.377271,0.617663 0.391724,1.390345 0.03788,2.021278 -0.353847,0.630934 -1.021173,1.021798 -1.744816,1.021798 h -2.267612 c 0.352352,0.609822 0.357834,1.361996 0.01246,1.978452 -0.354346,0.630933 -1.021173,1.021195 -1.744816,1.021195 z M 8.5306817,9.9995262 3.030601,18.999672 H 14.030264 Z M 12.53065,6.9998796 10.785834,9.8547614 14.5411,16.000026 h 3.489132 z m 6.010418,5.9998964 H 22.0302 L 16.530618,3.9996299 14.785803,6.8551148 Z"
   id="path2"
   style="stroke-width:0.548283;fill:#000000;fill-opacity:1" />
                
            
</svg>
