<?xml version="1.0" encoding="UTF-8" standalone="no"?>
<svg
   width="100%"
   height="100%"
   viewBox="0 0 24 24"
   version="1.1"
   xml:space="preserve"
   style="fill-rule:evenodd;clip-rule:evenodd;stroke-linejoin:round;stroke-miterlimit:2;"
   id="svg6"
   xmlns="http://www.w3.org/2000/svg"
   xmlns:svg="http://www.w3.org/2000/svg"><defs
   id="defs6">
        
    
            
            
            
        
                
            
                    
                    
                <clipPath
   clipPathUnits="userSpaceOnUse"
   id="clipPath6"><rect
     x="4.1458397"
     y="-1.5867389"
     width="39.392422"
     height="32.547665"
     id="rect7"
     style="stroke-width:1" /></clipPath><clipPath
   clipPathUnits="userSpaceOnUse"
   id="clipPath7"><rect
     x="-14.642875"
     y="5.345305"
     width="48.146355"
     height="39.78046"
     id="rect8"
     style="stroke-width:1" /></clipPath></defs>
    <g
   transform="matrix(0.49837563,0,0,0.60318495,7.2980108,-3.2244511)"
   id="g2"
   clip-path="url(#clipPath7)"
   style="fill:#000000;fill-opacity:1">
                        <path
   d="m 17.369,35.186 2.4,3.245 c 0.757,1.023 0.786,2.305 0.076,3.351 -0.71,1.046 -2.049,1.694 -3.5,1.694 h -26.977 c -1.451,0 -2.79,-0.648 -3.5,-1.694 -0.71,-1.046 -0.681,-2.328 0.076,-3.351 L -0.568,20.195 c 0.729,-0.986 2.026,-1.587 3.424,-1.587 0.515,0 1.015,0.081 1.479,0.233 l 2.677,-3.62 c 0.729,-0.986 2.027,-1.587 3.425,-1.587 0.646,0 1.27,0.129 1.827,0.364 l 2.774,-3.751 c 0.729,-0.985 2.027,-1.586 3.425,-1.586 1.398,0 2.695,0.601 3.424,1.586 l 11.036,14.921 c 0.757,1.024 0.786,2.305 0.076,3.351 -0.71,1.046 -2.049,1.694 -3.501,1.694 h -4.55 c 0.707,1.011 0.718,2.258 0.025,3.28 -0.711,1.046 -2.049,1.693 -3.501,1.693 z M 14.962,16.71 22.497,26.897 h 7.001 L 18.463,11.976 Z m -7.803,4.672 7.758,10.489 h 6.555 L 10.437,16.95 Z"
   id="path2"
   style="fill:#000000;fill-opacity:1" />
                    </g><g
   transform="matrix(0.60912655,0,0,0.73722572,-2.524982,1.1695412)"
   id="g3"
   clip-path="url(#clipPath6)">
                        <path
   d="M 18.463,11.976 29.498,26.897 H 7.427 Z"
   style="fill:#ffc618"
   id="path3" />
                    </g>
                
            
</svg>
