<?xml version="1.0" encoding="UTF-8" standalone="no"?>
<svg
   width="100%"
   height="100%"
   viewBox="0 0 24 24"
   version="1.1"
   xml:space="preserve"
   style="fill-rule:evenodd;clip-rule:evenodd;stroke-linejoin:round;stroke-miterlimit:2;"
   id="svg2"
   xmlns="http://www.w3.org/2000/svg"
   xmlns:svg="http://www.w3.org/2000/svg"><defs
   id="defs2">
        
    
            
            
        
                
            </defs>
    <path
   d="m 4.9924197,19.000073 h 1.424996 L 16.192388,9.2250808 14.767392,7.800082 4.9924197,17.575074 Z M 2.9924253,21.000071 V 16.750075 L 16.192388,3.5750853 c 0.2,-0.1833248 0.420824,-0.3249997 0.662499,-0.4249996 0.241674,-0.1 0.495823,-0.1499999 0.762497,-0.1499999 0.266675,0 0.524999,0.05 0.774998,0.1499999 0.25,0.1 0.466674,0.2499998 0.649998,0.4499996 l 1.374997,1.3999989 c 0.199999,0.1833249 0.345824,0.3999997 0.437498,0.6499995 0.09167,0.2499998 0.1375,0.4999996 0.1375,0.7499994 0,0.2666748 -0.04583,0.5208246 -0.1375,0.7624994 -0.09167,0.2416748 -0.237499,0.4624996 -0.437498,0.6624994 L 7.2424134,21.000071 Z"
   style="fill-rule:nonzero;stroke-width:0.025;fill:#000000;fill-opacity:1"
   id="path1" />
</svg>
