<?xml version="1.0" encoding="UTF-8" standalone="no"?>
<svg
   width="100%"
   height="100%"
   viewBox="0 0 24 24"
   version="1.1"
   xml:space="preserve"
   style="fill-rule:evenodd;clip-rule:evenodd;stroke-linejoin:round;stroke-miterlimit:2;"
   id="svg3"
   xmlns="http://www.w3.org/2000/svg"
   xmlns:svg="http://www.w3.org/2000/svg"><defs
   id="defs3">
        
    
            
            
            
        
                
            
                
            </defs>
    <path
   d="m 11.263775,8.4687314 4.902911,-4.8936461 c 0.2,-0.1833248 0.420824,-0.3249997 0.662498,-0.4249996 0.241675,-0.1 0.495824,-0.1499999 0.762498,-0.1499999 0.266675,0 0.524999,0.05 0.774998,0.1499999 0.249999,0.1 0.466674,0.2499998 0.649998,0.4499996 l 1.374997,1.3999989 c 0.199999,0.1833249 0.345824,0.3999997 0.437498,0.6499995 0.09167,0.2499998 0.1375,0.4999996 0.1375,0.7499994 0,0.2666748 -0.04583,0.5208246 -0.1375,0.7624994 -0.09167,0.2416748 -0.237499,0.4624996 -0.437498,0.6624994 L 15.505913,12.710853 14.093417,11.298354 16.166686,9.2250808 14.74169,7.800082 12.668421,9.8733553 Z m 1.413696,7.0705696 -5.4607596,5.46077 H 2.9667233 v -4.249996 l 5.4659597,-5.455596 1.4072961,1.407324 -4.8732614,4.873271 v 1.424999 h 1.424996 l 4.8732613,-4.873271 z"
   id="path1"
   style="stroke-width:0.025;fill:#000000;fill-opacity:1" /><rect
   x="-2.4493883"
   y="4.438448"
   width="1.9999985"
   height="25.010155"
   style="fill:#e72727;stroke-width:1.9934"
   id="rect2"
   transform="matrix(0.70710816,-0.7071054,0.70710737,0.70710619,0,0)" />
</svg>
