<?xml version="1.0" encoding="UTF-8" standalone="no"?>
<svg
   width="100%"
   height="100%"
   viewBox="0 0 24 24"
   version="1.1"
   xml:space="preserve"
   style="fill-rule:evenodd;clip-rule:evenodd;stroke-linejoin:round;stroke-miterlimit:2;"
   id="svg3"
   xmlns="http://www.w3.org/2000/svg"
   xmlns:svg="http://www.w3.org/2000/svg"><defs
   id="defs3">
        
    
            
            
            
        
                
            
                
            </defs>
    <path
   d="m 12.049893,19.999201 c -2.2329987,0 -4.1329973,-0.774999 -5.6999961,-2.324996 C 4.782898,16.124207 3.9998986,14.232211 3.9998986,11.999215 v -0.175 L 2.3998998,13.424212 0.99990082,12.024214 4.9998979,8.0242215 8.9998949,12.024214 7.5998959,13.424212 5.9998971,11.824215 v 0.175 c 0,1.666997 0.5879996,3.082994 1.7629987,4.249992 1.1749991,1.166998 2.6039982,1.749997 4.2869972,1.749997 0.432999,0 0.857999,-0.05 1.274999,-0.15 0.416999,-0.1 0.824999,-0.249999 1.224999,-0.449999 l 1.499999,1.499998 c -0.633,0.366999 -1.282999,0.641998 -1.949999,0.824998 -0.666999,0.183 -1.349999,0.275 -2.049998,0.275 z"
   style="fill-rule:nonzero;stroke-width:0.999999;fill:#000000;fill-opacity:1;stroke:none"
   id="path1" /><path
   d="m 18.999887,15.974208 -3.999997,-3.999993 1.399999,-1.399998 1.599999,1.599997 v -0.174999 c 0,-1.666998 -0.586999,-3.0829951 -1.761998,-4.2499931 -1.175,-1.1669979 -2.604999,-1.7499969 -4.287997,-1.7499969 -0.433,0 -0.858,0.05 -1.274999,0.1499997 -0.417,0.1 -0.8249997,0.2499996 -1.2249994,0.4499992 L 7.9498957,5.0992265 C 8.5828952,4.7322272 9.2328947,4.4572277 9.8998942,4.274228 10.566894,4.0912283 11.249893,3.9992285 11.949893,3.9992285 c 2.232998,0 4.132997,0.7749986 5.699995,2.3249959 1.566999,1.5499973 2.349999,3.441994 2.349999,5.6749906 v 0.174999 l 1.599999,-1.599997 1.399999,1.399998 z"
   style="fill-rule:nonzero;stroke-width:0.999999;fill:#000000;fill-opacity:1;stroke:none"
   id="path2" />
</svg>
