<?xml version="1.0" encoding="UTF-8" standalone="no"?>
<svg
   width="100%"
   height="100%"
   viewBox="0 0 24 24"
   version="1.1"
   xml:space="preserve"
   style="fill-rule:evenodd;clip-rule:evenodd;stroke-linejoin:round;stroke-miterlimit:2;"
   id="svg7"
   xmlns="http://www.w3.org/2000/svg"
   xmlns:svg="http://www.w3.org/2000/svg"><defs
   id="defs7">
        
    
            
            
            
            
            
            
        
                
            
                
            
                
            
                
            
                
            </defs>
    <rect
   x="13.000046"
   y="14.249146"
   width="3.9999971"
   height="1.4999974"
   style="fill-rule:nonzero;stroke-width:0.999999;fill:#000000;fill-opacity:1;stroke:none"
   id="rect2" /><path
   d="m 14.500045,20.999135 v -1.249998 h -1.499999 v -1.499998 h 1.499999 v -1.249997 h 1.499999 v 3.999993 z"
   style="fill-rule:nonzero;stroke-width:0.999999;fill:#000000;fill-opacity:1;stroke:none"
   id="path2" /><rect
   x="17.000044"
   y="18.24914"
   width="4.9999962"
   height="1.4999974"
   style="fill-rule:nonzero;stroke-width:0.999999;fill:#000000;fill-opacity:1;stroke:none"
   id="rect3" /><path
   d="m 18.000042,16.999142 v -3.999994 h 1.499999 v 1.249998 h 2.499998 v 1.499998 h -2.499998 v 1.249998 z"
   style="fill-rule:nonzero;stroke-width:0.999999;fill:#000000;fill-opacity:1;stroke:none"
   id="path4" /><path
   d="M 10.000039,20.774254 V 18.699257 C 8.5330398,18.266258 7.3330407,17.441259 6.4000414,16.224262 5.4670421,15.007264 5.0000424,13.599266 5.0000424,11.999269 c 0,-1.949997 0.6789995,-3.6039938 2.0379985,-4.9619915 1.357999,-1.3589976 3.0119981,-2.0379964 4.9619961,-2.0379964 1.199999,0 2.299999,0.2709995 3.299998,0.8129985 0.999999,0.5409991 1.816998,1.2699978 2.449998,2.1869962 h -2.749998 v 1.9999966 h 5.999996 V 3.9992828 H 19.000032 V 6.3492787 C 18.167033,5.3162805 17.146033,4.4992819 15.938034,3.899283 14.729035,3.299284 13.417036,2.9992845 12.000037,2.9992845 c -1.249999,0 -2.420998,0.2379996 -3.5119972,0.7129988 C 7.3960406,4.1872825 6.4460413,4.8282814 5.6370419,5.6372799 4.8290425,6.4452785 4.188043,7.3952769 3.7130434,8.487275 3.2380437,9.5782731 3.0000439,10.749271 3.0000439,11.999269 c 0,2.149996 0.6629995,4.037993 1.9879985,5.66299 1.324999,1.624997 2.9949978,2.661995 5.0119966,3.111995 z"
   style="fill-rule:nonzero;stroke-width:0.999999;fill:#000000;fill-opacity:1;stroke:none"
   id="path5" />
</svg>
