<?xml version="1.0" encoding="UTF-8" standalone="no"?>
<svg
   width="100%"
   height="100%"
   viewBox="0 0 24 24"
   version="1.1"
   xml:space="preserve"
   style="fill-rule:evenodd;clip-rule:evenodd;stroke-linejoin:round;stroke-miterlimit:2;"
   id="svg2"
   xmlns="http://www.w3.org/2000/svg"
   xmlns:svg="http://www.w3.org/2000/svg"><defs
   id="defs2">
        
    
            
            
        
                
            </defs>
    <path
   d="m 11.983047,4.9991624 c -1.942999,0.004 -3.5909975,0.6829988 -4.9449964,2.0379965 -1.358999,1.3579976 -2.0379985,3.0119951 -2.0379985,4.9619911 0,1.199998 0.2709998,2.299996 0.8129994,3.299994 0.5409996,0.999999 1.269999,1.816997 2.1869983,2.449996 v -2.749995 h 1.9999982 v 5.99999 H 4.0000528 V 18.999138 H 6.3500511 C 5.3170518,18.166139 4.5000524,17.145141 3.9000529,15.937143 3.3000533,14.728145 3.0000535,13.416148 3.0000535,11.99915 c 0,-1.249998 0.2379999,-2.4209956 0.7129995,-3.5119937 C 4.1880527,7.3951582 4.8290522,6.4451599 5.6380516,5.6361613 6.446051,4.8281627 7.3960503,4.1871638 8.4880495,3.7111646 9.5720487,3.2391655 10.736048,3.0021659 11.977047,2.9991659 c 0.002,0 0.023,0 0.023,0 2.149998,0 4.037997,0.6629988 5.662996,1.9879965 1.624998,1.3249977 2.661998,2.9949948 3.111997,5.0119913 h -0.01 c 0.145,0.6419993 0.218,1.3089973 0.218,1.9999963 0,2.149996 -0.662999,4.036993 -1.987998,5.66199 -0.202,0.248 -0.412,0.483 -0.63,0.702999 l -1.414999,-1.414997 c 0.223,-0.224 0.434,-0.466 0.633,-0.724999 0.932999,-1.216998 1.399999,-2.624996 1.399999,-4.224993 0,-0.704999 -0.089,-1.371997 -0.267,-1.9999963 h -0.016 c -0.24,-0.8109986 -0.599,-1.5409973 -1.078999,-2.1889962 -0.202,-0.2679995 -0.428,-0.5259991 -0.676,-0.7739986 C 16.491044,6.5821596 16.003044,6.2041603 15.483044,5.9011608 15.232044,5.7561611 14.975045,5.6281613 14.710045,5.5181615 13.879045,5.1731621 12.976046,5.0001624 12.000047,4.9991624 Z"
   id="path1"
   style="stroke-width:0.999999;fill:#000000;fill-opacity:1;stroke:none" />
</svg>
