<?xml version="1.0" encoding="UTF-8" standalone="no"?>
<svg
   width="100%"
   height="100%"
   viewBox="0 0 24 24"
   version="1.1"
   xml:space="preserve"
   style="fill-rule:evenodd;clip-rule:evenodd;stroke-linejoin:round;stroke-miterlimit:2;"
   id="svg2"
   xmlns="http://www.w3.org/2000/svg"
   xmlns:svg="http://www.w3.org/2000/svg"><defs
   id="defs2">
        
    
            
            
        </defs>
    <g
   transform="matrix(0.72487167,0,0,0.75989161,-1308.9351,0.24287192)"
   id="g1"
   style="fill:#000000;fill-opacity:1">
                <path
   d="m 1833.29,27.316 h -22.07 c -0.77,0 -1.38,-0.589 -1.38,-1.316 V 4.944 c 0,-0.726 0.61,-1.316 1.38,-1.316 h 17.93 c 0.37,0 0.72,0.139 0.98,0.386 l 4.14,3.948 c 0.25,0.247 0.4,0.581 0.4,0.93 V 26 c 0,0.727 -0.62,1.316 -1.38,1.316 z M 1815.36,6.26 h -2.76 v 18.424 h 2.76 v -6.58 h 15.17 v 6.58 h 1.38 V 9.437 l -2.76,-2.632 v 8.667 h -13.79 z m 1.38,0 v 7.896 h 11.03 V 6.26 h -1.38 v 5.264 h -4.14 V 6.26 Z m 12.41,18.424 V 19.42 h -12.41 v 5.264 z"
   id="path1"
   style="fill:#000000;fill-opacity:1" />
            </g>
</svg>
