<?xml version="1.0" encoding="UTF-8" standalone="no"?>
<svg
   width="100%"
   height="100%"
   viewBox="0 0 24 24"
   version="1.1"
   xml:space="preserve"
   style="fill-rule:evenodd;clip-rule:evenodd;stroke-linejoin:round;stroke-miterlimit:2;"
   id="svg2"
   xmlns="http://www.w3.org/2000/svg"
   xmlns:svg="http://www.w3.org/2000/svg"><defs
   id="defs2">
        
    
            
            
        
                
            </defs>
    <path
   d="m 19.566677,21.000071 -6.299983,-6.299995 c -0.499998,0.4 -1.074997,0.716675 -1.724995,0.95 -0.649998,0.233324 -1.341671,0.349999 -2.0749939,0.349999 -1.8166699,0 -3.3541656,-0.629174 -4.6124871,-1.887498 -1.2583215,-1.258324 -1.8874947,-2.795823 -1.8874947,-4.6124964 0,-1.8166735 0.6291732,-3.3541723 1.8874947,-4.6124963 1.2583215,-1.258324 2.7958172,-1.8874985 4.6124871,-1.8874985 1.8166699,0 3.3541659,0.6291745 4.6124869,1.8874985 1.258322,1.258324 1.887495,2.7958228 1.887495,4.6124963 0,0.7333244 -0.116675,1.4249984 -0.349999,2.0749984 -0.233324,0.649999 -0.549999,1.224999 -0.949997,1.724999 l 6.299982,6.299995 z M 9.4667051,14.000077 c 1.2499969,0 2.3124939,-0.4375 3.1874909,-1.312499 0.874998,-0.874999 1.312497,-1.937498 1.312497,-3.1874974 0,-1.249999 -0.437499,-2.3124982 -1.312497,-3.1874975 -0.874997,-0.8749993 -1.937494,-1.3124989 -3.1874909,-1.3124989 -1.2499965,0 -2.3124935,0.4374996 -3.1874911,1.3124989 -0.8749975,0.8749993 -1.3124963,1.9374985 -1.3124963,3.1874975 0,1.2499994 0.4374988,2.3124984 1.3124963,3.1874974 0.8749976,0.874999 1.9374946,1.312499 3.1874911,1.312499 z"
   id="path1"
   style="stroke-width:0.025;fill:#000000;fill-opacity:1" />
</svg>
