<?xml version="1.0" encoding="UTF-8" standalone="no"?>
<svg
   width="100%"
   height="100%"
   viewBox="0 0 24 24"
   version="1.1"
   xml:space="preserve"
   style="fill-rule:evenodd;clip-rule:evenodd;stroke-linejoin:round;stroke-miterlimit:2;"
   id="svg3"
   xmlns="http://www.w3.org/2000/svg"
   xmlns:svg="http://www.w3.org/2000/svg"><defs
   id="defs3">
        
    
            
            
            
        
                
            
                
            </defs>
    <path
   d="m 12.025623,21.999659 c -1.383331,0 -2.6833369,-0.2625 -3.9000173,-0.7875 -1.2166803,-0.525 -2.27501,-1.237501 -3.1750139,-2.137501 -0.900004,-0.9 -1.6125071,-1.958326 -2.1375094,-3.175001 C 2.28808,14.682981 2.0255789,13.382981 2.0255789,11.999655 2.0255789,10.61633 2.28808,9.3163291 2.8130824,8.0996536 3.3380847,6.8829782 4.0505878,5.8246527 4.9505918,4.9246524 5.8505957,4.024652 6.9089254,3.3121517 8.1256057,2.7871515 9.3422861,2.2621513 10.642292,1.9996512 12.025623,1.9996512 c 1.383331,0 2.683337,0.2625001 3.900017,0.7875003 1.21668,0.5250002 2.27501,1.2375005 3.175014,2.1375009 0.900004,0.9000003 1.612507,1.9583258 2.137509,3.1750012 0.525003,1.2166755 0.787504,2.5166764 0.787504,3.9000014 0,1.383326 -0.262501,2.683326 -0.787504,3.900002 -0.525002,1.216675 -1.237505,2.275001 -2.137509,3.175001 -0.900004,0.9 -1.958334,1.612501 -3.175014,2.137501 -1.21668,0.525 -2.516686,0.7875 -3.900017,0.7875 z m 0,-2.000001 c 2.233335,0 4.125018,-0.775 5.675025,-2.325001 1.550007,-1.55 2.32501,-3.441676 2.32501,-5.675002 0,-2.2333257 -0.775003,-4.1250015 -2.32501,-5.6750021 -1.550007,-1.5500006 -3.44169,-2.3250009 -5.675025,-2.3250009 -2.2333349,0 -4.1250183,0.7750003 -5.6750251,2.3250009 -1.5500068,1.5500006 -2.3250102,3.4416764 -2.3250102,5.6750021 0,2.233326 0.7750034,4.125002 2.3250102,5.675002 1.5500068,1.550001 3.4416902,2.325001 5.6750251,2.325001 z"
   id="path1"
   style="stroke-width:0.0250001;fill:#000000;fill-opacity:1" /><path
   d="M 9.3033436,15.499677 V 8.4996786 c 0,-0.3658082 0.1997527,-0.7024304 0.5208193,-0.8777026 C 10.14523,7.4466844 10.536393,7.4606844 10.844102,7.658493 l 5.444443,3.499999 c 0.286222,0.184003 0.459258,0.500928 0.459258,0.841186 0,0.340258 -0.173036,0.657183 -0.459258,0.841186 l -5.444443,3.499999 C 10.536393,16.538671 10.14523,16.552671 9.8241629,16.37738 9.5030963,16.202107 9.3033436,15.865485 9.3033436,15.499677 Z"
   style="fill:#1ea300;stroke-width:0.0194444"
   id="path2" />
</svg>
