<?xml version="1.0" encoding="UTF-8" standalone="no"?>
<svg
   width="100%"
   height="100%"
   viewBox="0 0 24 24"
   version="1.1"
   xml:space="preserve"
   style="fill-rule:evenodd;clip-rule:evenodd;stroke-linejoin:round;stroke-miterlimit:2;"
   id="svg3"
   xmlns="http://www.w3.org/2000/svg"
   xmlns:svg="http://www.w3.org/2000/svg"><defs
   id="defs3">
        
    
            
            
            
        
                
            
                
            </defs>
    <path
   d="m 12.00042,21.999659 c -1.383331,0 -2.6833364,-0.2625 -3.9000167,-0.7875 -1.2166804,-0.525 -2.27501,-1.237501 -3.175014,-2.137501 -0.900004,-0.9 -1.6125071,-1.958326 -2.1375094,-3.175001 -0.5250023,-1.216676 -0.7875035,-2.516676 -0.7875035,-3.900002 0,-1.383325 0.2625012,-2.6833259 0.7875035,-3.9000014 C 3.3128822,6.8829782 4.0253853,5.8246527 4.9253893,4.9246524 5.8253933,4.024652 6.8837229,3.3121517 8.1004033,2.7871515 9.3170836,2.2621513 10.617089,1.9996512 12.00042,1.9996512 c 1.383332,0 2.683337,0.2625001 3.900018,0.7875003 1.21668,0.5250002 2.27501,1.2375005 3.175014,2.1375009 0.900004,0.9000003 1.612507,1.9583258 2.137509,3.1750012 0.525002,1.2166755 0.787503,2.5166764 0.787503,3.9000014 0,1.383326 -0.262501,2.683326 -0.787503,3.900002 -0.525002,1.216675 -1.237505,2.275001 -2.137509,3.175001 -0.900004,0.9 -1.958334,1.612501 -3.175014,2.137501 -1.216681,0.525 -2.516686,0.7875 -3.900018,0.7875 z m 0,-2.000001 c 2.233335,0 4.125019,-0.775 5.675025,-2.325001 1.550007,-1.55 2.325011,-3.441676 2.325011,-5.675002 0,-2.2333257 -0.775004,-4.1250015 -2.325011,-5.6750021 C 16.125439,4.7746523 14.233755,3.999652 12.00042,3.999652 c -2.2333344,0 -4.1250177,0.7750003 -5.6750245,2.3250009 -1.5500069,1.5500006 -2.3250103,3.4416764 -2.3250103,5.6750021 0,2.233326 0.7750034,4.125002 2.3250103,5.675002 1.5500068,1.550001 3.4416901,2.325001 5.6750245,2.325001 z"
   id="path1"
   style="stroke-width:0.0250001;fill:#000000;fill-opacity:1;stroke:none" /><path
   d="M 9.5004094,16.499657 16.50044,11.999655 9.5004094,7.4996534 Z"
   id="path2"
   style="stroke-width:0.0250001;fill:#000000;fill-opacity:1;stroke:none" />
</svg>
