<?xml version="1.0" encoding="UTF-8" standalone="no"?>
<svg
   width="100%"
   height="100%"
   viewBox="0 0 24 24"
   version="1.1"
   xml:space="preserve"
   style="fill-rule:evenodd;clip-rule:evenodd;stroke-linejoin:round;stroke-miterlimit:2;"
   id="svg5"
   xmlns="http://www.w3.org/2000/svg"
   xmlns:svg="http://www.w3.org/2000/svg"><defs
   id="defs5">
        
    
            
            
            
        
                
                
            
                    
                
                    
                </defs>
    <path
   d="M 15.000202,3.4996934 V -3.0568e-4 h 2.000009 V 3.4996934 Z m 5.000022,5.5000015 V 6.9996925 h 4.000018 V 8.9996949 Z M 20.293125,5.1210165 18.878894,3.7067904 21.707332,0.87837939 23.121563,2.2925849 Z m -1.000004,6.7573455 2.828438,2.828431 -1.414232,1.414227 -2.828437,-2.828432 z M 9.2930771,0.87837939 12.121515,3.7067904 10.707283,5.1210165 7.8788459,2.2925849 Z"
   id="path2"
   style="stroke-width:0.0226872;fill:#000000;fill-opacity:1" /><path
   d="m 18.414301,9.4139678 -4.831339,4.8313422 -1.559895,3.23024 c -0.118421,0.245467 -0.285674,0.463656 -0.490593,0.641644 L 5.3106326,23.510601 C 4.6993869,24.040467 3.8290814,24.150248 3.1059693,23.788487 L 1.1055201,22.788408 C 0.4280689,22.449485 5.6434488e-4,21.756987 2.3506302e-4,20.99972 l -2.09363e-5,-1.499951 C 4.31611e-5,18.792107 0.37429881,18.136826 0.98334189,17.777193 L 6.6675655,14.422547 9.5305208,9.8822205 C 9.6094609,9.7570283 9.7029874,9.640083 9.8082232,9.5348471 L 14.171706,5.1713612 c 0.781027,-0.7810278 2.047528,-0.7811595 2.828542,-1.429e-4 l 1.414199,1.4142023 c 0.781014,0.7810166 0.780881,2.0475194 -1.46e-4,2.8285472 z m -4.949596,-0.7072038 -2.242284,2.242285 -3.1215215,4.949944 -6.1003316,3.600383 2.1e-5,1.499951 1.9995225,1.00042 6.2218416,-5.393407 1.707178,-3.535599 2.949772,-2.949775 z"
   id="path3"
   style="stroke-width:0.609228;fill:#000000;fill-opacity:1" />
                
            
</svg>
