<?xml version="1.0" encoding="UTF-8" standalone="no"?>
<svg
   width="100%"
   height="100%"
   viewBox="0 0 24 24"
   version="1.1"
   xml:space="preserve"
   style="fill-rule:evenodd;clip-rule:evenodd;stroke-linejoin:round;stroke-miterlimit:2;"
   id="svg18"
   xmlns="http://www.w3.org/2000/svg"
   xmlns:svg="http://www.w3.org/2000/svg"><defs
   id="defs18">
        
    
            
            
            
        
                
                
                
                
                
                
                
                
                
                
                
                
                
                
            
                    
                
                    
                
                    
                
                    
                
                    
                
                    
                
                    
                
                    
                
                    
                
                    
                
                    
                
                    
                
                    
                
                    
                </defs>
    <g
   id="g33"
   style="fill:#000000;fill-opacity:1"><rect
     x="8.0303154"
     y="0.9998461"
     width="0.99993092"
     height="1.0000329"
     id="rect3"
     style="stroke-width:0.181078;fill:#000000;fill-opacity:1" /><rect
     x="7.0303655"
     y="-0.00037689484"
     width="0.99993092"
     height="1.0000329"
     id="rect4"
     style="stroke-width:0.181078;fill:#000000;fill-opacity:1" /><rect
     x="7.0303655"
     y="1.9997241"
     width="0.99993092"
     height="1.0000329"
     id="rect5"
     style="stroke-width:0.181078;fill:#000000;fill-opacity:1" /><rect
     x="6.0304255"
     y="0.9998461"
     width="0.99993092"
     height="1.0000329"
     id="rect6"
     style="stroke-width:0.181078;fill:#000000;fill-opacity:1" /></g><g
   id="g34"
   style="fill:#000000;fill-opacity:1"><path
     d="m 19.518447,13.313318 c 2.749647,1.099291 4.512491,2.791819 4.512491,4.687771 0,3.310901 -5.376915,5.999505 -11.999961,5.999505 -6.6230458,0 -11.99996059,-2.688604 -11.99996059,-5.999505 0,-2.000169 1.96000979,-3.772864 4.97189789,-4.863137 l -0.7362177,1.933029 c -0.1573447,0.295616 -0.2360171,0.610272 -0.2360171,0.929939 0,0.689437 0.3817066,1.397913 1.2150507,1.97211 1.2733265,0.876828 3.829692,1.527183 6.7852468,1.527183 2.955555,0 5.510949,-0.650355 6.785247,-1.527183 0.832373,-0.574197 1.215051,-1.282673 1.215051,-1.97211 l -0.0272,-0.31666 -0.07479,-0.301629 0.03205,0.119248 z"
     id="path6"
     style="stroke-width:0.986556;fill:#000000;fill-opacity:1" /><path
     d="m 5.0307144,15.999579 c 0,-0.17453 0.049858,-0.344885 0.1456088,-0.508976 L 8.030709,7.99917 11.030703,5.9991721 12.030702,2.9995929 18.030691,0.99959499 V 1.9991764 l -2.117277,2.9106441 0.11728,4.0893484 1.999997,1.9999981 0.95014,4.700204 c 0.03286,0.09812 0.04986,0.198329 0.04986,0.300208 0,1.379539 -3.136538,2.499789 -6.999987,2.499789 -3.8634494,0 -6.9999876,-1.12025 -6.9999876,-2.499789 z"
     id="path7"
     style="stroke-width:0.486378;fill:#000000;fill-opacity:1" /></g><g
   id="g31"
   style="fill:#000000;fill-opacity:1"><rect
     x="21.0299"
     y="6.9998012"
     width="1.9998593"
     height="1.0000329"
     id="rect8"
     style="stroke-width:0.256083;fill:#000000;fill-opacity:1" /><rect
     x="20.030396"
     y="4.9997888"
     width="0.99993092"
     height="2.0000637"
     id="rect9"
     style="stroke-width:0.256083;fill:#000000;fill-opacity:1" /><rect
     x="20.030396"
     y="7.9997587"
     width="0.99993092"
     height="2.0000637"
     id="rect10"
     style="stroke-width:0.256083;fill:#000000;fill-opacity:1" /><rect
     x="18.03031"
     y="6.9998012"
     width="1.9998593"
     height="1.0000329"
     id="rect11"
     style="stroke-width:0.256083;fill:#000000;fill-opacity:1" /></g><g
   id="g32"
   style="fill:#000000;fill-opacity:1"><rect
     x="3.0298998"
     y="8.9999018"
     width="1.9998593"
     height="1.0000329"
     id="rect12"
     style="stroke-width:0.256083;fill:#000000;fill-opacity:1" /><rect
     x="2.0303955"
     y="6.9998889"
     width="0.99993092"
     height="2.0000637"
     id="rect13"
     style="stroke-width:0.256083;fill:#000000;fill-opacity:1" /><rect
     x="2.0303955"
     y="9.9998589"
     width="0.99993092"
     height="2.0000637"
     id="rect14"
     style="stroke-width:0.256083;fill:#000000;fill-opacity:1" /><rect
     x="0.030309914"
     y="8.9999018"
     width="1.9998593"
     height="1.0000329"
     id="rect15"
     style="stroke-width:0.256083;fill:#000000;fill-opacity:1" /></g>
                
            
</svg>
