<svg xmlns="http://www.w3.org/2000/svg" viewBox="0 0 127 32" fill="white">
	<g>
		<path d="M18.841,21.152c-2.168,0.783-4.518,1.175-7.051,1.175c-3.629,0-6.502-0.96-8.617-2.879 C1.058,17.527,0,14.859,0,11.438C0,7.81,1.038,5.054,3.114,3.174c2.076-1.881,5.008-2.821,8.793-2.821 c2.378,0,4.635,0.418,6.777,1.253L17.313,5.25c-1.959-0.575-3.773-0.862-5.445-0.862c-2.09,0-3.76,0.542-5.014,1.626 c-1.253,1.083-1.88,2.787-1.88,5.11c0,2.376,0.679,4.152,2.036,5.327c1.358,1.176,3.108,1.763,5.25,1.763 c0.521,0,1.097-0.024,1.724-0.078v-5.68h4.856L18.841,21.152L18.841,21.152z"/>
		<path d="M41.676,12.73H27.692c0.025,2.141,0.607,3.564,1.742,4.27c1.137,0.704,2.814,1.057,5.035,1.057 c2.114,0,4.047-0.182,5.797-0.547l0.782,3.994c-1.697,0.549-4.204,0.823-7.521,0.823c-3.604,0-6.332-0.79-8.186-2.37 c-1.854-1.579-2.781-4.354-2.781-8.323c0-7.703,3.471-11.555,10.42-11.555c5.796,0,8.694,3.59,8.694,10.771v1.88H41.676z M36.349,9.088c0.025-1.594-0.319-2.84-1.037-3.741c-0.719-0.901-1.652-1.351-2.802-1.351c-1.201,0-2.259,0.425-3.172,1.272 c-0.915,0.849-1.425,2.122-1.528,3.819L36.349,9.088L36.349,9.088z"/>
		<path d="M77.984,21.975h-5.17V8.971c0-1.567-0.235-2.709-0.705-3.428c-0.471-0.718-1.356-1.077-2.664-1.077 c-1.33,0-3.055,0.613-5.17,1.841c0.078,0.445,0.117,1.123,0.117,2.037v13.631h-5.13V8.971c0-1.619-0.229-2.763-0.686-3.428 c-0.457-0.666-1.352-0.998-2.682-0.998c-1.176,0-2.861,0.586-5.055,1.762v15.667h-5.17V0.588h5.17V2.82 c0.758-0.547,1.346-0.952,1.764-1.215c0.418-0.26,1.148-0.592,2.192-0.998C55.842,0.203,56.821,0,57.735,0 c3.055,0,5.053,1.058,5.992,3.174C66.416,1.058,68.911,0,71.209,0c0.941,0,1.77,0.099,2.486,0.293 c0.72,0.196,1.312,0.438,1.783,0.726c0.47,0.288,0.867,0.679,1.193,1.175c0.326,0.498,0.574,0.947,0.744,1.352 c0.17,0.406,0.301,0.94,0.393,1.605c0.092,0.666,0.144,1.202,0.156,1.607c0.014,0.404,0.02,0.945,0.02,1.625V21.975L77.984,21.975z"/>
		<path d="M103.053,10.458c0,2.142-0.307,4.003-0.919,5.583c-0.614,1.579-1.464,2.812-2.549,3.7 c-1.083,0.889-2.271,1.536-3.563,1.938c-1.291,0.403-2.707,0.607-4.248,0.607c-1.438,0-2.532-0.053-3.291-0.157v8.461h-5.17V0.588 h5.131v1.566c0.627-0.495,1.463-0.953,2.508-1.371c1.043-0.416,2.037-0.625,2.977-0.625C100.012,0.158,103.053,3.592,103.053,10.458 z M97.844,10.85c0-2.14-0.412-3.74-1.232-4.798c-0.824-1.058-2.2-1.586-4.133-1.586c-1.071,0-2.402,0.379-3.996,1.137v12.415 c0.992,0.157,2.141,0.235,3.447,0.235c1.879,0,3.336-0.679,4.366-2.036C97.329,14.859,97.844,13.07,97.844,10.85z"/>
		<path d="M125.536,18.214l-0.235,3.956c-3.863,0.182-5.98-0.626-6.345-2.429c-2.299,1.698-4.505,2.547-6.62,2.547 c-2.191,0-3.878-0.53-5.053-1.588c-1.176-1.058-1.764-2.604-1.764-4.641c0-4.177,2.924-6.292,8.773-6.345 c2.377-0.026,3.801-0.04,4.271-0.04V7.403c0-1.2-0.334-1.991-1-2.369s-1.836-0.568-3.506-0.568c-1.356,0-3.344,0.326-5.953,0.979 l-1.02-3.84c2.717-1.018,5.34-1.526,7.874-1.526c1.278,0,2.368,0.064,3.271,0.196c0.9,0.13,1.789,0.397,2.664,0.803 c0.875,0.405,1.539,1.037,1.996,1.899c0.457,0.861,0.688,1.958,0.688,3.29v10.576c0,0.522,0.163,0.875,0.488,1.058 C124.395,18.084,124.883,18.188,125.536,18.214z M118.564,16.688v-3.799l-3.957,0.194c-1.619,0.08-2.703,0.34-3.252,0.785 c-0.547,0.443-0.821,1.07-0.821,1.879c0,1.646,0.86,2.468,2.586,2.468c0.495,0,1.114-0.104,1.858-0.313 c0.746-0.209,1.496-0.457,2.252-0.743C117.988,16.869,118.434,16.713,118.564,16.688z"/>
	</g>
</svg>
