<?xml version="1.0" encoding="UTF-8" standalone="no"?>
<svg
   width="100%"
   height="100%"
   viewBox="0 0 24 24"
   version="1.1"
   xml:space="preserve"
   style="fill-rule:evenodd;clip-rule:evenodd;stroke-linejoin:round;stroke-miterlimit:2;"
   id="svg5"
   xmlns="http://www.w3.org/2000/svg"
   xmlns:svg="http://www.w3.org/2000/svg"><defs
   id="defs5">
        
    
            
            
            
        
                
                
            <clipPath
   clipPathUnits="userSpaceOnUse"
   id="clipPath5"><rect
     x="70.631363"
     y="70.005524"
     width="43.190895"
     height="34.849705"
     id="rect5"
     style="stroke-width:1" /></clipPath><clipPath
   clipPathUnits="userSpaceOnUse"
   id="clipPath6"><rect
     x="-41.401112"
     y="-1040.2955"
     width="959.79462"
     height="959.79858"
     id="rect6"
     style="stroke-width:1" /></clipPath></defs>
    <g
   transform="matrix(0.02500011,0,0,0.02500001,1.0403983,26.007167)"
   id="g2"
   clip-path="url(#clipPath6)">
                    <path
   d="M 125.716,-468 211,-553.284 382,-382.285 749,-749.284 834.284,-664 382,-211.716 Z"
   style="fill:#0da600"
   id="path2" />
                </g><g
   transform="matrix(0.55555624,0,0,0.68852736,-39.234328,-48.200951)"
   id="g3"
   clip-path="url(#clipPath5)"
   style="fill:#000000;fill-opacity:1">
                    <path
   d="m 88.695,71.451 v 13.071 c 0,0.802 -0.807,1.452 -1.8,1.452 h -14.4 c -0.994,0 -1.8,-0.65 -1.8,-1.452 V 71.451 c 0,-0.802 0.806,-1.453 1.8,-1.453 h 14.4 c 0.993,0 1.8,0.651 1.8,1.453 z M 76.259,83.07 h 7.892 v -1.678 h -2.604 v -8.489 h -1.859 l -3.765,1.693 0.726,1.539 2.63,-1.237 v 6.494 h -3.02 z"
   id="path3"
   style="fill:#000000;fill-opacity:1" />
                </g>
                
            
</svg>
