<?xml version="1.0" encoding="UTF-8" standalone="no"?>
<svg
   width="100%"
   height="100%"
   viewBox="0 0 24 24"
   version="1.1"
   xml:space="preserve"
   style="fill-rule:evenodd;clip-rule:evenodd;stroke-linejoin:round;stroke-miterlimit:2;"
   id="svg2"
   xmlns="http://www.w3.org/2000/svg"
   xmlns:svg="http://www.w3.org/2000/svg"><defs
   id="defs2">
        
    
            
            
        
                
            </defs>
    <path
   d="m 12.040506,19.066905 c 1.100005,0 2.041684,-0.391675 2.825013,-1.175 0.783328,-0.783326 1.175005,-1.725001 1.175005,-2.825002 v -4.000001 c 0,-1.1000006 -0.391677,-2.041676 -1.175005,-2.8250013 -0.783329,-0.7833253 -1.725008,-1.1750005 -2.825013,-1.1750005 -1.100005,0 -2.0416838,0.3916752 -2.8250122,1.1750005 C 8.4321653,9.025226 8.0404886,9.9669014 8.0404886,11.066902 v 4.000001 c 0,1.100001 0.3916767,2.041676 1.1750052,2.825002 0.7833284,0.783325 1.7250072,1.175 2.8250122,1.175 z m -2.000009,-3.000001 h 4.000018 v -2.000001 h -4.000018 z m 0,-4.000002 h 4.000018 v -2.000001 h -4.000018 z m 2.000009,9.000004 c -1.08333,0 -2.087509,-0.266675 -3.012513,-0.800001 -0.9250041,-0.533325 -1.6541823,-1.266675 -2.1875097,-2.2 H 4.040471 v -2.000001 h 2.1000092 c -0.05,-0.333325 -0.079175,-0.666675 -0.0875,-1.000001 -0.00833,-0.333325 -0.0125,-0.666675 -0.0125,-1 H 4.040471 v -2.000001 h 2.0000088 c 0,-0.333325 0.00418,-0.666675 0.0125,-1 0.00832,-0.333325 0.0375,-0.666675 0.0875,-1.000001 H 4.040471 V 8.0669006 H 6.8404833 C 7.0738094,7.6835754 7.3363105,7.3252253 7.6279868,6.9919002 7.9196631,6.658575 8.2571646,6.3668999 8.6404912,6.1168998 L 7.0404842,4.4668992 8.4404904,3.0668986 10.5905,5.2168995 c 0.466677,-0.1500001 0.941679,-0.2250001 1.425006,-0.2250001 0.483327,0 0.958329,0.075 1.425006,0.2250001 l 2.20001,-2.1500009 1.400006,1.4000006 -1.650007,1.6500006 c 0.383327,0.2500001 0.729178,0.5375002 1.037505,0.8625004 0.308326,0.3250001 0.579177,0.6875002 0.812503,1.0875004 h 2.800012 v 2.0000004 h -2.100009 c 0.05,0.333326 0.07918,0.666676 0.0875,1.000001 0.0083,0.333325 0.0125,0.666675 0.0125,1 h 2.000008 v 2.000001 h -2.000008 c 0,0.333325 -0.0042,0.666675 -0.0125,1 -0.0083,0.333326 -0.0375,0.666676 -0.0875,1.000001 h 2.100009 v 2.000001 h -2.800012 c -0.533327,0.933325 -1.262505,1.666675 -2.18751,2.2 -0.925004,0.533326 -1.929183,0.800001 -3.012513,0.800001 z"
   style="fill-rule:nonzero;stroke-width:0.0250001;fill:#000000;fill-opacity:1"
   id="path1" />
</svg>
