<?xml version="1.0" encoding="UTF-8" standalone="no"?>
<svg
   width="100%"
   height="100%"
   viewBox="0 0 24 24"
   version="1.1"
   xml:space="preserve"
   style="fill-rule:evenodd;clip-rule:evenodd;stroke-linejoin:round;stroke-miterlimit:2;"
   id="svg2"
   xmlns="http://www.w3.org/2000/svg"
   xmlns:svg="http://www.w3.org/2000/svg"><defs
   id="defs2">
        
    
            
            
        
                
            </defs>
    <path
   d="m 10.950177,11.000079 h 1.999995 V 3.0000858 c 0,-0.2833248 -0.09582,-0.5208246 -0.2875,-0.7124994 -0.191674,-0.1916749 -0.429173,-0.2874998 -0.712498,-0.2874998 -0.283324,0 -0.520823,0.095825 -0.712498,0.2874998 -0.191674,0.1916748 -0.287499,0.4291746 -0.287499,0.7124994 z M 3.9501968,15.000076 H 19.950152 V 13.000078 H 3.9501968 Z m -0.9804222,5.999995 h 2.7499923 l 0.2304243,-1.999998 c 0,-0.283325 0.095825,-0.520825 0.2874992,-0.712499 0.1916745,-0.191675 0.4291738,-0.2875 0.712498,-0.2875 0.2833242,0 0.5208236,0.09582 0.712498,0.2875 0.1916745,0.191674 0.2874992,0.429174 0.2874992,0.712499 l -0.2304243,1.999998 h 3.2304157 v -1.999998 c 0,-0.283325 0.09582,-0.520825 0.287499,-0.712499 0.191675,-0.191675 0.429174,-0.2875 0.712498,-0.2875 0.283325,0 0.520824,0.09582 0.712498,0.2875 0.191675,0.191674 0.2875,0.429174 0.2875,0.712499 v 1.999998 h 3.269565 l -0.269574,-1.999998 c 0,-0.283325 0.09583,-0.520825 0.287499,-0.712499 0.191675,-0.191675 0.429174,-0.2875 0.712498,-0.2875 0.283325,0 0.520824,0.09582 0.712498,0.2875 0.191675,0.191674 0.2875,0.429174 0.2875,0.712499 l 0.269574,1.999998 h 2.749992 L 20.169726,16.000075 H 3.7697723 Z M 20.969724,23.00007 H 2.9697746 c -0.6499982,0 -1.1749967,-0.258325 -1.5749956,-0.775 C 0.99478012,21.708396 0.87810544,21.133396 1.04478,20.500072 l 0.9054224,-5.499996 v -1.999998 c 0,-0.55 0.1958245,-1.020824 0.5874984,-1.412499 0.3916739,-0.391675 0.8624976,-0.5875 1.412496,-0.5875 h 4.999986 V 3.0000858 c 0,-0.8333243 0.2916742,-1.5416738 0.8749976,-2.1249983 C 10.408504,0.29176297 11.116852,8.82e-5 11.950174,8.82e-5 c 0.833323,0 1.541671,0.29167477 2.124994,0.8749993 0.583324,0.5833245 0.874998,1.291674 0.874998,2.1249983 v 7.9999932 h 4.999986 c 0.549998,0 1.020822,0.195825 1.412496,0.5875 0.391674,0.391675 0.587498,0.862499 0.587498,1.412499 v 1.999998 l 0.944573,5.499996 c 0.216649,0.633324 0.120824,1.208324 -0.287499,1.724998 -0.408349,0.516675 -0.954173,0.775 -1.637496,0.775 z M 12.950172,11.000079 h -1.999995 z"
   style="fill-rule:nonzero;stroke-width:0.025;fill:#000000;fill-opacity:1;stroke:none"
   id="path1" />
</svg>
