<?xml version="1.0" encoding="UTF-8" standalone="no"?>
<!DOCTYPE svg PUBLIC "-//W3C//DTD SVG 1.1//EN" "http://www.w3.org/Graphics/SVG/1.1/DTD/svg11.dtd">
<svg width="100%" height="100%" viewBox="0 0 24 24" version="1.1" xmlns="http://www.w3.org/2000/svg" xmlns:xlink="http://www.w3.org/1999/xlink" xml:space="preserve" xmlns:serif="http://www.serif.com/" style="fill-rule:evenodd;clip-rule:evenodd;stroke-linejoin:round;stroke-miterlimit:2;">
    <g transform="matrix(1,0,0,1,-1024.03,-138)">
        <g id="icon_clear" transform="matrix(0.247135,0,0,0.34617,990.443,188.792)">
            <rect x="135.887" y="-146.725" width="97.113" height="69.33" style="fill:none;"/>
            <g transform="matrix(0.101159,0,0,0.0722188,135.704,-77.3953)">
                <path d="M440,-520L520,-520L520,-840C520,-851.333 516.167,-860.833 508.5,-868.5C500.833,-876.167 491.333,-880 480,-880C468.667,-880 459.167,-876.167 451.5,-868.5C443.833,-860.833 440,-851.333 440,-840L440,-520ZM160,-360L800,-360L800,-440L160,-440L160,-360ZM120.783,-120L230.783,-120L240,-200C240,-211.333 243.833,-220.833 251.5,-228.5C259.167,-236.167 268.667,-240 280,-240C291.333,-240 300.833,-236.167 308.5,-228.5C316.167,-220.833 320,-211.333 320,-200L310.783,-120L440,-120L440,-200C440,-211.333 443.833,-220.833 451.5,-228.5C459.167,-236.167 468.667,-240 480,-240C491.333,-240 500.833,-236.167 508.5,-228.5C516.167,-220.833 520,-211.333 520,-200L520,-120L650.783,-120L640,-200C640,-211.333 643.833,-220.833 651.5,-228.5C659.167,-236.167 668.667,-240 680,-240C691.333,-240 700.833,-236.167 708.5,-228.5C716.167,-220.833 720,-211.333 720,-200L730.783,-120L840.783,-120L808.783,-320L152.783,-320L120.783,-120ZM840.783,-40L120.783,-40C94.783,-40 73.783,-50.333 57.783,-71C41.783,-91.667 37.116,-114.667 43.783,-140L80,-360L80,-440C80,-462 87.833,-480.833 103.5,-496.5C119.167,-512.167 138,-520 160,-520L360,-520L360,-840C360,-873.333 371.667,-901.667 395,-925C418.333,-948.333 446.667,-960 480,-960C513.333,-960 541.667,-948.333 565,-925C588.333,-901.667 600,-873.333 600,-840L600,-520L800,-520C822,-520 840.833,-512.167 856.5,-496.5C872.167,-480.833 880,-462 880,-440L880,-360L917.783,-140C926.449,-114.667 922.616,-91.667 906.283,-71C889.949,-50.333 868.116,-40 840.783,-40ZM520,-520L440,-520L520,-520Z" style="fill-rule:nonzero;"/>
            </g>
        </g>
    </g>
</svg>
