<?xml version="1.0" encoding="UTF-8" standalone="no"?>
<svg
   width="100%"
   height="100%"
   viewBox="0 0 24 24"
   version="1.1"
   xml:space="preserve"
   style="fill-rule:evenodd;clip-rule:evenodd;stroke-linejoin:round;stroke-miterlimit:2;"
   id="svg3"
   xmlns="http://www.w3.org/2000/svg"
   xmlns:svg="http://www.w3.org/2000/svg"><defs
   id="defs3">
        
    
            
            
            
        
                
            
                
            </defs>
    <path
   d="m 13.05641,13.999557 v -1.896559 l 3.114286,-3.2547479 c 0.584484,-0.6109394 1.053492,-1.1375436 1.406137,-1.5798127 0.352644,-0.4432497 0.624456,-0.8374674 0.816323,-1.185595 0.190978,-0.3471469 0.317113,-0.6687971 0.377516,-0.9639701 0.0604,-0.2951729 0.0906,-0.6001522 0.0906,-0.9159187 0,-0.2598698 -0.03997,-0.507972 -0.120805,-0.7433258 C 18.659638,3.2242739 18.542386,3.0212812 18.387826,2.8486884 18.233266,2.6770763 18.038735,2.5397865 17.803342,2.4377998 17.56795,2.3358132 17.299691,2.2858005 16.99679,2.2858005 c -0.516975,0 -0.997531,0.1176769 -1.440779,0.3520501 -0.443249,0.2353539 -0.863402,0.5501396 -1.259572,0.9433767 L 12.996007,1.8327444 c 0.57116,-0.5550429 1.21427,-0.99927323 1.930218,-1.33269117 0.71506,-0.33341794 1.489634,-0.500126907 2.322835,-0.500126907 0.644886,0 1.22937,0.085315767 1.753451,0.257908587 0.524081,0.17161217 0.972659,0.42657883 1.345734,0.76391929 0.373075,0.3363599 0.661764,0.7580355 0.866955,1.2640463 0.204303,0.5050301 0.307342,1.0885115 0.307342,1.7484829 0,0.5471977 -0.07106,1.0581116 -0.212297,1.5327419 -0.140347,0.4736496 -0.345538,0.9355315 -0.614685,1.3846651 -0.268259,0.4501142 -0.599584,0.8992478 -0.992201,1.3483813 -0.393505,0.4501143 -0.842083,0.9237639 -1.345734,1.4229101 l -1.915117,1.9063662 h 5.553484 v 2.370209 z"
   style="fill-rule:nonzero;stroke-width:0.933315;fill:#000000;fill-opacity:1"
   id="path1" /><path
   d="m 1.9950866,20.999512 v -8.999985 h 0.9999992 v 8.150986 L 6.8840829,16.26152 7.7330823,17.110518 3.8440852,20.999512 H 11.995079 V 21.99951 H 2.9950858 c -0.5519996,0 -0.9999992,-0.447999 -0.9999992,-0.999998 z"
   id="path2"
   style="stroke-width:0.999999;fill:#000000;fill-opacity:1" />
</svg>
