<?xml version="1.0" encoding="UTF-8" standalone="no"?>
<svg
   width="100%"
   height="100%"
   viewBox="0 0 24 24"
   version="1.1"
   xml:space="preserve"
   style="fill-rule:evenodd;clip-rule:evenodd;stroke-linejoin:round;stroke-miterlimit:2;"
   id="svg4"
   xmlns="http://www.w3.org/2000/svg"
   xmlns:svg="http://www.w3.org/2000/svg"><defs
   id="defs4">
        
    
            
            
            
        
                
                
            
                    
                
                    
                </defs>
    <path
   d="m 16.000368,10.973728 2.289623,-2.5060238 c 0.947137,-1.0513883 1.566092,-1.7796266 1.856864,-2.1856356 0.290773,-0.406009 0.499925,-0.7816364 0.627457,-1.1278028 0.128382,-0.3461663 0.192148,-0.7052219 0.192148,-1.076246 0,-0.5542345 -0.141135,-0.966688 -0.422555,-1.2373607 -0.282271,-0.2706727 -0.658065,-0.406009 -1.129083,-0.406009 -0.493973,0 -0.973493,0.1233678 -1.438559,0.3682621 -0.465067,0.245815 -0.950538,0.5947433 -1.455564,1.0486264 L 15.055782,1.9724812 c 0.627457,-0.5790922 1.147787,-0.98786317 1.56014,-1.22723354 0.413204,-0.23937038 0.862966,-0.42350144 1.351838,-0.55239318 0.488022,-0.12889174 1.033859,-0.19333760665 1.63836,-0.19333760665 0.796649,0 1.499775,0.15743205665 2.110228,0.47229616665 0.610452,0.31394345 1.084021,0.75493736 1.420705,1.32114036 0.337534,0.566203 0.505877,1.215265 0.505877,1.9453446 0,0.6352522 -0.102876,1.2318368 -0.309478,1.7888332 -0.206602,0.5569965 -0.526281,1.1278028 -0.95904,1.7133395 -0.432758,0.5846161 -1.195399,1.4187298 -2.288772,2.5014205 l -1.63836,1.6709898 v 0.131653 h 5.552739 v 2.455388 h -7.999651 z m -5.99995,3.026194 V -0.0050864 h 2.702826 V 11.583202 h 2.297274 v 2.41672 z"
   id="path2"
   style="stroke-width:0.884733;fill:#000000;fill-opacity:1" /><path
   d="m 2.0004016,20.999773 v -9.000002 h 0.9999972 v 6.585781 L 5.879083,15.706878 4.4648562,14.292666 9.4146115,13.58556 8.7074981,18.535302 7.2932713,17.12109 4.4146256,19.999764 h 5.5857534 v -1.999991 l 3.999989,3 -3.999989,3.000001 V 21.999783 H 3.0003988 c -0.5519215,0 -0.9999972,-0.448096 -0.9999972,-1.00001 z"
   id="path3"
   style="stroke-width:0.0333086;fill:#000000;fill-opacity:1" />
                
            
</svg>
