<?xml version="1.0" encoding="UTF-8" standalone="no"?>
<svg
   width="100%"
   height="100%"
   viewBox="0 0 24 24"
   version="1.1"
   xml:space="preserve"
   style="fill-rule:evenodd;clip-rule:evenodd;stroke-linejoin:round;stroke-miterlimit:2;"
   id="svg3"
   xmlns="http://www.w3.org/2000/svg"
   xmlns:svg="http://www.w3.org/2000/svg"><defs
   id="defs3">
        
    
            
            
            
        
                
            
                
            </defs>
    <path
   d="m 22.005513,9.6513066 c 0,0.6704744 -0.12245,1.2742874 -0.367352,1.8104744 -0.244901,0.536186 -0.621257,0.993152 -1.129068,1.369932 -0.506909,0.377745 -1.146174,0.666609 -1.915093,0.866592 -0.769819,0.20095 -1.675594,0.301424 -2.717325,0.301424 -0.232296,0 -0.475397,-0.0058 -0.731103,-0.01546 -0.254806,-0.01063 -0.508711,-0.02415 -0.760815,-0.04154 -0.252105,-0.01739 -0.497006,-0.03864 -0.735605,-0.0628 -0.238599,-0.02415 -0.452887,-0.05314 -0.643766,-0.08792 v -2.199813 c 0.429477,0.08212 0.911177,0.149746 1.445998,0.201916 0.534822,0.05217 1.091252,0.07825 1.670192,0.07825 0.565434,0 1.052536,-0.04927 1.460405,-0.145882 0.408769,-0.09661 0.746409,-0.236694 1.012019,-0.420254 0.26561,-0.183559 0.460991,-0.409627 0.587043,-0.679169 0.126053,-0.270508 0.189079,-0.57483 0.189079,-0.9139319 0,-0.2975592 -0.06483,-0.5671015 -0.194481,-0.809593 C 19.046888,8.6620188 18.848806,8.4562392 18.583196,8.2862053 18.317586,8.1171376 17.979046,7.9857478 17.566675,7.892036 17.155204,7.7983241 16.666302,7.7519512 16.100868,7.7519512 H 14.619754 V 5.8216806 h 1.358663 c 0.53122,0 0.972403,-0.054102 1.322648,-0.1613389 0.351145,-0.1072373 0.630261,-0.2502203 0.838247,-0.4299152 0.207986,-0.1806609 0.355647,-0.3932032 0.443884,-0.638593 0.08914,-0.2453898 0.133255,-0.5033388 0.133255,-0.7728811 0,-0.5535761 -0.177373,-0.9738303 -0.53122,-1.2617285 -0.353847,-0.2869321 -0.902174,-0.4299151 -1.644981,-0.4299151 -0.53122,0 -1.055237,0.051203 -1.572952,0.1555423 -0.517714,0.1033729 -1.052536,0.2415254 -1.603564,0.4144575 V 0.56995329 C 13.669861,0.46658044 13.962482,0.37963131 14.241598,0.31103811 14.520713,0.24147881 14.800729,0.18254662 15.079845,0.13424155 15.35896,0.08593648 15.641677,0.05115683 15.927096,0.0308687 16.213414,0.00961447 16.509637,-4.654774e-5 16.815764,-4.654774e-5 c 0.735604,0 1.381172,0.07922031774 1.936702,0.23862704774 0.55463,0.15844064 1.021023,0.38547447 1.399179,0.6791693 0.378157,0.2946609 0.662675,0.6521185 0.852654,1.0743048 0.190879,0.4221863 0.286318,0.8926777 0.286318,1.4114742 0,0.8231184 -0.185477,1.4887622 -0.55643,1.9978977 -0.371854,0.5081693 -0.890469,0.8975082 -1.558546,1.1670505 0.429478,0.069559 0.817539,0.1883898 1.165083,0.3584236 0.347544,0.1690678 0.645567,0.3874067 0.89407,0.6540507 0.248503,0.2656779 0.439382,0.571932 0.571737,0.9177963 0.133255,0.3458644 0.198982,0.7303727 0.198982,1.152559 z"
   style="fill-rule:nonzero;stroke-width:0.932658;fill:#000000;fill-opacity:1"
   id="path1" /><path
   d="m 2.0050866,20.999512 v -8.999985 h 0.9999992 v 8.150986 L 6.8940829,16.26152 7.7430823,17.110518 3.8540852,20.999512 H 12.005079 V 21.99951 H 3.0050858 c -0.5519996,0 -0.9999992,-0.447999 -0.9999992,-0.999998 z"
   id="path2"
   style="stroke-width:0.999999;fill:#000000;fill-opacity:1" />
</svg>
