<?xml version="1.0" encoding="UTF-8" standalone="no"?>
<svg
   width="100%"
   height="100%"
   viewBox="0 0 24 24"
   version="1.1"
   xml:space="preserve"
   style="fill-rule:evenodd;clip-rule:evenodd;stroke-linejoin:round;stroke-miterlimit:2;"
   id="svg3"
   xmlns="http://www.w3.org/2000/svg"
   xmlns:svg="http://www.w3.org/2000/svg"><defs
   id="defs3">
        
    
            
            
            
        
                
            
                
            </defs>
    <path
   d="m 21.999239,6.9378079 c 0,1.1114448 -0.114995,2.1052866 -0.343159,2.9824893 -0.229076,0.8762388 -0.564021,1.6165598 -1.004833,2.2209618 -0.441725,0.603438 -0.979279,1.064211 -1.612662,1.382317 -0.634296,0.317143 -1.359857,0.476196 -2.176683,0.476196 -0.706396,0 -1.356206,-0.131098 -1.951258,-0.393295 -0.595051,-0.262197 -1.107963,-0.674772 -1.538737,-1.237724 -0.431686,-0.562952 -0.768456,-1.282065 -1.010309,-2.159268 -0.241854,-0.8762388 -0.362325,-1.9259903 -0.362325,-3.1473264 0,-1.1114448 0.115908,-2.1062506 0.347722,-2.9824894 0.231815,-0.8772027 0.566759,-1.6175233 1.004834,-2.2209617 0.438074,-0.6044023 0.977454,-1.06517475 1.618138,-1.38231728 0.639771,-0.3181065 1.365332,-0.47619578479 2.17577,-0.47619578479 0.706396,0 1.356206,0.13109843479 1.951258,0.39329530479 0.595051,0.26219686 1.106138,0.67284346 1.534173,1.23193966 0.428036,0.5590963 0.76298,1.2772458 1.004834,2.1534846 0.241854,0.8772027 0.363237,1.929846 0.363237,3.1588939 z m -7.58873,0.04145 v 0.3884755 c 0,0.1204949 0.0064,0.2429177 0.02008,0.3672684 L 19.233893,4.0690657 C 19.005729,3.3856187 18.70364,2.8805041 18.327626,2.5517941 17.951612,2.224048 17.508974,2.060175 16.9988,2.060175 c -0.365975,0 -0.705483,0.098324 -1.019436,0.2949714 -0.313954,0.1966477 -0.586838,0.4993308 -0.818652,0.9061216 -0.231815,0.4077547 -0.415258,0.918653 -0.549419,1.5326949 -0.133247,0.6150059 -0.200784,1.342795 -0.200784,2.185295 z m 5.176582,0.04145 c 0,-0.117603 -0.0027,-0.2371339 -0.01004,-0.3576288 -0.0064,-0.1204949 -0.0091,-0.2361699 -0.0091,-0.3470252 l -4.775013,3.6456932 c 0.208998,0.6689879 0.503786,1.1663909 0.882538,1.4902809 0.378752,0.324854 0.820477,0.4868 1.32335,0.4868 0.365975,0 0.707308,-0.100252 1.024912,-0.299792 0.316691,-0.200503 0.591401,-0.502222 0.823215,-0.906121 0.231815,-0.403899 0.413433,-0.9147978 0.543943,-1.5326956 0.130509,-0.6178978 0.196221,-1.3447229 0.196221,-2.1795115 z"
   style="fill-rule:nonzero;stroke-width:0.937957;fill:#000000;fill-opacity:1"
   id="path1" /><ellipse
   cx="3.5005348"
   cy="20.499331"
   rx="1.5000013"
   ry="1.4999965"
   id="ellipse1"
   style="stroke-width:0.257248;fill:#000000;fill-opacity:1" />
</svg>
