<?xml version="1.0" encoding="UTF-8" standalone="no"?>
<svg
   width="100%"
   height="100%"
   viewBox="0 0 24 24"
   version="1.1"
   xml:space="preserve"
   style="fill-rule:evenodd;clip-rule:evenodd;stroke-linejoin:round;stroke-miterlimit:2;"
   id="svg5"
   xmlns="http://www.w3.org/2000/svg"
   xmlns:svg="http://www.w3.org/2000/svg"><defs
   id="defs5">
        
    
            
            
            
        
                
                
            
                    
                
                    
                </defs>
    <path
   d="m 24.000638,6.9736142 c 0,1.5954943 -0.283101,2.9323087 -0.848399,4.0113478 -0.566203,1.079039 -1.395608,1.868646 -2.490026,2.369725 l 3.264258,3.645035 h -3.682126 l -2.485503,-3.04175 h -0.213456 c -2.076679,0 -3.672177,-0.603285 -4.785588,-1.808951 -1.112506,-1.205665 -1.66876,-2.9368306 -1.66876,-5.1934963 0,-2.2566656 0.558062,-3.9805954 1.674187,-5.1708847 1.11522,-1.19028941 2.71524,-1.78543409526 4.799155,-1.78543409526 2.083915,0 3.677603,0.60057153526 4.781065,1.79990569526 1.103462,1.1993341 1.655193,2.9241683 1.655193,5.1745026 z m -9.895883,0 c 0,1.514996 0.287624,2.6555393 0.862871,3.4225338 0.575248,0.766995 1.434501,1.150493 2.57776,1.150493 2.294658,0 3.441535,-1.524041 3.441535,-4.5730268 0,-3.0544127 -1.14145,-4.5811669 -3.422541,-4.5811669 -1.144164,0 -2.00613,0.3853064 -2.587709,1.1550149 -0.581578,0.7697084 -0.871916,1.9120605 -0.871916,3.426152 z"
   style="fill-rule:nonzero;stroke-width:0.904476;fill:#000000;fill-opacity:1"
   id="path2" /><path
   d="M 1.9998569,20.999688 V 11.999703 H 2.9998561 V 19.58569 L 5.878854,16.706695 4.4638551,15.292697 9.4138514,14.585699 8.7068519,19.53569 7.292853,18.120693 4.4138551,20.999688 h 7.5859939 v 0.999998 H 2.9998561 c -0.5519996,0 -0.9999992,-0.447999 -0.9999992,-0.999998 z"
   id="path3"
   style="stroke-width:0.999999;fill:#000000;fill-opacity:1" />
                
            
</svg>
