<?xml version="1.0" encoding="UTF-8" standalone="no"?>
<svg
   width="100%"
   height="100%"
   viewBox="0 0 24 24"
   version="1.1"
   xml:space="preserve"
   style="fill-rule:evenodd;clip-rule:evenodd;stroke-linejoin:round;stroke-miterlimit:2;"
   id="svg5"
   xmlns="http://www.w3.org/2000/svg"
   xmlns:svg="http://www.w3.org/2000/svg"><defs
   id="defs5">
        
    
            
            
            
        
                
                
            
                    
                
                    
                </defs>
    <path
   d="m 14.968089,6.2142265 h 0.957227 c 0.938549,0 1.631488,-0.1559579 2.077883,-0.4688076 0.447328,-0.3128497 0.670526,-0.8050042 0.670526,-1.474596 0,-0.6639884 -0.227867,-1.1365316 -0.684534,-1.4176294 C 17.532523,2.5720958 16.825576,2.4320138 15.868349,2.4320138 h -0.90026 z m 0,2.4131452 V 13.999982 H 11.999285 V -7.427873e-4 h 4.079187 c 1.902314,0 3.310605,0.3464693673 4.223005,1.0394080873 0.913335,0.6929387 1.370002,1.7444873 1.370002,3.1555795 0,0.822748 -0.226933,1.5558435 -0.679865,2.1974189 -0.453865,0.6415753 -1.095441,1.1440026 -1.924726,1.5082157 2.105899,3.1471746 3.478702,5.1802306 4.117476,6.1001026 H 19.889636 L 16.548214,8.6273717 Z"
   style="fill-rule:nonzero;stroke-width:0.93388;fill:#000000;fill-opacity:1"
   id="path2" /><path
   d="M 1.9998569,20.999688 V 11.999703 H 2.9998561 V 19.58569 L 5.878854,16.706695 4.4638551,15.292697 9.4138514,14.585699 8.7068519,19.53569 7.292853,18.120693 4.4138551,20.999688 h 7.5859939 v 0.999998 H 2.9998561 c -0.5519996,0 -0.9999992,-0.447999 -0.9999992,-0.999998 z"
   id="path3"
   style="stroke-width:0.999999;fill:#000000;fill-opacity:1" />
                
            
</svg>
