<?xml version="1.0" encoding="UTF-8" standalone="no"?>
<svg
   width="100%"
   height="100%"
   viewBox="0 0 24 24"
   version="1.1"
   xml:space="preserve"
   style="fill-rule:evenodd;clip-rule:evenodd;stroke-linejoin:round;stroke-miterlimit:2;"
   id="svg7"
   xmlns="http://www.w3.org/2000/svg"
   xmlns:svg="http://www.w3.org/2000/svg"><defs
   id="defs7">
        
    
            
            
            
        
                
                
                
            <clipPath
   clipPathUnits="userSpaceOnUse"
   id="clipPath7"><rect
     x="1548.0001"
     y="719.00128"
     width="23.999971"
     height="24.000002"
     id="rect7"
     style="stroke-width:0.999999" /></clipPath><clipPath
   clipPathUnits="userSpaceOnUse"
   id="clipPath8"><rect
     x="1548.0001"
     y="719.00128"
     width="23.999971"
     height="24.000002"
     id="rect8"
     style="stroke-width:0.999999" /></clipPath><clipPath
   clipPathUnits="userSpaceOnUse"
   id="clipPath9"><rect
     x="1531.9982"
     y="368.99869"
     width="23.999971"
     height="24.000002"
     id="rect9"
     style="stroke-width:0.999999" /></clipPath></defs>
    <g
   transform="matrix(1.0000021,0,0,0.99999859,-1548.001,-719.00008)"
   id="g4"
   clip-path="url(#clipPath8)">
                    <path
   d="m 1552.06,726.593 -2.42,-2.414 3.54,-3.536 2.41,2.414 0.71,-0.707 c 0.78,-0.78 2.05,-0.78 2.83,0 l 2.53,2.536 1.42,-1.414 1.41,1.414 -10.6,10.606 -1.42,-1.414 1.42,-1.414 -2.54,-2.536 c -0.78,-0.78 -0.78,-2.047 0,-2.828 z"
   style="fill:#ffaa00"
   id="path3" />
                </g><g
   transform="matrix(1.0000021,0,0,0.99999859,-1548.001,-719.00008)"
   id="g5"
   clip-path="url(#clipPath7)"
   style="fill:#000000;fill-opacity:1">
                    <path
   d="m 1567.94,735.407 2.42,2.414 -3.54,3.536 -2.41,-2.414 -0.71,0.707 c -0.78,0.78 -2.05,0.78 -2.83,0 l -2.53,-2.536 -1.42,1.414 -1.41,-1.414 10.6,-10.606 1.42,1.414 -1.42,1.414 2.54,2.536 c 0.78,0.78 0.78,2.047 0,2.828 z"
   id="path4"
   style="fill:#000000;fill-opacity:1" />
                </g>
                
            
</svg>
