<?xml version="1.0" encoding="UTF-8" standalone="no"?>
<svg
   width="100%"
   height="100%"
   viewBox="0 0 24 24"
   version="1.1"
   xml:space="preserve"
   style="fill-rule:evenodd;clip-rule:evenodd;stroke-linejoin:round;stroke-miterlimit:2;"
   id="svg4"
   xmlns="http://www.w3.org/2000/svg"
   xmlns:svg="http://www.w3.org/2000/svg"><defs
   id="defs4">
        
    
            
            
            
            
        </defs>
    <g
   transform="matrix(1.0000021,0,0,0.99999859,-1581.9994,-719.00008)"
   id="g1"
   style="fill:#000000;fill-opacity:1">
                <path
   d="m 1597.66,728.293 1.9,1.904 2.12,-2.122 1.42,1.415 -1.42,1.414 2.54,2.535 c 0.78,0.781 0.78,2.048 0,2.829 l -0.71,0.707 2.41,2.414 -3.53,3.536 -2.41,-2.415 -0.71,0.708 c -0.78,0.78 -2.05,0.78 -2.83,0 l -2.54,-2.536 -1.41,1.414 -1.41,-1.414 2.12,-2.121 -1.91,-1.904 1.42,-1.414 1.9,1.903 3.54,-3.535 -1.91,-1.904 z"
   id="path1"
   style="fill:#000000;fill-opacity:1" />
            </g><g
   transform="matrix(1.0000021,0,0,0.99999859,-1581.9994,-719.00008)"
   id="g2">
                <path
   d="m 1585.64,730.414 -2.86,-2.853 c -0.78,-0.781 -0.78,-2.048 0,-2.829 l 0.71,-0.707 -1.41,-1.414 3.53,-3.536 1.42,1.415 0.7,-0.708 c 0.78,-0.78 2.05,-0.78 2.83,0 l 2.85,2.854 z"
   style="fill:#e72727"
   id="path2" />
            </g><g
   transform="matrix(-1.0213768,1.0213746,-0.13278069,-0.13278043,101.75582,-61.043065)"
   id="g3">
                <path
   d="m 88.695,75.324 v 5.325 c 0,2.939 -0.311,5.325 -0.693,5.325 H 71.387 c -0.382,0 -0.692,-2.386 -0.692,-5.325 v -5.325 c 0,-2.94 0.31,-5.326 0.692,-5.326 h 16.615 c 0.382,0 0.693,2.386 0.693,5.326 z"
   style="fill:#e72727"
   id="path3" />
            </g>
</svg>
