<?xml version="1.0" encoding="UTF-8" standalone="no"?>
<svg
   width="100%"
   height="100%"
   viewBox="0 0 24 24"
   version="1.1"
   xml:space="preserve"
   style="fill-rule:evenodd;clip-rule:evenodd;stroke-linejoin:round;stroke-miterlimit:2;"
   id="svg2"
   sodipodi:docname="icon_connection_on.svg"
   inkscape:version="1.4 (e7c3feb100, 2024-10-09)"
   xmlns:inkscape="http://www.inkscape.org/namespaces/inkscape"
   xmlns:sodipodi="http://sodipodi.sourceforge.net/DTD/sodipodi-0.dtd"
   xmlns="http://www.w3.org/2000/svg"
   xmlns:svg="http://www.w3.org/2000/svg"><defs
   id="defs2">
        
    
            
            
        
                
            </defs><sodipodi:namedview
   id="namedview2"
   pagecolor="#ffffff"
   bordercolor="#000000"
   borderopacity="0.25"
   inkscape:showpageshadow="2"
   inkscape:pageopacity="0.0"
   inkscape:pagecheckerboard="0"
   inkscape:deskcolor="#d1d1d1"
   inkscape:zoom="46.541667"
   inkscape:cx="12"
   inkscape:cy="12"
   inkscape:window-width="2560"
   inkscape:window-height="1368"
   inkscape:window-x="0"
   inkscape:window-y="0"
   inkscape:window-maximized="1"
   inkscape:current-layer="svg2" />
    <path fill="#000000"
   d="M 4.0622593,7.5918955 1.6422542,5.1778989 5.1822617,1.6419039 7.5922667,4.0559005 8.3022682,3.3489015 c 0.7800017,-0.7799989 2.0500048,-0.7799989 2.8300058,0 l 2.530005,2.5359964 1.420003,-1.413998 1.410003,1.413998 L 5.8922632,16.490883 4.4722602,15.076885 5.8922632,13.662887 3.3522578,11.126891 c -0.7800016,-0.779999 -0.7800016,-2.0469976 0,-2.8279965 z m 15.8800337,8.8139875 2.420005,2.413997 -3.540008,3.535995 -2.410005,-2.413997 -0.710001,0.706999 c -0.780002,0.779999 -2.050005,0.779999 -2.830006,0 L 10.342273,18.112881 8.9222695,19.526879 7.5122666,18.112881 18.112289,7.5068956 l 1.420003,1.413998 -1.420003,1.4139984 2.540005,2.535996 c 0.780002,0.779999 0.780002,2.046997 0,2.827996 z"
   id="path1" />
</svg>
