<?xml version="1.0" encoding="UTF-8" standalone="no"?>
<svg
   width="100%"
   height="100%"
   viewBox="0 0 24 24"
   version="1.1"
   xml:space="preserve"
   style="fill-rule:evenodd;clip-rule:evenodd;stroke-linejoin:round;stroke-miterlimit:2;"
   id="svg2"
   xmlns="http://www.w3.org/2000/svg"
   xmlns:svg="http://www.w3.org/2000/svg"><defs
   id="defs2">
        
    
            
            
        
                
            </defs>
    <path
   d="M 5.0406074,21.066873 V 19.066885 H 6.6405871 L 8.6155955,10.49189 C 8.7489321,10.058556 8.994764,9.7126876 9.3530962,9.4543728 9.7114333,9.196058 10.107269,9.0668563 10.540603,9.0668563 h 3.000004 c 0.433334,0 0.829169,0.1292017 1.187501,0.3875165 0.358332,0.2583148 0.604169,0.6041832 0.737501,1.0375172 l 1.975013,8.574995 h 1.59998 v 1.999988 z m 3.6999912,-1.999988 h 6.6000124 l -1.800004,-7.999996 h -3.000004 z m 3.5172444,-3.451722 -0.52724,-3.54828 h 1.182761 l 0.52724,3.54828 z M 11.0406,7.0668683 V 2.0668539 h 2.000004 v 5.0000144 z m 5.950011,2.475014 -1.425,-1.4250336 3.549998,-3.5249944 1.399994,1.4000182 z m 1.050016,4.5249887 V 12.066883 H 23.0406 v 1.999988 z M 7.0905783,9.5418823 3.5656061,5.9918725 4.9656006,4.5918543 8.515598,8.1168487 Z M 1.0406089,14.066871 v -1.999988 h 4.9999735 v 1.999988 z"
   id="path1"
   style="stroke-width:0.0147845;fill:#000000;fill-opacity:1" />
</svg>
