<?xml version="1.0" encoding="UTF-8" standalone="no"?>
<svg
   width="100%"
   height="100%"
   viewBox="0 0 24 24"
   version="1.1"
   xml:space="preserve"
   style="fill-rule:evenodd;clip-rule:evenodd;stroke-linejoin:round;stroke-miterlimit:2;"
   id="svg4"
   xmlns="http://www.w3.org/2000/svg"
   xmlns:svg="http://www.w3.org/2000/svg"><defs
   id="defs4">
        
    
            
            
            
            
        
                
            
                
            
                
            </defs>
    <path
   d="m 12.0004,10.500071 c 2.499993,0 4.624987,-0.391674 6.374982,-1.1749987 1.749995,-0.7833243 2.624993,-1.7249986 2.624993,-2.8249977 0,-1.0999991 -0.874998,-2.0416734 -2.624993,-2.8249977 C 16.625387,2.8917525 14.500393,2.5000778 12.0004,2.5000778 c -2.4999929,0 -4.6249869,0.3916747 -6.374982,1.1749991 -1.7499951,0.7833243 -2.6249927,1.7249986 -2.6249927,2.8249977 0,1.0999991 0.8749976,2.0416734 2.6249927,2.8249977 1.7499951,0.7833247 3.8749891,1.1749987 6.374982,1.1749987 z"
   id="path1"
   style="stroke-width:0.025;fill:#000000;fill-opacity:1" /><path
   d="m 12.0004,18.500082 c 0.683323,0 1.537496,-0.07082 2.562493,-0.2125 1.024997,-0.141675 2.012494,-0.370825 2.962492,-0.687499 0.949997,-0.316675 1.76667,-0.729175 2.449993,-1.237499 0.683323,-0.508325 1.024997,-1.129175 1.024997,-1.862499 v 2.999998 c 0,0.733324 -0.341674,1.354174 -1.024997,1.862498 -0.683323,0.508325 -1.499996,0.920824 -2.449993,1.237499 -0.949998,0.316675 -1.937495,0.545825 -2.962492,0.6875 -1.024997,0.141674 -1.87917,0.212499 -2.562493,0.212499 -0.683323,0 -1.537496,-0.07082 -2.5624927,-0.212499 C 8.4129102,21.145905 7.425413,20.916755 6.4754156,20.60008 5.5254183,20.283405 4.7087456,19.870906 4.0254225,19.362581 3.3420994,18.854257 3.0004253,18.233407 3.0004253,17.500083 v -2.999998 c 0,0.733324 0.3416741,1.354174 1.0249972,1.862499 0.6833231,0.508324 1.4999958,0.920824 2.4499931,1.237499 0.9499974,0.316674 1.9374946,0.545824 2.9624917,0.687499 1.0249967,0.141675 1.8791697,0.2125 2.5624927,0.2125 z"
   id="path2"
   style="stroke-width:0.025;fill:#000000;fill-opacity:1" /><path
   d="m 12.0004,13.000098 c 0.683323,0 1.537496,-0.07082 2.562493,-0.2125 1.024997,-0.141675 2.012494,-0.370825 2.962492,-0.687499 0.949997,-0.316675 1.76667,-0.729175 2.449993,-1.237499 0.683323,-0.508325 1.024997,-1.1291746 1.024997,-1.862499 v 2.999998 c 0,0.733324 -0.341674,1.354174 -1.024997,1.862498 -0.683323,0.508325 -1.499996,0.920824 -2.449993,1.237499 -0.949998,0.316675 -1.937495,0.545825 -2.962492,0.6875 -1.024997,0.141674 -1.87917,0.212499 -2.562493,0.212499 -0.683323,0 -1.537496,-0.07083 -2.5624927,-0.212499 C 8.4129102,15.645921 7.425413,15.416771 6.4754156,15.100096 5.5254183,14.783421 4.7087456,14.370922 4.0254225,13.862597 3.3420994,13.354273 3.0004253,12.733423 3.0004253,12.000099 V 9.000101 c 0,0.7333244 0.3416741,1.354174 1.0249972,1.862499 0.6833231,0.508324 1.4999958,0.920824 2.4499931,1.237499 0.9499974,0.316674 1.9374946,0.545824 2.9624917,0.687499 1.0249967,0.141675 1.8791697,0.2125 2.5624927,0.2125 z"
   id="path3"
   style="stroke-width:0.025;fill:#000000;fill-opacity:1" />
</svg>
