<?xml version="1.0" encoding="UTF-8" standalone="no"?>
<svg
   width="100%"
   height="100%"
   viewBox="0 0 24 24"
   version="1.1"
   xml:space="preserve"
   style="fill-rule:evenodd;clip-rule:evenodd;stroke-linejoin:round;stroke-miterlimit:2;"
   id="svg4"
   xmlns="http://www.w3.org/2000/svg"
   xmlns:svg="http://www.w3.org/2000/svg"><defs
   id="defs4">
        
    
            
            <clipPath
   id="_clip1">
                <rect
   x="135.88699"
   y="-146.72501"
   width="97.112999"
   height="69.330002"
   id="rect2" />
            </clipPath>
            
        </defs>
    <g
   clip-path="url(#_clip1)"
   id="g3"
   transform="matrix(0.247083,0,0,0.346098,-33.57,50.781)"
   style="fill:#000000;fill-opacity:1">
                <g
   transform="matrix(0.101181,0,0,0.0722339,131.982,-74.2972)"
   id="g2"
   style="fill:#000000;fill-opacity:1">
                    <path
   d="m 549.27765,-202.67533 h -390.9 c -22,0 -40.833,-7.833 -56.5,-23.5 -15.667,-15.667 -23.5,-34.5 -23.5,-56.5 v -480 c 0,-22 7.833,-40.833 23.5,-56.5 15.667,-15.667 34.5,-23.5 56.5,-23.5 h 640 c 22,0 40.833,7.833 56.5,23.5 15.667,15.667 23.5,34.5 23.5,56.5 v 159.263 c -24.544,-15.746 -51.21,-26.756 -80,-33.03 v -126.233 h -640 v 480 h 338.545 c 11.811,29.195 29.262,55.862 52.355,80 z m 393.09874,79.99994 -108,-108 c -14.667,8.667 -30,15.5 -46,20.5 -16,5 -32.667,7.5 -50,7.5 -50,0 -92.5,-17.5 -127.5,-52.5 -35,-35 -52.5,-77.5 -52.5,-127.5 0,-50 17.5,-92.5 52.5,-127.5 35,-35 77.5,-52.5 127.5,-52.5 50,0 92.5,17.5 127.5,52.5 35,35 52.5,77.5 52.5,127.5 0,17.333 -2.5,34 -7.5,50 -5,16 -11.833,31.333 -20.5,46 l 108,108 z m -204,-160 c 28,0 51.667,-9.667 71,-29 19.333,-19.333 29,-43 29,-71 0,-28 -9.667,-51.667 -29,-71 -19.333,-19.333 -43,-29 -71,-29 -28,0 -51.667,9.667 -71,29 -19.333,19.333 -29,43 -29,71 0,28 9.667,51.667 29,71 19.333,19.333 43,29 71,29 z M 238.37765,-562.67533 v -80 h 280 v 80 z m 0,160 v -80 h 200 v 80 z"
   id="path2"
   style="fill:#000000;fill-opacity:1" />
                </g>
            </g>
</svg>
