<?xml version="1.0" encoding="UTF-8" standalone="no"?>
<svg
   width="100%"
   height="100%"
   viewBox="0 0 24 24"
   version="1.1"
   xml:space="preserve"
   style="fill-rule:evenodd;clip-rule:evenodd;stroke-linejoin:round;stroke-miterlimit:2;"
   id="svg2"
   xmlns="http://www.w3.org/2000/svg"
   xmlns:svg="http://www.w3.org/2000/svg"><defs
   id="defs2">
        
    
            
            
        
                
            </defs>
    <path
   d="M 1.0404578,21.066906 V 19.066905 H 23.040555 v 2.000001 z M 4.040471,18.066905 c -0.5500024,0 -1.0208295,-0.195825 -1.4125062,-0.587501 -0.3916767,-0.391675 -0.5875026,-0.8625 -0.5875026,-1.4125 V 5.0668994 c 0,-0.5500002 0.1958259,-1.0208254 0.5875026,-1.4125006 C 3.0196415,3.2627237 3.4904686,3.0668986 4.040471,3.0668986 h 16.00007 c 0.550003,0 1.02083,0.1958251 1.412507,0.5875002 0.391676,0.3916752 0.587502,0.8625004 0.587502,1.4125006 V 16.066904 c 0,0.55 -0.195826,1.020825 -0.587502,1.4125 -0.391677,0.391676 -0.862504,0.587501 -1.412507,0.587501 z m 0,-2.000001 h 16.00007 V 5.0668994 H 4.040471 Z m 0,0 V 5.0668994 Z m 5.4000238,-1.500001 2.6000112,-2.600001 2.600012,2.600001 1.400006,-1.4 L 13.440512,10.566902 16.040524,7.9669006 14.640518,6.5669 12.040506,9.166901 9.4404948,6.5669 8.0404886,7.9669006 10.6405,10.566902 8.0404886,13.166903 Z"
   style="fill-rule:nonzero;stroke-width:0.0250001;fill:#000000;fill-opacity:1"
   id="path1" />
</svg>
