<?xml version="1.0" encoding="UTF-8" standalone="no"?>
<svg
   width="100%"
   height="100%"
   viewBox="0 0 24 24"
   version="1.1"
   xml:space="preserve"
   style="fill-rule:evenodd;clip-rule:evenodd;stroke-linejoin:round;stroke-miterlimit:2;"
   id="svg3"
   xmlns="http://www.w3.org/2000/svg"
   xmlns:svg="http://www.w3.org/2000/svg"><defs
   id="defs3">
        
    
            
            
            
        
                
            
                
            </defs>
    <path
   d="M 7.0000984,20.99466 H 6.000094 c -0.5500024,0 -1.0208295,-0.195825 -1.4125062,-0.5875 C 4.1959111,20.015485 4.0000852,19.54466 4.0000852,18.994659 V 2.994653 c 0,-0.5500002 0.1958259,-1.0208254 0.5875026,-1.4125006 C 4.9792645,1.1904773 5.4500916,0.9946522 6.000094,0.9946522 h 8.000035 l 6.000027,6.0000024 V 18.994659 c 0,0.550001 -0.195826,1.020826 -0.587503,1.412501 -0.391677,0.391675 -0.862504,0.5875 -1.412506,0.5875 h -4.000018 v -2.000001 h 4.000018 V 7.994655 H 13.000125 V 2.994653 H 6.000094 v 16.000006 h 1.0000044 z"
   id="path1"
   style="stroke-width:0.0250001;fill:#000000;fill-opacity:1" /><path
   d="M 8.0000937,14.921222 C 7.381616,14.289821 7.0000893,13.425471 7.0000893,12.472696 c 0,-1.931801 1.5683069,-3.5000518 3.5000157,-3.5000518 1.931708,0 3.500015,1.5682508 3.500015,3.5000518 0,0.952775 -0.381527,1.817125 -1.000004,2.448526 V 23.99465 L 10.500105,21.994649 8.0000937,23.99465 Z M 10.500105,9.9726446 c -1.3798064,0 -2.5000113,1.1202754 -2.5000113,2.5000514 0,1.3798 1.1202049,2.500001 2.5000113,2.500001 1.379806,0 2.500011,-1.120201 2.500011,-2.500001 0,-1.379776 -1.120205,-2.5000514 -2.500011,-2.5000514 z M 10.146553,13.886921 8.7323219,12.472696 9.43945,11.765595 l 0.707103,0.707101 1.414206,-1.414201 0.707128,0.7071 z"
   id="path2"
   style="stroke-width:0.0250001;fill:#000000;fill-opacity:1" />
</svg>
