<?xml version="1.0" encoding="UTF-8" standalone="no"?>
<svg
   width="100%"
   height="100%"
   viewBox="0 0 24 24"
   version="1.1"
   xml:space="preserve"
   style="fill-rule:evenodd;clip-rule:evenodd;stroke-linejoin:round;stroke-miterlimit:2;"
   id="svg3"
   xmlns="http://www.w3.org/2000/svg"
   xmlns:svg="http://www.w3.org/2000/svg"><defs
   id="defs3">
        
    
            
            
            
        
                
            
                
            </defs>
    <path
   fill="#000000"
   d="m 4.1988084,22.60007 5.7749838,-5.774995 v 2.174998 c 0,0.283325 0.095825,0.520825 0.2874988,0.712499 0.191675,0.191675 0.429174,0.2875 0.712498,0.2875 h 1.999995 c 0.283324,0 0.520823,-0.09582 0.712498,-0.2875 0.191674,-0.191674 0.287499,-0.429174 0.287499,-0.712499 V 12.825078 L 22.573757,4.2250848 21.173761,2.800086 2.7738124,21.200071 Z"
   id="path1"
   style="stroke-width:0.025" /><path
   fill="#000000"
   d="M 9.1737944,11.975079 10.59879,10.55008 7.0238005,6.0000834 H 15.148778 L 17.148772,4.000085 H 4.9738062 c -0.4166738,0 -0.716673,0.1833249 -0.8999975,0.5499996 -0.1833245,0.3666747 -0.1499996,0.7166744 0.1,1.0499991 z"
   id="path2"
   style="stroke-width:0.025" />
</svg>
