<?xml version="1.0" encoding="UTF-8" standalone="no"?>
<svg
   width="100%"
   height="100%"
   viewBox="0 0 24 24"
   version="1.1"
   xml:space="preserve"
   style="fill-rule:evenodd;clip-rule:evenodd;stroke-linejoin:round;stroke-miterlimit:2;"
   id="svg2"
   xmlns="http://www.w3.org/2000/svg"
   xmlns:svg="http://www.w3.org/2000/svg"><defs
   id="defs2">
        
    
            
            
        
                
            </defs>
    <path
   fill="#000000"
   d="m 10.994213,20.000072 c -0.283324,0 -0.520823,-0.09582 -0.712498,-0.2875 C 10.090041,19.520898 9.9942159,19.283398 9.9942159,19.000073 V 13.000078 L 4.1942321,5.6000837 C 3.9442328,5.266759 3.906733,4.9167593 4.0817325,4.5500846 4.256732,4.1834099 4.5609061,4.000085 4.9942299,4.000085 H 18.994191 c 0.433323,0 0.737498,0.1833249 0.912497,0.5499996 0.175,0.3666747 0.1375,0.7166744 -0.1125,1.0499991 l -5.799983,7.3999943 v 5.999995 c 0,0.283325 -0.09582,0.520825 -0.287499,0.712499 -0.191675,0.191675 -0.429174,0.2875 -0.712498,0.2875 z M 11.99421,12.300078 16.944196,6.0000834 H 7.0442242 Z"
   id="path1"
   style="stroke-width:0.025" />
</svg>
