<?xml version="1.0" encoding="UTF-8" standalone="no"?>
<svg
   width="100%"
   height="100%"
   viewBox="0 0 24 24"
   version="1.1"
   xml:space="preserve"
   style="fill-rule:evenodd;clip-rule:evenodd;stroke-linejoin:round;stroke-miterlimit:2;"
   id="svg2"
   xmlns="http://www.w3.org/2000/svg"
   xmlns:svg="http://www.w3.org/2000/svg"><defs
   id="defs2">
        
    
            
            
        
                
            </defs>
    <path
   d="M 4.0003852,7.9996536 V 17.999658 L 6.4003958,9.9996544 H 23.500471 L 20.92546,18.574658 c -0.133326,0.433325 -0.379177,0.779175 -0.737504,1.0375 -0.358326,0.258325 -0.754178,0.3875 -1.187505,0.3875 H 4.0003852 c -0.5500024,0 -1.0208295,-0.195825 -1.4125062,-0.5875 -0.3916767,-0.391675 -0.5875026,-0.8625 -0.5875026,-1.4125 V 5.9996528 c 0,-0.5500002 0.1958259,-1.0208254 0.5875026,-1.4125006 C 2.9795557,4.1954771 3.4503828,3.999652 4.0003852,3.999652 h 6.0000268 l 2.000008,2.0000008 h 8.000036 c 0.550002,0 1.020829,0.1958251 1.412506,0.5875002 0.391677,0.3916752 0.587502,0.8625004 0.587502,1.4125006 z M 7.9004024,11.999655 6.1003945,17.999658 H 19.000451 l 1.800008,-6.000003 z"
   id="path1"
   style="stroke-width:0.0250001;fill:#000000;fill-opacity:1" />
</svg>
