<?xml version="1.0" encoding="UTF-8" standalone="no"?>
<svg
   width="100%"
   height="100%"
   viewBox="0 0 24 24"
   version="1.1"
   xml:space="preserve"
   style="fill-rule:evenodd;clip-rule:evenodd;stroke-linejoin:round;stroke-miterlimit:2;"
   id="svg2"
   xmlns="http://www.w3.org/2000/svg"
   xmlns:svg="http://www.w3.org/2000/svg"><defs
   id="defs2">
        
    
            
            
        
                
            </defs>
    <path
   d="m 11.973698,22.000071 c -1.383321,0 -2.6833174,-0.2625 -3.899989,-0.7875 C 6.8570374,20.687572 5.7987154,19.975072 4.8987179,19.075073 3.9987204,18.175074 3.2862224,17.11675 2.7612239,15.900075 2.2362254,14.683401 1.9737261,13.383402 1.9737261,12.000079 c 0,-1.383324 0.2624993,-2.6833233 0.7874978,-3.8999973 C 3.2862224,6.8834077 3.9987204,5.8250835 4.8987179,4.9250843 5.7987154,4.025085 6.8570374,3.3125855 8.073709,2.787586 9.2903806,2.2625864 10.590377,2.0000866 11.973698,2.0000866 c 1.383321,0 2.683318,0.2624998 3.899989,0.7874994 1.216672,0.5249995 2.274994,1.237499 3.174991,2.1374983 0.899998,0.8999992 1.612496,1.9583234 2.137494,3.1749974 0.524999,1.216674 0.787498,2.5166733 0.787498,3.8999973 0,1.383323 -0.262499,2.683322 -0.787498,3.899996 -0.524998,1.216675 -1.237496,2.274999 -2.137494,3.174998 -0.899997,0.899999 -1.958319,1.612499 -3.174991,2.137498 -1.216671,0.525 -2.516668,0.7875 -3.899989,0.7875 z m 0,-1.999999 c 1.102022,0 2.138369,-0.2056 3.107591,-0.623824 0.977773,-0.421925 1.829895,-0.9921 2.553168,-1.715399 0.723298,-0.723274 1.293472,-1.575399 1.715395,-2.553173 0.418224,-0.969224 0.623824,-2.005573 0.623824,-3.107597 0,-1.102025 -0.2056,-2.1383737 -0.623824,-3.1075979 C 18.927929,7.9147069 18.357755,7.0625825 17.634457,6.3393081 16.911184,5.6160087 16.059062,5.0458342 15.081289,4.6239095 14.112067,4.2056848 13.07572,4.000085 11.973698,4.000085 c -1.102022,0 -2.1383689,0.2055998 -3.1075912,0.6238245 C 7.8883345,5.0458342 7.0362119,5.6160087 6.312939,6.3393081 5.589641,7.0625825 5.0194676,7.9147069 4.5975438,8.8924811 4.1793199,9.8617053 3.9737205,10.898054 3.9737205,12.000079 c 0,1.102024 0.2055994,2.138373 0.6238233,3.107597 0.4219238,0.977774 0.9920972,1.829899 1.7153952,2.553173 0.7232729,0.723299 1.5753955,1.293474 2.5531678,1.715399 0.9692223,0.418224 2.0055692,0.623824 3.1075912,0.623824 z m -0.05,-1.999998 c -0.349999,0 -0.645823,-0.120825 -0.887497,-0.3625 -0.241675,-0.241675 -0.362499,-0.537499 -0.362499,-0.887499 0,-0.35 0.120824,-0.645825 0.362499,-0.887499 0.241674,-0.241675 0.537498,-0.3625 0.887497,-0.3625 0.349999,0 0.645823,0.120825 0.887498,0.3625 0.241674,0.241674 0.362499,0.537499 0.362499,0.887499 0,0.35 -0.120825,0.645824 -0.362499,0.887499 -0.241675,0.241675 -0.537499,0.3625 -0.887498,0.3625 z m -0.899997,-3.849997 c 0,-0.883324 0.08332,-1.491674 0.249999,-1.824999 0.166675,-0.333324 0.616673,-0.824999 1.349996,-1.474998 0.299999,-0.25 0.549999,-0.520825 0.749998,-0.8125 0.2,-0.2916746 0.299999,-0.6041743 0.299999,-0.9374991 0,-0.3499997 -0.133324,-0.6708244 -0.399999,-0.9624992 C 13.00702,7.8459069 12.607021,7.700082 12.073698,7.700082 c -0.599998,0 -1.045822,0.1749999 -1.337496,0.5249996 -0.291675,0.3499997 -0.479174,0.6749995 -0.562499,0.9749992 L 8.5237078,8.5500814 C 8.7570321,7.8500819 9.169531,7.2500824 9.7612043,6.7500828 10.352878,6.2500832 11.1237,6.0000834 12.073698,6.0000834 c 0.933322,0 1.74167,0.2499998 2.424993,0.7499994 0.683323,0.4999996 1.024997,1.216674 1.024997,2.1499983 0,0.5499995 -0.124999,1.0208242 -0.374999,1.4124989 -0.249999,0.391675 -0.591673,0.804174 -1.024997,1.237499 -0.583323,0.55 -0.937497,0.983324 -1.062497,1.299999 -0.125,0.316675 -0.187499,0.749999 -0.187499,1.299999 z"
   id="path1"
   style="stroke-width:0.025;fill:#000000;fill-opacity:1" />
</svg>
