<?xml version="1.0" encoding="UTF-8" standalone="no"?>
<svg
   width="100%"
   height="100%"
   viewBox="0 0 24 24"
   version="1.1"
   xml:space="preserve"
   style="fill-rule:evenodd;clip-rule:evenodd;stroke-linejoin:round;stroke-miterlimit:2;"
   id="svg2"
   xmlns="http://www.w3.org/2000/svg"
   xmlns:svg="http://www.w3.org/2000/svg"><defs
   id="defs2">
        
    
            
            
        
                
            </defs>
    <path
   d="M 10.966701,17.000075 H 6.9667121 c -1.3833211,0 -2.5624928,-0.4875 -3.5374901,-1.462499 -0.9749973,-0.974999 -1.4624959,-2.154174 -1.4624959,-3.537497 0,-1.383324 0.4874986,-2.5624984 1.4624959,-3.5374976 C 4.4042193,7.4875822 5.583391,7.0000826 6.9667121,7.0000826 H 10.966701 V 9.000081 H 6.9667121 c -0.8333227,0 -1.5416707,0.2916748 -2.124994,0.8749993 -0.5833234,0.5833247 -0.8749976,1.2916737 -0.8749976,2.1249987 0,0.833324 0.2916742,1.541673 0.8749976,2.124998 0.5833233,0.583324 1.2916713,0.874999 2.124994,0.874999 H 10.966701 Z M 7.9667093,13.000078 v -1.999999 h 7.9999777 v 1.999999 z m 4.9999857,3.999997 v -1.999999 h 3.999989 c 0.833323,0 1.541671,-0.291675 2.124994,-0.874999 0.583324,-0.583325 0.874998,-1.291674 0.874998,-2.124998 0,-0.833325 -0.291674,-1.541674 -0.874998,-2.1249987 C 18.508355,9.2917558 17.800007,9.000081 16.966684,9.000081 H 12.966695 V 7.0000826 h 3.999989 c 1.383321,0 2.562493,0.4874996 3.53749,1.4624988 0.974997,0.9749992 1.462496,2.1541736 1.462496,3.5374976 0,1.383323 -0.487499,2.562498 -1.462496,3.537497 -0.974997,0.974999 -2.154169,1.462499 -3.53749,1.462499 z"
   style="fill-rule:nonzero;stroke-width:0.025;fill:#000000;fill-opacity:1"
   id="path1" />
</svg>
