<?xml version="1.0" encoding="UTF-8" standalone="no"?>
<svg
   width="100%"
   height="100%"
   viewBox="0 0 24 24"
   version="1.1"
   xml:space="preserve"
   style="fill-rule:evenodd;clip-rule:evenodd;stroke-linejoin:round;stroke-miterlimit:2;"
   id="svg2"
   xmlns="http://www.w3.org/2000/svg"
   xmlns:svg="http://www.w3.org/2000/svg"><defs
   id="defs2">
        
    
            
            
        
                
            </defs>
    <path
   d="m 5.0404754,21.066906 c -0.5500024,0 -1.0208295,-0.195825 -1.4125062,-0.5875 C 3.2362925,20.08773 3.0404666,19.616905 3.0404666,19.066905 V 5.0668994 c 0,-0.5500002 0.1958259,-1.0208254 0.5875026,-1.4125006 C 4.0196459,3.2627237 4.490473,3.0668986 5.0404754,3.0668986 H 19.040537 c 0.550002,0 1.02083,0.1958251 1.412506,0.5875002 0.391677,0.3916752 0.587503,0.8625004 0.587503,1.4125006 V 19.066905 c 0,0.55 -0.195826,1.020825 -0.587503,1.412501 -0.391676,0.391675 -0.862504,0.5875 -1.412506,0.5875 z m 0,-2.000001 H 19.040537 V 5.0668994 H 5.0404754 Z m 5.0000216,-6.000002 v -2.000001 h 7.000031 v 2.000001 z M 8.0404886,9.066901 C 7.7571624,9.066901 7.5196613,8.971076 7.3279855,8.7794009 7.1363096,8.5877258 7.0404842,8.3502257 7.0404842,8.0669006 c 0,-0.2833251 0.095825,-0.5208252 0.2875013,-0.7125003 0.1916758,-0.1916751 0.4291769,-0.2875001 0.7125031,-0.2875001 0.2833263,0 0.5208273,0.095825 0.7125031,0.2875001 0.1916759,0.1916751 0.2875013,0.4291752 0.2875013,0.7125003 0,0.2833251 -0.095825,0.5208252 -0.2875013,0.7125003 C 8.5613159,8.971076 8.3238149,9.066901 8.0404886,9.066901 Z m 0,8.000003 c -0.2833262,0 -0.5208273,-0.09583 -0.7125031,-0.2875 -0.1916759,-0.191675 -0.2875013,-0.429175 -0.2875013,-0.7125 0,-0.283325 0.095825,-0.520825 0.2875013,-0.7125 0.1916758,-0.191676 0.4291769,-0.287501 0.7125031,-0.287501 0.2833263,0 0.5208273,0.09582 0.7125031,0.287501 0.1916759,0.191675 0.2875013,0.429175 0.2875013,0.7125 0,0.283325 -0.095825,0.520825 -0.2875013,0.7125 -0.1916758,0.191675 -0.4291768,0.2875 -0.7125031,0.2875 z M 10.040497,9.066901 V 7.0669002 h 7.000031 V 9.066901 Z m 0,8.000003 v -2.000001 h 7.000031 v 2.000001 z M 8.0404886,13.066903 c -0.2833262,0 -0.5208273,-0.09582 -0.7125031,-0.287501 -0.1916759,-0.191675 -0.2875013,-0.429175 -0.2875013,-0.7125 0,-0.283325 0.095825,-0.520825 0.2875013,-0.7125 0.1916758,-0.191675 0.4291769,-0.2875 0.7125031,-0.2875 0.2833263,0 0.5208273,0.09582 0.7125031,0.2875 0.1916759,0.191675 0.2875013,0.429175 0.2875013,0.7125 0,0.283325 -0.095825,0.520825 -0.2875013,0.7125 -0.1916758,0.191676 -0.4291768,0.287501 -0.7125031,0.287501 z"
   id="path1"
   style="stroke-width:0.0250001;fill:#000000;fill-opacity:1" />
</svg>
