<?xml version="1.0" encoding="UTF-8" standalone="no"?>
<svg
   width="100%"
   height="100%"
   viewBox="0 0 24 24"
   version="1.1"
   xml:space="preserve"
   style="fill-rule:evenodd;clip-rule:evenodd;stroke-linejoin:round;stroke-miterlimit:2;"
   id="svg2"
   xmlns="http://www.w3.org/2000/svg"
   xmlns:svg="http://www.w3.org/2000/svg"><defs
   id="defs2">
        
    
            
            
        
                
            </defs>
    <path
   d="m 5.0404754,19.066905 h 9.0000396 v -5.000002 h 5.000022 V 5.0668994 H 5.0404754 Z m 0,2.000001 c -0.5500024,0 -1.0208295,-0.195825 -1.4125062,-0.5875 C 3.2362925,20.08773 3.0404666,19.616905 3.0404666,19.066905 V 5.0668994 c 0,-0.5500002 0.1958259,-1.0208254 0.5875026,-1.4125006 C 4.0196459,3.2627237 4.490473,3.0668986 5.0404754,3.0668986 H 19.040537 c 0.550002,0 1.02083,0.1958251 1.412506,0.5875002 0.391677,0.3916752 0.587503,0.8625004 0.587503,1.4125006 V 15.066903 l -6.000027,6.000003 z m 2.0000088,-7.000003 v -2.000001 h 5.0000218 v 2.000001 z m 0,-4.000002 V 8.0669006 H 17.040528 V 10.066901 Z M 5.0404754,19.066905 V 5.0668994 Z"
   style="fill-rule:nonzero;stroke-width:0.0250001;fill:#000000;fill-opacity:1"
   id="path1" />
</svg>
