<?xml version="1.0" encoding="UTF-8" standalone="no"?>
<svg
   width="100%"
   height="100%"
   viewBox="0 0 24 24"
   version="1.1"
   xml:space="preserve"
   style="fill-rule:evenodd;clip-rule:evenodd;stroke-linejoin:round;stroke-miterlimit:2;"
   id="svg3"
   xmlns="http://www.w3.org/2000/svg"
   xmlns:svg="http://www.w3.org/2000/svg"><defs
   id="defs3">
        
    
            
            
            
        
                
            
                
            </defs>
    <path
   d="M 8.0512212,19.007942 H 6.0406115 c -1.6557261,0 -2.9999915,-1.344276 -2.9999915,-2.999993 V 4.0079743 c 0,-1.6557657 1.3442654,-2.9999936 2.9999915,-2.9999936 H 18.040578 c 1.655726,0 2.999991,1.3442279 2.999991,2.9999936 V 16.007949 c 0,1.655717 -1.344265,2.999993 -2.999991,2.999993 h -2.01061 l -3.989373,4.98672 z M 20.040572,4.0079743 c 0,-1.1038438 -0.896151,-1.9999957 -1.999994,-1.9999957 H 6.0406115 c -1.103843,0 -1.9999943,0.8961519 -1.9999943,1.9999957 V 16.007949 c 0,1.103843 0.8961513,1.999995 1.9999943,1.999995 H 18.040578 c 1.103843,0 1.999994,-0.896152 1.999994,-1.999995 z"
   id="path1"
   style="stroke-width:0.0430012;fill:#000000;fill-opacity:1" /><path
   d="m 13.440572,8.9946398 h 3.600016 v 2.0000012 h -3.600016 l 2.600011,2.600001 -1.400006,1.4 -5.0000218,-5.0000018 5.0000218,-5.000002 1.400006,1.4000006 z M 9.0405525,4.9946382 V 14.994642 H 7.0405437 V 4.9946382 Z"
   id="path2"
   style="stroke-width:0.0250001;fill:#000000;fill-opacity:1" />
</svg>
