<?xml version="1.0" encoding="UTF-8" standalone="no"?>
<svg
   width="100%"
   height="100%"
   viewBox="0 0 24 24"
   version="1.1"
   xml:space="preserve"
   style="fill-rule:evenodd;clip-rule:evenodd;stroke-linejoin:round;stroke-miterlimit:2;"
   id="svg4"
   xmlns="http://www.w3.org/2000/svg"
   xmlns:svg="http://www.w3.org/2000/svg"><defs
   id="defs4">
        
    
            
            
            
            
        
                
            
                
            
                
            </defs>
    <path
   d="M 8.0512212,19.007942 H 6.0406115 c -1.6557261,0 -2.9999915,-1.344276 -2.9999915,-2.999993 V 4.0079743 c 0,-1.6557657 1.3442654,-2.9999936 2.9999915,-2.9999936 H 18.040578 c 1.655726,0 2.999991,1.3442279 2.999991,2.9999936 V 16.007949 c 0,1.655717 -1.344265,2.999993 -2.999991,2.999993 h -2.01061 l -3.989373,4.98672 z M 20.040572,4.0079743 c 0,-1.1038438 -0.896151,-1.9999957 -1.999994,-1.9999957 H 6.0406115 c -1.103843,0 -1.9999943,0.8961519 -1.9999943,1.9999957 V 16.007949 c 0,1.103843 0.8961513,1.999995 1.9999943,1.999995 H 18.040578 c 1.103843,0 1.999994,-0.896152 1.999994,-1.999995 z"
   id="path1"
   style="stroke-width:0.0430012;fill:#000000;fill-opacity:1" /><path
   d="M 20.040815,4.0075063 V 16.0074 c 0,1.104647 -0.896,1.999983 -2,1.999983 H 6.0408206 c -1.1039995,0 -1.9999991,-0.895336 -1.9999991,-1.999983 V 4.0075063 c 0,-1.1036457 0.8959996,-1.9999823 1.9999991,-1.9999823 H 18.040815 c 1.104,0 2,0.8963366 2,1.9999823 z"
   style="fill:#68b143;stroke-width:0.943513"
   id="path2" /><path
   d="M 10.64066,14.634488 6.3906306,10.384471 7.7906602,8.9844733 10.64066,11.834464 l 5.650003,-5.6499867 1.40003,1.399998 z"
   style="fill:#e1efd9;stroke-width:0.0275001"
   id="path3" />
</svg>
