<?xml version="1.0" encoding="UTF-8" standalone="no"?>
<svg
   width="100%"
   height="100%"
   viewBox="0 0 24 24"
   version="1.1"
   xml:space="preserve"
   style="fill-rule:evenodd;clip-rule:evenodd;stroke-linejoin:round;stroke-miterlimit:2;"
   id="svg3"
   xmlns="http://www.w3.org/2000/svg"
   xmlns:svg="http://www.w3.org/2000/svg"><defs
   id="defs3">
        
    
            
            
            
        
                
            
                
            </defs>
    <path
   d="M 8.0512212,19.007942 H 6.0406115 c -1.6557261,0 -2.9999915,-1.344276 -2.9999915,-2.999993 V 4.0079743 c 0,-1.6557657 1.3442654,-2.9999936 2.9999915,-2.9999936 H 18.040578 c 1.655726,0 2.999991,1.3442279 2.999991,2.9999936 V 16.007949 c 0,1.655717 -1.344265,2.999993 -2.999991,2.999993 h -2.01061 l -3.989373,4.98672 z M 20.040572,4.0079743 c 0,-1.1038438 -0.896151,-1.9999957 -1.999994,-1.9999957 H 6.0406115 c -1.103843,0 -1.9999943,0.8961519 -1.9999943,1.9999957 V 16.007949 c 0,1.103843 0.8961513,1.999995 1.9999943,1.999995 H 18.040578 c 1.103843,0 1.999994,-0.896152 1.999994,-1.999995 z"
   id="path1"
   style="stroke-width:0.0430012;fill:#000000;fill-opacity:1" /><path
   d="m 12.040616,14.99469 c -1.21668,0 -2.2791849,-0.379176 -3.1875139,-1.137501 -0.908329,-0.758325 -1.4791815,-1.712501 -1.7125076,-2.862501 h 1.5500069 c 0.2166759,0.733325 0.6291777,1.333326 1.2375054,1.800001 0.6083272,0.466675 1.3125062,0.7 2.1125092,0.7 0.966679,0 1.791683,-0.341675 2.475011,-1.025 0.683328,-0.683326 1.025005,-1.508326 1.025005,-2.4750014 0,-0.9666754 -0.341677,-1.7916757 -1.025005,-2.475001 -0.683328,-0.6833253 -1.508332,-1.0250004 -2.475011,-1.0250004 -0.483327,0 -0.933329,0.0875 -1.350006,0.2625001 C 10.273933,6.9321864 9.9072817,7.1780115 9.5906053,7.4946866 H 11.040612 V 8.9946872 H 7.0405941 V 4.9946856 H 8.5406007 V 6.4196862 C 8.9906027,5.986361 9.515605,5.6405109 10.115608,5.3821858 c 0.600002,-0.2583251 1.24168,-0.3875002 1.925008,-0.3875002 1.383331,0 2.562511,0.4875002 3.537516,1.4625006 0.975004,0.9750004 1.462506,2.1541758 1.462506,3.5375014 0,1.3833254 -0.487502,2.5625014 -1.462506,3.5375014 -0.975005,0.975 -2.154185,1.462501 -3.537516,1.462501 z"
   id="path2"
   style="stroke-width:0.0250001;fill:#000000;fill-opacity:1" />
</svg>
