<?xml version="1.0" encoding="UTF-8" standalone="no"?>
<svg
   width="100%"
   height="100%"
   viewBox="0 0 24 24"
   version="1.1"
   xml:space="preserve"
   style="fill-rule:evenodd;clip-rule:evenodd;stroke-linejoin:round;stroke-miterlimit:2;"
   id="svg4"
   xmlns="http://www.w3.org/2000/svg"
   xmlns:svg="http://www.w3.org/2000/svg"><defs
   id="defs4">
        
    
            
            
            
            
        </defs>
    <g
   id="path13"
   transform="matrix(-0.03846143,0,0,0.04807682,30.502081,35.533099)"
   style="fill:#000000;fill-opacity:1">
                <path
   d="M 583.724,-343.724 H 636 c 43.049,0 78,-27.961 78,-62.4 v -249.6 c 0,-34.44 -34.951,-62.4 -78,-62.4 H 324 c -43.049,0 -78,27.96 -78,62.4 v 249.6 c 0,34.439 34.951,62.4 78,62.4 h 52.276 L 480,-240 Z M 272,-655.724 c 0,-22.96 23.3,-41.6 52,-41.6 h 312 c 28.7,0 52,18.64 52,41.6 v 249.6 c 0,22.96 -23.3,41.6 -52,41.6 H 324 c -28.7,0 -52,-18.64 -52,-41.6 z"
   id="path1"
   style="fill:#000000;fill-opacity:1" />
            </g><g
   transform="matrix(0.8888885,0,0,1.0014934,-58.799151,-68.095011)"
   id="g2">
                <path
   d="m 88.695,71.995 v 11.982 c 0,1.103 -1.008,1.997 -2.25,1.997 h -13.5 c -1.242,0 -2.25,-0.894 -2.25,-1.997 V 71.995 c 0,-1.102 1.008,-1.997 2.25,-1.997 h 13.5 c 1.242,0 2.25,0.895 2.25,1.997 z"
   style="fill:#0da600"
   id="path2" />
            </g><g
   transform="matrix(0.02750009,0,0,0.02750001,-1.1593816,23.194636)"
   id="g3">
                <path
   d="m 429.091,-311.278 -154.546,-154.546 50.91,-50.909 103.636,103.636 205.454,-205.454 50.91,50.909 z"
   style="fill:#d0ffcc"
   id="path3" />
            </g>
</svg>
