<?xml version="1.0" encoding="UTF-8" standalone="no"?>
<svg
   width="100%"
   height="100%"
   viewBox="0 0 24 24"
   version="1.1"
   xml:space="preserve"
   style="fill-rule:evenodd;clip-rule:evenodd;stroke-linejoin:round;stroke-miterlimit:2;"
   id="svg6"
   xmlns="http://www.w3.org/2000/svg"
   xmlns:svg="http://www.w3.org/2000/svg"><defs
   id="defs6">
                    
                
                    
                
                    
                
                
                
                
            
            
            
            
                
            
        
        
    </defs>
    <path fill="#000000"
   d="M 9.43278,20.99979 H 2.97366 c -1.10445,0 -2.00001,-0.8952 -2.00001,-1.99978 V 5.00002 c 0,-1.10458 0.89556,-2.00027 2.00001,-2.00027 h 16.00002 c 1.10445,0 2,0.89569 2,2.00027 v 4.00007 h -2 V 5.00002 H 2.97366 v 13.99999 h 5.30445 z"
   id="path2"
   style="display:inline;stroke-width:0.467941" /><rect
   x="3.9736643"
   y="6.0001526"
   width="14.000021"
   height="2.9999259"
   id="rect3"
   style="display:inline;stroke-width:0.467941" /><path fill="#000000"
   d="m 15.97998,24.00104 -0.39,-1.95 c -0.26,-0.108 -0.504,-0.222 -0.731,-0.341 -0.228,-0.119 -0.461,-0.266 -0.699,-0.439 l -1.88501,0.585 -1.3,-2.21 1.495,-1.29999 c -0.043,-0.282 -0.065,-0.563 -0.065,-0.845 0,-0.282 0.022,-0.563 0.065,-0.845 l -1.495,-1.3 1.3,-2.21 1.88501,0.585 c 0.238,-0.173 0.471,-0.32 0.699,-0.439 0.227,-0.119 0.471,-0.233 0.731,-0.341 l 0.39,-1.94999 h 2.60001 l 0.39,1.94999 c 0.26,0.108 0.504,0.222 0.731,0.341 0.228,0.119 0.461,0.266 0.699,0.439 l 1.88501,-0.585 1.3,2.21 -1.49501,1.3 c 0.043,0.282 0.065,0.563 0.065,0.845 0,0.282 -0.022,0.563 -0.065,0.845 l 1.49501,1.29999 -1.3,2.21 -1.88501,-0.585 c -0.238,0.173 -0.471,0.32 -0.699,0.439 -0.227,0.119 -0.471,0.233 -0.731,0.341 l -0.39,1.95 z m 1.30001,-3.9 c 0.715,0 1.327,-0.255 1.836,-0.764 0.509,-0.50899 0.764,-1.12099 0.764,-1.83599 0,-0.715 -0.255,-1.327 -0.764,-1.836 -0.509,-0.509 -1.121,-0.764 -1.836,-0.764 -0.71501,0 -1.32701,0.255 -1.83601,0.764 -0.509,0.509 -0.764,1.121 -0.764,1.836 0,0.715 0.255,1.327 0.764,1.83599 0.509,0.509 1.121,0.764 1.83601,0.764 z"
   id="path3"
   style="stroke-width:1" />
</svg>
