<?xml version="1.0" encoding="UTF-8" standalone="no"?>
<!DOCTYPE svg PUBLIC "-//W3C//DTD SVG 1.1//EN" "http://www.w3.org/Graphics/SVG/1.1/DTD/svg11.dtd">
<svg width="100%" height="100%" viewBox="0 0 24 24" version="1.1" xmlns="http://www.w3.org/2000/svg" xmlns:xlink="http://www.w3.org/1999/xlink" xml:space="preserve" xmlns:serif="http://www.serif.com/" style="fill-rule:evenodd;clip-rule:evenodd;stroke-linejoin:round;stroke-miterlimit:2;">
    <g transform="matrix(1,0,0,1,-310.026,-138)">
        <g id="icon_process_attention" transform="matrix(0.247135,0,0,0.34617,276.443,188.792)">
            <rect x="135.887" y="-146.725" width="97.113" height="69.33" style="fill:none;"/>
            <g transform="matrix(0.106217,0,0,0.0758297,133.355,-75.7771)">
                <path d="M480,-80C425.333,-80 373.667,-90.5 325,-111.5C276.333,-132.5 233.833,-161.167 197.5,-197.5C161.167,-233.833 132.5,-276.333 111.5,-325C90.5,-373.667 80,-425.333 80,-480C80,-535.333 90.5,-587.333 111.5,-636C132.5,-684.667 161.167,-727 197.5,-763C233.833,-799 276.333,-827.5 325,-848.5C373.667,-869.5 425.333,-880 480,-880C535.333,-880 587.333,-869.5 636,-848.5C684.667,-827.5 727,-799 763,-763C799,-727 827.5,-684.667 848.5,-636C869.5,-587.333 880,-535.333 880,-480C880,-425.333 869.5,-373.667 848.5,-325C827.5,-276.333 799,-233.833 763,-197.5C727,-161.167 684.667,-132.5 636,-111.5C587.333,-90.5 535.333,-80 480,-80Z" style="fill:rgb(255,198,24);"/>
            </g>
            <g transform="matrix(0.202319,0,0,0.116066,86.4169,-65.8919)">
                <path d="M484,-124.992C453.933,-124.992 425.517,-132.178 398.75,-146.552C371.983,-160.925 348.608,-180.546 328.625,-205.414C308.642,-230.282 292.875,-259.371 281.325,-292.681C269.775,-325.99 264,-361.353 264,-398.769C264,-436.642 269.775,-472.233 281.325,-505.543C292.875,-538.852 308.642,-567.827 328.625,-592.467C348.608,-617.107 371.983,-636.614 398.75,-650.987C425.517,-665.361 453.933,-672.547 484,-672.547C514.433,-672.547 543.033,-665.361 569.8,-650.987C596.567,-636.614 619.85,-617.107 639.65,-592.467C659.45,-567.827 675.125,-538.852 686.675,-505.543C698.225,-472.233 704,-436.642 704,-398.769C704,-361.353 698.225,-325.99 686.675,-292.681C675.125,-259.371 659.45,-230.282 639.65,-205.414C619.85,-180.546 596.567,-160.925 569.8,-146.552C543.033,-132.178 514.433,-124.992 484,-124.992ZM484,-149.881C511.62,-149.881 537.584,-156.359 561.876,-169.404C586.229,-182.481 607.428,-200.306 625.443,-222.932C643.502,-245.613 657.777,-272.161 668.312,-302.541C678.787,-332.753 684,-364.833 684,-398.769C684,-433.141 678.794,-465.451 668.312,-495.682C657.793,-526.018 643.541,-552.427 625.508,-574.868C607.475,-597.309 586.254,-615.045 561.876,-628.135C537.584,-641.18 511.62,-647.658 484,-647.658C456.73,-647.658 430.951,-641.172 406.674,-628.135C382.261,-615.026 360.928,-597.26 342.702,-574.787C324.52,-552.369 310.197,-525.988 299.688,-495.682C289.206,-465.451 284,-433.141 284,-398.769C284,-364.833 289.213,-332.753 299.688,-302.541C310.212,-272.191 324.559,-245.672 342.767,-223.013C360.975,-200.354 382.285,-182.5 406.674,-169.404C430.951,-156.367 456.73,-149.881 484,-149.881ZM454,-198.667L454,-273.333L514,-273.333L514,-198.667L454,-198.667ZM454,-348L454,-572L514,-572L514,-348L454,-348Z" style="fill:rgb(1,1,1);"/>
            </g>
        </g>
    </g>
</svg>
