<?xml version="1.0" encoding="UTF-8" standalone="no"?>
<svg
   width="100%"
   height="100%"
   viewBox="0 0 24 24"
   version="1.1"
   xml:space="preserve"
   style="fill-rule:evenodd;clip-rule:evenodd;stroke-linejoin:round;stroke-miterlimit:2;"
   id="svg4"
   xmlns="http://www.w3.org/2000/svg"
   xmlns:svg="http://www.w3.org/2000/svg"><defs
   id="defs4">
        
    
            
            
            
            
        
                
            
                
            
                
            </defs>
    <path
   d="m 15.971609,23.00007 -0.39,-1.949997 c -0.26,-0.108323 -0.50375,-0.222073 -0.731249,-0.34125 -0.2275,-0.119177 -0.460428,-0.265427 -0.69875,-0.438749 l -1.884999,0.584999 -1.299999,-2.209997 1.494999,-1.299999 c -0.04332,-0.281677 -0.065,-0.563322 -0.065,-0.844999 0,-0.281677 0.02168,-0.563322 0.065,-0.844999 l -1.494999,-1.299998 1.299999,-2.209997 1.884999,0.584999 c 0.238322,-0.173322 0.47125,-0.319572 0.69875,-0.43875 0.227499,-0.119177 0.471249,-0.232927 0.731249,-0.341249 l 0.39,-1.949998 h 2.599998 l 0.39,1.949998 c 0.26,0.108322 0.50375,0.222072 0.73125,0.341249 0.227499,0.119178 0.460427,0.265428 0.698749,0.43875 l 1.884999,-0.584999 1.299999,2.209997 -1.494999,1.299998 c 0.04332,0.281677 0.065,0.563322 0.065,0.844999 0,0.281677 -0.02168,0.563322 -0.065,0.844999 l 1.494999,1.299999 -1.299999,2.209997 -1.884999,-0.584999 c -0.238322,0.173322 -0.47125,0.319572 -0.698749,0.438749 -0.2275,0.119177 -0.47125,0.232927 -0.73125,0.34125 l -0.39,1.949997 z m 1.299999,-3.899995 c 0.715,0 1.327072,-0.254572 1.836249,-0.763749 0.509177,-0.509177 0.763749,-1.121249 0.763749,-1.836248 0,-0.714999 -0.254572,-1.327071 -0.763749,-1.836248 -0.509177,-0.509176 -1.121249,-0.763749 -1.836249,-0.763749 -0.714999,0 -1.327072,0.254573 -1.836249,0.763749 -0.509177,0.509177 -0.763749,1.121249 -0.763749,1.836248 0,0.714999 0.254572,1.327071 0.763749,1.836248 0.509177,0.509177 1.12125,0.763749 1.836249,0.763749 z"
   id="path1"
   style="stroke-width:0.0325;fill:#000000;fill-opacity:1;stroke:none" /><path
   d="M 9.9666986,13.000183 4.9666899,17.000275 V 9.0003269 Z"
   id="path2"
   style="stroke-width:0.180512;fill:#000000;fill-opacity:1;stroke:none" /><path
   d="M 9.425779,20.999793 H 2.9666582 c -1.1044461,0 -2.00000302,-0.895199 -2.00000302,-1.999787 V 5.0000249 c 0,-1.1045875 0.89555692,-2.0002789 2.00000302,-2.0002789 H 18.966682 c 1.104446,0 2.000003,0.8956914 2.000003,2.0002789 V 7.9999506 H 18.966682 V 6.9998111 H 2.9666582 V 19.000006 h 5.3044524 z"
   id="path3"
   style="stroke-width:0.467941;fill:#000000;fill-opacity:1;stroke:none" />
</svg>
