<?xml version="1.0" encoding="UTF-8" standalone="no"?>
<svg
   width="100%"
   height="100%"
   viewBox="0 0 24 24"
   version="1.1"
   xml:space="preserve"
   style="fill-rule:evenodd;clip-rule:evenodd;stroke-linejoin:round;stroke-miterlimit:2;"
   id="svg3"
   xmlns="http://www.w3.org/2000/svg"
   xmlns:svg="http://www.w3.org/2000/svg"><defs
   id="defs3">
        
    
            
            
            
        
                
            
                
            </defs>
    <path fill="#000000"
   d="M 11.973636,8.6794385 V 5.0000864 c 0,-0.3728669 0.207474,-0.7147526 0.538188,-0.88696 0.33074,-0.1722074 0.729802,-0.1460831 1.035277,0.067739 l 10.000007,7.0000056 c 0.26733,0.187124 0.426547,0.492912 0.426547,0.819221 0,0.326309 -0.159217,0.632098 -0.426547,0.81925 l -10.000007,6.999977 c -0.305475,0.213822 -0.704537,0.239947 -1.035277,0.06774 -0.33074,-0.172178 -0.538188,-0.514093 -0.538188,-0.88696 v -3.679352 l 3.573451,-2.501404 c 0.26733,-0.187152 0.426547,-0.492941 0.426547,-0.81925 0,-0.326309 -0.159217,-0.632097 -0.426547,-0.819221 z"
   id="path1"
   style="stroke-width:0.0274021" /><path fill="#000000"
   d="M 0.97365755,19.000098 V 5.0000864 c 0,-0.3728669 0.20747345,-0.7147526 0.53818735,-0.88696 C 1.842585,3.940919 2.2416468,3.9670433 2.5471222,4.1808655 L 12.547129,11.180871 c 0.267331,0.187124 0.426548,0.492912 0.426548,0.819221 0,0.326309 -0.159217,0.632098 -0.426548,0.81925 L 2.5471222,19.819319 C 2.2416468,20.033141 1.842585,20.059266 1.5118449,19.887058 1.1811049,19.71488 0.97365755,19.372965 0.97365755,19.000098 Z"
   id="path2"
   style="stroke-width:0.0274021" />
</svg>
