<?xml version="1.0" encoding="UTF-8" standalone="no"?>
<svg
   width="100%"
   height="100%"
   viewBox="0 0 24 24"
   version="1.1"
   xml:space="preserve"
   style="fill-rule:evenodd;clip-rule:evenodd;stroke-linejoin:round;stroke-miterlimit:2;"
   id="svg3"
   xmlns="http://www.w3.org/2000/svg"
   xmlns:svg="http://www.w3.org/2000/svg"><defs
   id="defs3">
        
    
            
            
            
        
                
            
                
            </defs>
    <path fill="#000000"
   d="M 18.000245,21.000088 H 4.7502821 L 2.6252881,18.87509 C 2.2419641,18.491765 2.0461147,18.016766 2.0377897,17.450091 2.0294647,16.883416 2.2169642,16.400092 2.6002881,16.000092 L 13.600257,4.6001013 c 0.383324,-0.3999997 0.854173,-0.5999995 1.412496,-0.5999995 0.558324,0 1.029172,0.1916748 1.412496,0.5749995 l 4.974986,4.9749961 c 0.383249,0.3833247 0.574999,0.8583246 0.574999,1.4249986 0,0.566675 -0.19175,1.041674 -0.574999,1.424999 l -6.446481,6.599995 h 3.046491 z M 13.481758,17.634666 20.000239,10.950096 15.050253,6.0001002 8.5516465,12.70457 Z"
   id="path1"
   style="display:inline;stroke-width:0.025" /><rect
   x="20.000721"
   y="19.000179"
   width="2.9992812"
   height="1.9999971"
   id="rect2"
   style="display:inline;stroke-width:1.42791" />
</svg>
