<?xml version="1.0" encoding="UTF-8" standalone="no"?>
<svg
   width="100%"
   height="100%"
   viewBox="0 0 24 24"
   version="1.1"
   xml:space="preserve"
   style="fill-rule:evenodd;clip-rule:evenodd;stroke-linejoin:round;stroke-miterlimit:2;"
   id="svg6"
   xmlns="http://www.w3.org/2000/svg"
   xmlns:svg="http://www.w3.org/2000/svg"><defs
   id="defs6">
        
    
            
            
            
        
                
                
                
            
                    
                
                    
                
                    
                </defs>
    <path fill="#000000"
   d="M 1.9737038,21.000076 H 21.973748 L 11.973726,3.3530428 Z"
   style="fill:#e72727;stroke-width:0.0300921"
   id="path2" /><path fill="#000000"
   d="M 0.2336702,20.014064 10.233692,2.36703 c 0.35509,-0.6266827 1.019735,-1.0139742 1.740034,-1.0139742 0.720299,0 1.384943,0.3872915 1.740033,1.0139742 l 10.000022,17.647034 c 0.350864,0.619137 0.346281,1.378111 -0.01202,1.992989 -0.358304,0.614847 -1.016341,0.99301 -1.728009,0.99301 H 1.9737038 c -0.7116682,0 -1.3697054,-0.378163 -1.72800976,-0.99301 -0.35830436,-0.614878 -0.3628877,-1.373852 -0.0120238,-1.992989 z"
   style="fill:#e72727;stroke-width:0.0300921"
   id="path3" /><path fill="#000000"
   d="M 10.640351,14.000062 V 6.0000451 h 2.666671 v 8.0000169 z m -0.166667,6.000012 v -3.000006 h 3.000005 v 3.000006 z"
   style="fill:#ffffff;stroke-width:0.039841"
   id="path4" />
                
            
</svg>
