<?xml version="1.0" encoding="UTF-8" standalone="no"?>
<svg
   width="100%"
   height="100%"
   viewBox="0 0 24 24"
   version="1.1"
   xml:space="preserve"
   style="fill-rule:evenodd;clip-rule:evenodd;stroke-linejoin:round;stroke-miterlimit:2;"
   id="svg2"
   sodipodi:docname="icon_process_remove.svg"
   inkscape:version="1.4 (e7c3feb100, 2024-10-09)"
   xmlns:inkscape="http://www.inkscape.org/namespaces/inkscape"
   xmlns:sodipodi="http://sodipodi.sourceforge.net/DTD/sodipodi-0.dtd"
   xmlns="http://www.w3.org/2000/svg"
   xmlns:svg="http://www.w3.org/2000/svg"><defs
   id="defs2">
        
    
            
            
        
                
            </defs><sodipodi:namedview
   id="namedview2"
   pagecolor="#ffffff"
   bordercolor="#000000"
   borderopacity="0.25"
   inkscape:showpageshadow="2"
   inkscape:pageopacity="0.0"
   inkscape:pagecheckerboard="0"
   inkscape:deskcolor="#d1d1d1"
   inkscape:zoom="46.541667"
   inkscape:cx="12"
   inkscape:cy="12"
   inkscape:window-width="2560"
   inkscape:window-height="1368"
   inkscape:window-x="0"
   inkscape:window-y="0"
   inkscape:window-maximized="1"
   inkscape:current-layer="svg2" />
    <path fill="#000000"
   d="m 8.3994102,17.000075 3.5999898,-3.599998 3.59999,3.599998 1.399996,-1.399999 -3.59999,-3.599997 3.59999,-3.5999975 L 15.59939,7.0000826 11.9994,10.60008 8.3994102,7.0000826 6.9994141,8.4000815 10.599404,12.000079 6.9994141,15.600076 Z M 5.9994169,23.00007 c -0.5499984,0 -1.0208221,-0.195825 -1.412496,-0.5875 C 4.195247,22.020896 3.9994225,21.550071 3.9994225,21.000071 V 4.000085 H 2.9994253 V 2.0000866 h 4.999986 V 8.82e-5 h 7.9999777 v 1.9999984 h 4.999986 V 4.000085 h -0.999997 v 16.999986 c 0,0.55 -0.195825,1.020825 -0.587499,1.412499 -0.391674,0.391675 -0.862497,0.5875 -1.412496,0.5875 z M 17.999383,4.000085 H 5.9994169 V 21.000071 H 17.999383 Z m -11.9999661,0 v 16.999986 z"
   style="fill-rule:nonzero;stroke-width:0.025"
   id="path1" />
</svg>
