<?xml version="1.0" encoding="UTF-8" standalone="no"?>
<svg
   width="100%"
   height="100%"
   viewBox="0 0 24 24"
   version="1.1"
   xml:space="preserve"
   style="fill-rule:evenodd;clip-rule:evenodd;stroke-linejoin:round;stroke-miterlimit:2;"
   id="svg2"
   xmlns="http://www.w3.org/2000/svg"
   xmlns:svg="http://www.w3.org/2000/svg"><defs
   id="defs2">
        
    
            
            
        
                
            </defs>
    <path fill="#000000"
   d="m 11.999922,22.960227 c -1.50334,0 -2.924152,-0.288749 -4.2624921,-0.866248 C 6.3990899,21.51648 5.230342,20.728139 4.2311863,19.728983 3.2320306,18.729827 2.4436896,17.561079 1.8661906,16.222739 1.2886917,14.884399 0.9999422,13.463587 0.9999422,11.960247 c 0,-1.521655 0.2887495,-2.9516521 0.8662484,-4.2899922 C 2.4436896,6.3319147 3.2320306,5.1677594 4.2311863,4.1777611 5.230342,3.1877629 6.3990899,2.4040144 7.7374299,1.8265154 9.07577,1.2490165 10.496582,0.960267 11.999922,0.960267 c 1.521655,0 2.951652,0.2887495 4.289992,0.8662484 1.33834,0.577499 2.502496,1.3612475 3.492494,2.3512457 0.989998,0.9899983 1.773747,2.1541536 2.351246,3.4924937 0.577499,1.3383401 0.866248,2.7683372 0.866248,4.2899922 0,1.50334 -0.288749,2.924152 -0.866248,4.262492 -0.577499,1.33834 -1.361248,2.507088 -2.351246,3.506244 -0.989998,0.999156 -2.154154,1.787497 -3.492494,2.364996 -1.33834,0.577499 -2.768337,0.866248 -4.289992,0.866248 z m 0,-1.999989 c 1.240358,0 2.406686,-0.231852 3.497609,-0.702596 1.096973,-0.473357 2.052679,-1.117351 2.864175,-1.936327 0.815868,-0.823431 1.459697,-1.788019 1.935611,-2.890959 0.470084,-1.089383 0.702596,-2.246416 0.702596,-3.470109 0,-1.240358 -0.231852,-2.4066856 -0.702596,-3.4976086 C 19.822915,7.3632179 19.181479,6.4052571 18.368196,5.5919736 17.554912,4.7786901 16.596951,4.1372537 15.497531,3.6628521 14.406608,3.1921079 13.24028,2.9602559 11.999922,2.9602559 c -1.223693,0 -2.3807255,0.232512 -3.4701085,0.7025962 C 7.426873,4.1387662 6.4622848,4.7825951 5.6388538,5.5984636 4.8198778,6.4099596 4.1758839,7.3656654 3.7025273,8.4626384 3.2317831,9.5535614 2.9999311,10.719889 2.9999311,11.960247 c 0,1.223693 0.232512,2.380726 0.7025962,3.470109 0.4748691,1.100493 1.1212554,2.062798 1.9428715,2.884414 0.821616,0.821616 1.7839217,1.468003 2.8844147,1.942872 1.089383,0.470084 2.2464155,0.702596 3.4701085,0.702596 z M 15.999927,9.0000974 v 5.9999936 c 0,0.551897 -0.448084,0.999981 -1.000008,0.999981 h -1.000008 c -0.551896,0 -0.999981,-0.448084 -0.999981,-0.999981 V 9.0000974 c 0,-0.551924 0.448085,-1.0000082 0.999981,-1.0000082 h 1.000008 c 0.551924,0 1.000008,0.4480842 1.000008,1.0000082 z m -5.000013,0 v 5.9999936 c 0,0.551897 -0.448084,0.999981 -0.9999807,0.999981 H 8.9999252 c -0.551924,0 -1.0000082,-0.448084 -1.0000082,-0.999981 V 9.0000974 c 0,-0.551924 0.4480842,-1.0000082 1.0000082,-1.0000082 h 1.0000081 c 0.5518967,0 0.9999807,0.4480842 0.9999807,1.0000082 z"
   id="path1"
   style="stroke-width:0.0274999" />
</svg>
