<?xml version="1.0" encoding="UTF-8" standalone="no"?>
<svg
   width="100%"
   height="100%"
   viewBox="0 0 24 24"
   version="1.1"
   xml:space="preserve"
   style="fill-rule:evenodd;clip-rule:evenodd;stroke-linejoin:round;stroke-miterlimit:2;"
   id="svg10"
   xmlns="http://www.w3.org/2000/svg"
   xmlns:svg="http://www.w3.org/2000/svg"><defs
   id="defs10">
        
    
            
            
            
        
                
                
                
                
                
                
                
            
                    
                
                    
                
                    
                
                    
                
                    
                
                    
                
                    
                </defs>
    <path fill="#000000"
   d="m 11.973698,20.800089 c -1.083322,0 -2.0874941,-0.266674 -3.0124915,-0.799999 C 8.0362091,19.466765 7.3070362,18.733416 6.7737127,17.800092 h -1.799995 c -0.2833242,0 -0.5208235,-0.09582 -0.712498,-0.2875 -0.1916745,-0.191675 -0.2874992,-0.429175 -0.2874992,-0.712499 0,-0.283325 0.095825,-0.520825 0.2874992,-0.7125 0.1916745,-0.191675 0.4291738,-0.2875 0.712498,-0.2875 h 1.0999969 c -0.05,-0.333324 -0.079175,-0.666674 -0.0875,-0.999999 -0.00833,-0.333325 -0.0125,-0.666674 -0.0125,-0.999999 H 4.9737177 c -0.2833242,0 -0.5208235,-0.09583 -0.712498,-0.2875 -0.1916745,-0.191675 -0.2874992,-0.429174 -0.2874992,-0.712499 0,-0.283325 0.095825,-0.520825 0.2874992,-0.7125 0.1916745,-0.191674 0.4291738,-0.287499 0.712498,-0.287499 h 0.9999972 c 0,-0.333325 0.00418,-0.666675 0.0125,-1 0.00832,-0.333324 0.0375,-0.666674 0.0875,-0.9999988 H 4.9737177 c -0.2833242,0 -0.5208235,-0.095825 -0.712498,-0.2874998 C 4.0695452,9.3209236 3.9737205,9.0834238 3.9737205,8.800099 c 0,-0.2833248 0.095825,-0.5208246 0.2874992,-0.7124994 0.1916745,-0.1916749 0.4291738,-0.2874998 0.712498,-0.2874998 h 1.799995 C 7.007037,7.4167751 7.2695363,7.0584254 7.5612105,6.7251007 7.8528846,6.3917759 8.1903837,6.1001012 8.5737076,5.8501014 L 7.6487102,4.9001021 C 7.4653857,4.7167773 7.373711,4.4876025 7.373711,4.2126027 c 0,-0.2749998 0.1,-0.5124996 0.2999991,-0.7124995 0.1833245,-0.1833248 0.4166739,-0.2749997 0.6999981,-0.2749997 0.2833242,0 0.5166735,0.091675 0.699998,0.2749997 l 1.4499958,1.4499989 c 0.466674,-0.1499999 0.941673,-0.2249998 1.424996,-0.2249998 0.483324,0 0.958322,0.075 1.424996,0.2249998 L 14.87369,3.4751033 c 0.183324,-0.1833249 0.412499,-0.2749998 0.687498,-0.2749998 0.274999,0 0.512499,0.1 0.712498,0.2999997 0.183325,0.1833249 0.274999,0.4166747 0.274999,0.6999995 0,0.2833248 -0.09167,0.5166746 -0.274999,0.6999994 l -0.949997,0.9499993 c 0.383324,0.2499998 0.729173,0.5374995 1.037497,0.8624993 0.308324,0.3249997 0.579173,0.6874994 0.812498,1.0874991 h 1.799994 c 0.283325,0 0.520824,0.095825 0.712499,0.2874998 0.191674,0.1916748 0.287499,0.4291746 0.287499,0.7124994 0,0.2833248 -0.09583,0.5208246 -0.287499,0.7124994 -0.191675,0.1916749 -0.429174,0.2874998 -0.712499,0.2874998 h -1.099996 c 0.05,0.3333248 0.07917,0.6666748 0.0875,0.9999988 0.0083,0.333325 0.0125,0.666675 0.0125,1 h 0.999997 c 0.283325,0 0.520824,0.09583 0.712499,0.287499 0.191674,0.191675 0.287499,0.429175 0.287499,0.7125 0,0.283325 -0.09583,0.520824 -0.287499,0.712499 -0.191675,0.191675 -0.429174,0.2875 -0.712499,0.2875 h -0.999997 c 0,0.333325 -0.0042,0.666674 -0.0125,0.999999 -0.0083,0.333325 -0.0375,0.666675 -0.0875,0.999999 h 1.099996 c 0.283325,0 0.520824,0.09582 0.712499,0.2875 0.191674,0.191675 0.287499,0.429175 0.287499,0.7125 0,0.283324 -0.09583,0.520824 -0.287499,0.712499 -0.191675,0.191675 -0.429174,0.2875 -0.712499,0.2875 h -1.799994 c -0.533324,0.933324 -1.262497,1.666673 -2.187494,2.199998 -0.924998,0.533325 -1.92917,0.799999 -3.012492,0.799999 z m 0,-1.999998 c 1.099997,0 2.041669,-0.391675 2.824992,-1.174999 0.783323,-0.783324 1.174997,-1.724999 1.174997,-2.824998 v -3.999997 c 0,-1.0999987 -0.391674,-2.041673 -1.174997,-2.8249973 -0.783323,-0.7833244 -1.724995,-1.1749991 -2.824992,-1.1749991 -1.099997,0 -2.0416692,0.3916747 -2.824992,1.1749991 C 8.3653832,8.758424 7.9737093,9.7000983 7.9737093,10.800097 v 3.999997 c 0,1.099999 0.3916739,2.041674 1.1749967,2.824998 0.7833228,0.783324 1.724995,1.174999 2.824992,1.174999 z"
   id="path2"
   style="stroke-width:0.025" /><path fill="#000000"
   d="m 10.973701,15.800093 h 1.999994 c 0.283325,0 0.520824,-0.09582 0.712498,-0.287499 0.191675,-0.191675 0.2875,-0.429175 0.2875,-0.7125 0,-0.283325 -0.09583,-0.520824 -0.2875,-0.712499 -0.191674,-0.191675 -0.429173,-0.2875 -0.712498,-0.2875 h -1.999994 c -0.283324,0 -0.520824,0.09582 -0.712498,0.2875 -0.191675,0.191675 -0.2874993,0.429174 -0.2874993,0.712499 0,0.283325 0.095824,0.520825 0.2874993,0.7125 0.191674,0.191674 0.429174,0.287499 0.712498,0.287499 z"
   id="path3"
   style="stroke-width:0.025" /><path fill="#000000"
   d="m 10.973701,11.800097 h 1.999994 c 0.283325,0 0.520824,-0.09582 0.712498,-0.2875 0.191675,-0.191675 0.2875,-0.429175 0.2875,-0.7125 0,-0.283324 -0.09583,-0.520824 -0.2875,-0.712499 C 13.494519,9.8959231 13.25702,9.8000982 12.973695,9.8000982 h -1.999994 c -0.283324,0 -0.520824,0.095825 -0.712498,0.2874998 -0.191675,0.191675 -0.2874993,0.429175 -0.2874993,0.712499 0,0.283325 0.095824,0.520825 0.2874993,0.7125 0.191674,0.191675 0.429174,0.2875 0.712498,0.2875 z"
   id="path4"
   style="stroke-width:0.025" /><path fill="#000000"
   d="M -0.0264264,5.0001024 V 2.0001048 c 0,-0.5499996 0.19582445,-1.02082418 0.58749836,-1.41249887 C 0.95274586,0.19593124 1.4235695,1.064e-4 1.973568,1.064e-4 H 4.9735596 V 2.0001048 H 1.973568 v 2.9999976 z"
   id="path5"
   style="stroke-width:0.025" /><path fill="#000000"
   d="M 4.9735596,24.000086 H 1.973568 c -0.5499985,0 -1.02082214,-0.195825 -1.41249604,-0.5875 C 0.16939805,23.020912 -0.0264264,22.550087 -0.0264264,22.000087 V 19.00009 H 1.973568 v 2.999997 h 2.9999916 z"
   id="path6"
   style="stroke-width:0.025" /><path fill="#000000"
   d="m 18.97359,24.000086 v -1.999999 h 2.999991 V 19.00009 h 1.999995 v 2.999997 c 0,0.55 -0.195825,1.020825 -0.587499,1.412499 -0.391674,0.391675 -0.862497,0.5875 -1.412496,0.5875 z"
   id="path7"
   style="stroke-width:0.025" /><path fill="#000000"
   d="M 21.973581,5.0001024 V 2.0001048 H 18.97359 V 1.064e-4 h 2.999991 c 0.549999,0 1.020822,0.19582484 1.412496,0.58749953 0.391674,0.39167469 0.587499,0.86249927 0.587499,1.41249887 v 2.9999976 z"
   id="path8"
   style="stroke-width:0.025" />
                
            
</svg>
