<?xml version="1.0" encoding="UTF-8" standalone="no"?>
<svg
   width="100%"
   height="100%"
   viewBox="0 0 24 24"
   version="1.1"
   xml:space="preserve"
   style="fill-rule:evenodd;clip-rule:evenodd;stroke-linejoin:round;stroke-miterlimit:2;"
   id="svg3"
   xmlns="http://www.w3.org/2000/svg"
   xmlns:svg="http://www.w3.org/2000/svg"><defs
   id="defs3">
        
    
            
            
            
        
                
            
                
            </defs>
    <path fill="#000000"
   d="m 23.000446,12.039959 c -0.0051,1.493326 -0.29659,2.904952 -0.870818,4.235686 -0.574918,1.332373 -1.356745,2.494862 -2.342324,3.489582 -0.988905,0.998044 -2.150662,1.787137 -3.487504,2.363976 -1.341402,0.578834 -2.774147,0.870887 -4.299303,0.870887 -1.50808,0 -2.9329877,-0.291554 -4.2755537,-0.870887 C 6.3907373,21.553504 5.2265341,20.766216 4.2304574,19.770119 3.234357,18.774046 2.4470669,17.609847 1.8713659,16.275645 1.2920312,14.933084 1.0004757,13.508181 1.0004757,12.000106 c 0,-1.525151 0.2920542,-2.9578911 0.8708902,-4.2992888 C 2.4482069,6.3639794 3.237302,5.2022264 4.2353499,4.2133256 5.2300728,3.2277497 6.392566,2.4459248 7.7249433,1.8710095 9.0675093,1.2916767 10.492417,1.0001222 12.000497,1.0001222 v 3 c -1.088607,0 -2.1178388,0.2071946 -3.0869592,0.6253602 C 7.9342286,5.0480654 7.0779922,5.6199882 6.3468709,6.3444095 5.6190985,7.0655058 5.0465088,7.9145668 4.625848,8.8894077 4.2071823,9.8596648 4.0004857,10.896921 4.0004857,12.000106 c 0,1.088603 0.2071954,2.117832 0.6253623,3.086949 0.4218008,0.977477 0.9961717,1.832 1.7259155,2.561765 0.7297674,0.729742 1.5842939,1.304111 2.5617743,1.72591 0.9691204,0.418166 1.9983522,0.62536 3.0869592,0.62536 1.103189,0 2.140448,-0.206696 3.110709,-0.62536 0.974844,-0.420659 1.823908,-0.993247 2.545006,-1.721017 0.724424,-0.731119 1.296349,-1.587352 1.718933,-2.566658 0.413061,-0.95729 0.62028,-1.973242 0.625268,-3.047096 z"
   id="path1"
   style="stroke-width:0.02375" /><path fill="#000000"
   d="m 12.000497,4.0001222 v -3 c 1.525156,0 2.957901,0.2920533 4.299303,0.8708873 1.335014,0.5760553 2.495084,1.3596615 3.482611,2.3472086 0.98755,0.9875233 1.771159,2.1475901 2.347217,3.4825991 0.578836,1.3413977 0.87089,2.7741378 0.87089,4.2992888 h -3.00001 c 0,-1.103185 -0.206697,-2.1404412 -0.625363,-3.1106983 C 18.953701,7.9127381 18.383557,7.0619908 17.661105,6.339517 16.938629,5.617067 16.087879,5.0469254 15.111206,4.6254824 14.140945,4.2068181 13.103686,4.0001222 12.000497,4.0001222 Z"
   style="fill-opacity:0.25;stroke-width:0.02375"
   id="path2" />
</svg>
