<?xml version="1.0" encoding="UTF-8" standalone="no"?>
<svg
   width="100%"
   height="100%"
   viewBox="0 0 24 24"
   version="1.1"
   xml:space="preserve"
   style="fill-rule:evenodd;clip-rule:evenodd;stroke-linejoin:round;stroke-miterlimit:2;"
   id="svg3"
   xmlns="http://www.w3.org/2000/svg"
   xmlns:svg="http://www.w3.org/2000/svg"><defs
   id="defs3">
        
    
            
            
            
        
                
            
                
            </defs>
    <path
   d="m 14.592485,8.0750817 c 0,-0.7166744 -0.2375,-1.2916739 -0.712498,-1.7249986 -0.474999,-0.4333246 -1.104172,-0.6499995 -1.887495,-0.6499995 -0.483324,0 -0.920823,0.104175 -1.312497,0.3124998 C 10.288322,6.2209082 9.9508225,6.525083 9.6674983,6.9250827 9.4008241,7.3084074 9.0383251,7.5292572 8.5800014,7.5875821 8.1216777,7.6459071 7.7258288,7.5250822 7.3925047,7.2250824 7.1591804,7.0084076 7.0300057,6.7417578 7.0050058,6.4250831 6.9800059,6.1084083 7.0591806,5.8084086 7.2425051,5.5250838 7.7758286,4.7250844 8.4550017,4.1042599 9.2799994,3.6625853 10.104997,3.2209106 11.00917,3.0000858 11.992492,3.0000858 c 1.61667,0 2.929167,0.4583246 3.937489,1.3749989 1.008322,0.9166743 1.512496,2.1166733 1.512496,3.5999971 0,0.7499994 -0.158325,1.4249989 -0.474999,2.0249982 -0.316674,0.6 -0.899998,1.308324 -1.749995,2.124998 -0.616673,0.583325 -1.033322,1.0375 -1.249997,1.362499 -0.216674,0.325 -0.358324,0.695825 -0.424999,1.1125 -0.06667,0.399999 -0.237499,0.733324 -0.512498,0.999999 -0.274999,0.266675 -0.604173,0.399999 -0.987497,0.399999 -0.383324,0 -0.712498,-0.129174 -0.987498,-0.387499 -0.274999,-0.258325 -0.412498,-0.579175 -0.412498,-0.9625 0,-0.649999 0.141674,-1.245824 0.424998,-1.787498 0.283325,-0.541675 0.758323,-1.112499 1.424996,-1.712499 0.849998,-0.749999 1.412496,-1.3291737 1.687496,-1.7374983 0.274999,-0.4083247 0.412499,-0.8541743 0.412499,-1.337499 z"
   id="path1"
   style="stroke-width:0.025;fill:#000000;fill-opacity:1" /><path
   d="m 12.0004,22.000071 c -0.549998,0 -1.020822,-0.195825 -1.412496,-0.5875 -0.391674,-0.391675 -0.587498,-0.862499 -0.587498,-1.412499 0,-0.549999 0.195824,-1.020824 0.587498,-1.412499 0.391674,-0.391674 0.862498,-0.587499 1.412496,-0.587499 0.549999,0 1.020822,0.195825 1.412496,0.587499 0.391674,0.391675 0.587499,0.8625 0.587499,1.412499 0,0.55 -0.195825,1.020824 -0.587499,1.412499 -0.391674,0.391675 -0.862497,0.5875 -1.412496,0.5875 z"
   id="path2"
   style="stroke-width:0.025;fill:#000000;fill-opacity:1" />
</svg>
