<?xml version="1.0" encoding="UTF-8" standalone="no"?>
<svg
   width="100%"
   height="100%"
   viewBox="0 0 24 24"
   version="1.1"
   xml:space="preserve"
   style="fill-rule:evenodd;clip-rule:evenodd;stroke-linejoin:round;stroke-miterlimit:2;"
   id="svg3"
   xmlns="http://www.w3.org/2000/svg"
   xmlns:svg="http://www.w3.org/2000/svg"><defs
   id="defs3">
        
    
            
            
            
        
                
            
                
            </defs>
    <path fill="#000000"
   d="M 1.9924281,19.000077 V 5.0000996 c 0,-1.1045691 0.8954225,-1.9999843 1.9999944,-1.9999843 H 19.992378 c 1.104572,0 1.999994,0.8954152 1.999994,1.9999843 V 19.000077 c 0,1.104569 -0.895422,1.999985 -1.999994,1.999985 H 3.9924225 c -1.1045719,0 -1.9999944,-0.895416 -1.9999944,-1.999985 z M 3.9924225,7.0000839 V 19.000077 H 19.992378 V 7.0000839 Z"
   style="fill:#e72727;stroke-width:0.027003"
   id="path1" /><path fill="#000000"
   d="M 9.3924074,17.000091 11.9924,14.400093 14.592393,17.000091 15.992389,15.600093 13.392396,13.000095 15.992389,10.400097 14.592393,9.0000978 11.9924,11.600096 9.3924074,9.0000978 7.9924113,10.400097 10.592404,13.000095 7.9924113,15.600093 Z"
   style="fill:#e72727;stroke-width:0.025"
   id="path2" />
</svg>
