<?xml version="1.0" encoding="UTF-8" standalone="no"?>
<svg
   width="100%"
   height="100%"
   viewBox="0 0 24 24"
   version="1.1"
   xml:space="preserve"
   style="fill-rule:evenodd;clip-rule:evenodd;stroke-linejoin:round;stroke-miterlimit:2;"
   id="svg2"
   xmlns="http://www.w3.org/2000/svg"
   xmlns:svg="http://www.w3.org/2000/svg"><defs
   id="defs2">
        
    
            
            
        
                
            </defs>
    <path
   d="m 8.9004978,19.000073 c -1.6166705,0 -3.0041666,-0.525 -4.1624883,-1.574999 -1.1583218,-1.049999 -1.7374952,-2.358323 -1.7374952,-3.924997 0,-1.566673 0.5791734,-2.874997 1.7374952,-3.9249965 C 5.8963312,8.5250814 7.2838273,8.0000818 8.9004978,8.0000818 H 15.20048 L 12.600487,5.4000839 14.000484,4.000085 19.00047,9.000081 14.000484,14.000077 12.600487,12.600078 15.20048,10.00008 H 8.9004978 c -1.049997,0 -1.9624945,0.333325 -2.7374923,0.999999 -0.7749978,0.666675 -1.1624968,1.499999 -1.1624968,2.499998 0,1 0.387499,1.833324 1.1624968,2.499998 0.7749978,0.666675 1.6874953,1 2.7374923,1 h 7.0999802 v 1.999998 z"
   style="fill-rule:nonzero;stroke-width:0.025;fill:#000000;fill-opacity:1"
   id="path1" />
</svg>
