<?xml version="1.0" encoding="UTF-8" standalone="no"?>
<svg
   width="100%"
   height="100%"
   viewBox="0 0 24 24"
   version="1.1"
   xml:space="preserve"
   style="fill-rule:evenodd;clip-rule:evenodd;stroke-linejoin:round;stroke-miterlimit:2;"
   id="svg2"
   xmlns="http://www.w3.org/2000/svg"
   xmlns:svg="http://www.w3.org/2000/svg"><defs
   id="defs2">
        
    
            
            
        
                
            </defs>
    <path fill="#000000"
   d="m 19.630105,7.1739906 c 0.222502,0.5654545 0.345003,1.1818181 0.345003,1.8263636 0,2.7599998 -2.240849,4.9999998 -5.000036,4.9999998 -0.447503,0 -0.881672,-0.05909 -1.295009,-0.17 l -7.3008846,7.301818 c -0.9758402,0.975454 -2.5600181,0.975454 -3.5358583,0 -0.9758403,-0.975455 -0.9758403,-2.56 0,-3.535454 L 10.145038,10.2949 C 10.034204,9.8821723 9.9750371,9.448536 9.9750371,9.0003542 c 0,-2.76 2.2400159,-4.9999999 5.0000349,-4.9999999 0.644172,0 1.260843,0.1218182 1.82668,0.3445455 l -3.71586,3.7163635 2.828354,2.8281817 z M 4.9750018,17.750354 c -0.6900049,0 -1.2500088,0.56 -1.2500088,1.25 0,0.69 0.5600039,1.25 1.2500088,1.25 0.6900049,0 1.2500088,-0.56 1.2500088,-1.25 0,-0.69 -0.5600039,-1.25 -1.2500088,-1.25 z"
   id="path1"
   style="stroke-width:0.870391" />
</svg>
