<?xml version="1.0" encoding="UTF-8" standalone="no"?>
<svg
   width="100%"
   height="100%"
   viewBox="0 0 24 24"
   version="1.1"
   xml:space="preserve"
   style="fill-rule:evenodd;clip-rule:evenodd;stroke-linejoin:round;stroke-miterlimit:2;"
   id="svg4"
   xmlns="http://www.w3.org/2000/svg"
   xmlns:svg="http://www.w3.org/2000/svg"><defs
   id="defs4">
        
    
            
            
            
        
                
            
                    
                </defs>
    <path fill="#000000"
   d="m 2.0354272,13.999679 v -2.000001 h 8.0000038 v 2.000001 z m 0,-5.0000018 V 6.9996764 H 18.035435 v 2.0000008 z m 0,-5.000002 V 1.9996744 H 18.035435 V 3.9996752 Z M 17.035435,20.999682 c -1.516661,0 -2.916662,-0.4 -4.200002,-1.2 -1.283341,-0.800001 -2.216661,-1.900001 -2.800002,-3.300002 0.583341,-1.4 1.516661,-2.500001 2.800002,-3.300001 1.28334,-0.8 2.683341,-1.200001 4.200002,-1.200001 1.51666,0 2.916601,0.400001 4.200002,1.200001 1.2834,0.8 2.216601,1.900001 2.800001,3.300001 -0.5834,1.400001 -1.516601,2.500001 -2.800001,3.300002 -1.283401,0.8 -2.683342,1.2 -4.200002,1.2 z m 0,-1 c 1.32562,0 2.549321,-0.349401 3.671002,-1.048626 0.9824,-0.612375 1.7258,-1.42945 2.231001,-2.451776 -0.505201,-1.021525 -1.248601,-1.838601 -2.231001,-2.450976 -1.121681,-0.699225 -2.345382,-1.048625 -3.671002,-1.048625 -1.325621,0 -2.549322,0.3494 -3.671002,1.048625 -0.982361,0.612375 -1.725881,1.429451 -2.230901,2.451776 0.50502,1.021526 1.24856,1.838601 2.230901,2.450976 1.12168,0.699225 2.345381,1.048626 3.671002,1.048626 z m 0,-1.750001 c -0.486121,0 -0.899301,-0.17015 -1.239581,-0.510425 -0.34028,-0.340275 -0.51042,-0.753476 -0.51042,-1.239576 0,-0.4861 0.17014,-0.8993 0.51042,-1.239575 0.34028,-0.340275 0.75346,-0.510426 1.239581,-0.510426 0.48612,0 0.8993,0.170151 1.23958,0.510426 0.340281,0.340275 0.510421,0.753475 0.510421,1.239575 0,0.4861 -0.17014,0.899301 -0.510421,1.239576 -0.34028,0.340275 -0.75346,0.510425 -1.23958,0.510425 z"
   id="path2"
   style="stroke-width:0.0223607" />
                
            
</svg>
