<?xml version="1.0" encoding="UTF-8" standalone="no"?>
<svg
   width="100%"
   height="100%"
   viewBox="0 0 24 24"
   version="1.1"
   xml:space="preserve"
   style="fill-rule:evenodd;clip-rule:evenodd;stroke-linejoin:round;stroke-miterlimit:2;"
   id="svg4"
   xmlns="http://www.w3.org/2000/svg"
   xmlns:svg="http://www.w3.org/2000/svg"><defs
   id="defs4">
        
    
                
            
                    
                
            
            
            
                
            
        </defs>
    <path fill="#000000"
   d="m 14.937183,20.723457 -2.847303,2.847301 -1.414219,-1.414225 12.020766,-12.020805 1.414199,1.414202 -2.155601,2.155651 c 0.921002,0.7376 1.615801,1.668974 2.084602,2.7941 -0.5834,1.4 -1.516601,2.500001 -2.800002,3.300001 -1.283401,0.8 -2.683341,1.2 -4.2,1.2 -0.727682,0 -1.428481,-0.09207 -2.102442,-0.276225 z m 6.305442,-6.305503 -5.469763,5.469803 c 0.411381,0.07463 0.833621,0.111925 1.266763,0.111925 1.32562,0 2.54932,-0.3494 3.671001,-1.048625 0.982399,-0.612375 1.7258,-1.429451 2.231001,-2.451776 -0.409602,-0.8282 -0.975802,-1.522026 -1.699002,-2.081327 z M 2.039616,13.999681 v -2 h 8.000004 v 2 z m 0,-5.0000019 v -2 h 16.000008 v 2 z m 0,-5.0000016 v -2 h 16.000008 v 2 z M 11.27926,18.492282 c -0.51376,-0.578026 -0.926979,-1.242226 -1.23964,-1.992601 0.583341,-1.4 1.51666,-2.5 2.800001,-3.300002 1.283342,-0.799999 2.683341,-1.199998 4.200004,-1.199998 0.237157,0 0.471439,0.0098 0.702899,0.02935 l -0.975662,0.975626 c -1.221118,0.04487 -2.3539,0.392624 -3.398241,1.043648 -0.98236,0.612376 -1.72588,1.429451 -2.2309,2.451777 0.2329,0.4711 0.51652,0.898725 0.8509,1.282825 z"
   id="path2"
   style="stroke-width:0.0223607" />
</svg>
