<?xml version="1.0" encoding="UTF-8" standalone="no"?>
<svg
   width="100%"
   height="100%"
   viewBox="0 0 24 24"
   version="1.1"
   xml:space="preserve"
   style="fill-rule:evenodd;clip-rule:evenodd;stroke-linejoin:round;stroke-miterlimit:2;"
   id="svg2"
   xmlns="http://www.w3.org/2000/svg"
   xmlns:svg="http://www.w3.org/2000/svg"><defs
   id="defs2">
        
    
            
            
        
                
            </defs>
    <path
   d="m 12.000541,21.000073 c -1.244995,0 -2.4149973,-0.23625 -3.5100067,-0.70875 C 7.3955248,19.818824 6.4430306,19.177574 5.6330292,18.367575 4.8230277,17.557576 4.1817766,16.605084 3.7092758,15.510077 3.2367749,14.415071 3.0005245,13.245072 3.0005245,12.000081 c 0,-1.244992 0.2362504,-2.4149908 0.7087513,-3.5099973 C 4.1817766,7.3950772 4.8230277,6.4425855 5.6330292,5.6325863 6.4430306,4.822587 7.3955248,4.1813375 8.4905343,3.708838 9.5855437,3.2363384 10.755546,3.0000886 12.000541,3.0000886 c 1.244994,0 2.414996,0.2362498 3.510006,0.7087494 1.095009,0.4724995 2.047503,1.113749 2.857505,1.9237483 0.810001,0.8099992 1.451252,1.7624909 1.923753,2.8574974 0.472501,1.0950065 0.708751,2.2650053 0.708751,3.5099973 0,1.244991 -0.23625,2.41499 -0.708751,3.509996 -0.472501,1.095007 -1.113752,2.047499 -1.923753,2.857498 -0.810002,0.809999 -1.762496,1.451249 -2.857505,1.923748 -1.09501,0.4725 -2.265012,0.70875 -3.510006,0.70875 z M 6.3420729,7.8737418 C 6.0301999,8.3041214 5.7650594,8.773921 5.5456165,9.2824655 5.1798784,10.130062 5.0005306,11.036384 5.0005306,12.000081 c 0,0.963696 0.1793478,1.870018 0.5450859,2.717615 0.3694057,0.856079 0.8683441,1.602381 1.5016302,2.235665 0.6332861,0.633285 1.3795899,1.132222 2.2356715,1.501626 0.8475988,0.365738 1.7539228,0.545085 2.7176228,0.545085 0.963699,0 1.870023,-0.179347 2.717622,-0.545085 0.508546,-0.219442 0.978347,-0.484582 1.408727,-0.796454 z M 17.658963,16.126487 c 0.311896,-0.430402 0.577059,-0.900224 0.796501,-1.408791 0.365739,-0.847597 0.545086,-1.753919 0.545086,-2.717615 0,-0.963697 -0.179347,-1.870019 -0.545086,-2.7176155 C 18.086059,8.4263863 17.58712,7.6800844 16.953834,7.0468 16.320548,6.4135156 15.574244,5.9145785 14.718163,5.5451738 13.870564,5.1794367 12.96424,5.0000893 12.000541,5.0000893 c -0.9637,0 -1.870024,0.1793474 -2.7176228,0.5450845 -0.5085684,0.2194423 -0.9783918,0.4846046 -1.408795,0.7964993 z"
   id="path1"
   style="stroke-width:0.0225;fill:#ff0000;fill-opacity:1" />
</svg>
