<?xml version="1.0" encoding="UTF-8" standalone="no"?>
<svg
   width="100%"
   height="100%"
   viewBox="0 0 24 24"
   version="1.1"
   xml:space="preserve"
   style="fill-rule:evenodd;clip-rule:evenodd;stroke-linejoin:round;stroke-miterlimit:2;"
   id="svg5"
   xmlns="http://www.w3.org/2000/svg"
   xmlns:svg="http://www.w3.org/2000/svg"><defs
   id="defs5">
        
    
            
            
            
        
                
                
            
                    
                
                    
                </defs>
    <path
   d="M 9.0001104,19.994606 H 4.000555 V 16.994633 H 9.0001104 V 10.9945 H 10.000333 V 23.994507 H 4.000555 v -2.999973 h 4.9995554 z m 2.0004446,-2.999973 h 7 v 2.999973 h -7 z m 0,3.999901 h 7 v 2.999973 h -7 z"
   id="path2"
   style="stroke-width:0.382166;fill:#000000;fill-opacity:1" /><path
   d="m 23.998751,6.9898747 c 0,2.2516679 -0.557927,3.9816963 -1.67378,5.1909923 -1.11676,1.209297 -2.511122,1.814398 -4.594954,1.814398 -2.082925,0 -3.562564,-0.605101 -4.679324,-1.814398 -1.115853,-1.209296 -1.673779,-2.9456748 -1.673779,-5.2091363 0,-2.2634615 0.55974,-3.9925828 1.679222,-5.1864567 1.118574,-1.19387385 2.602749,-1.79081079 4.692932,-1.79081079 2.090183,0 3.482731,0.60238013 4.589511,1.80532599 1.106781,1.2029459 1.660172,2.9329744 1.660172,5.1900855 z m -9.599056,0 c 0,1.5195583 0.288489,2.6635363 0.865467,3.4328413 0.576977,0.769304 1.318157,1.153957 2.464855,1.153957 2.301559,0 3.245952,-1.52863 3.245952,-4.5867983 0,-3.063611 -0.938949,-4.5949629 -3.226901,-4.5949629 -1.147605,0 -1.891507,0.3864667 -2.474834,1.1584931 -0.583328,0.7720263 -0.874539,1.9178187 -0.874539,3.4364698 z"
   style="fill-rule:nonzero;stroke-width:0.907198;fill:#000000;fill-opacity:1"
   id="path3" />
                
            
</svg>
