<?xml version="1.0" encoding="UTF-8" standalone="no"?>
<svg
   width="100%"
   height="100%"
   viewBox="0 0 24 24"
   version="1.1"
   xml:space="preserve"
   style="fill-rule:evenodd;clip-rule:evenodd;stroke-linejoin:round;stroke-miterlimit:2;"
   id="svg2"
   xmlns="http://www.w3.org/2000/svg"
   xmlns:svg="http://www.w3.org/2000/svg"><defs
   id="defs2">
        
    
            
            
        </defs>
    <g
   transform="matrix(1.414434,0,0,1.3119641,-840.40224,-135.14804)"
   id="g1"
   style="fill:#000000;fill-opacity:1">
                <path
   d="m 601.16,113.679 -0.66,-2.168 h -3.321 l -0.661,2.168 h -2.081 l 3.215,-9.147 h 2.362 l 3.227,9.147 z m -1.121,-3.788 c -0.611,-1.965 -0.955,-3.076 -1.032,-3.334 -0.076,-0.257 -0.131,-0.461 -0.165,-0.61 -0.137,0.531 -0.529,1.846 -1.177,3.944 z m 4.049,-5.321 h 2.849 c 1.298,0 2.24,0.183 2.827,0.551 0.586,0.368 0.88,0.952 0.88,1.754 0,0.544 -0.129,0.991 -0.386,1.34 -0.256,0.349 -0.597,0.558 -1.023,0.629 v 0.062 c 0.58,0.129 0.998,0.37 1.255,0.723 0.257,0.353 0.385,0.822 0.385,1.408 0,0.831 -0.301,1.479 -0.905,1.944 -0.603,0.465 -1.422,0.698 -2.457,0.698 h -3.425 z m 1.941,3.607 h 1.127 c 0.526,0 0.907,-0.081 1.143,-0.243 0.236,-0.162 0.354,-0.43 0.354,-0.804 0,-0.348 -0.129,-0.599 -0.385,-0.75 -0.257,-0.152 -0.663,-0.228 -1.218,-0.228 h -1.021 z m 0,1.533 v 2.374 h 1.265 c 0.534,0 0.929,-0.102 1.183,-0.305 0.255,-0.204 0.382,-0.516 0.382,-0.935 0,-0.756 -0.542,-1.134 -1.628,-1.134 z m -11.132,9.304 h 6.363 v 1.525 h -6.363 z m 0,-3.048 h 4.242 v 1.524 h -4.242 z"
   id="path1"
   style="fill:#000000;fill-opacity:1" />
            </g>
</svg>
