<?xml version="1.0" encoding="UTF-8" standalone="no"?>
<svg
   width="100%"
   height="100%"
   viewBox="0 0 24 24"
   version="1.1"
   xml:space="preserve"
   style="fill-rule:evenodd;clip-rule:evenodd;stroke-linejoin:round;stroke-miterlimit:2;"
   id="svg6"
   xmlns="http://www.w3.org/2000/svg"
   xmlns:svg="http://www.w3.org/2000/svg"><defs
   id="defs6">
        
    
            
            
            
        
                
                
                
            
                    
                
                    
                
                    
                </defs>
    <path
   d="M 14.238342,10.994991 13.592054,8.8617358 H 10.34005 L 9.6927822,10.994991 H 7.655016 l 3.148207,-9.0004092 h 2.312928 l 3.159958,9.0004092 z M 13.140632,7.267698 C 12.542326,5.3341893 12.205472,4.2409943 12.130072,3.987129 12.055651,3.7342477 12.001794,3.533517 11.9685,3.3869049 11.834346,3.9093951 11.45049,5.2033208 10.815953,7.267698 Z"
   id="path2"
   style="stroke-width:0.981596;fill:#000000;fill-opacity:1" /><path
   d="m 17.399279,2.0319728 h 2.776102 c 1.264179,0 2.182691,0.1800672 2.754558,0.5421696 0.570888,0.3621024 0.856822,0.9367432 0.856822,1.7258903 0,0.5352818 -0.125341,0.9751182 -0.375043,1.3185251 -0.249703,0.3434069 -0.582639,0.5490574 -0.99783,0.6189195 v 0.061006 c 0.565992,0.1269327 0.973349,0.3640704 1.224031,0.7114132 0.249702,0.3473428 0.375043,0.8088265 0.375043,1.3854353 0,0.8176823 -0.293768,1.4552974 -0.882282,1.9128452 -0.587534,0.457548 -1.385602,0.686814 -2.394204,0.686814 h -3.337197 z m 1.890883,3.5491939 h 1.09869 c 0.512134,0 0.88326,-0.079702 1.113378,-0.2391056 0.229138,-0.1594038 0.344687,-0.4231088 0.344687,-0.7911151 0,-0.3424229 -0.125341,-0.5894003 -0.375043,-0.7379804 -0.250682,-0.149564 -0.646288,-0.224346 -1.18682,-0.224346 h -0.994892 z m 0,1.5084321 v 2.335954 h 1.232843 c 0.519969,0 0.904804,-0.1003653 1.152548,-0.300112 0.248723,-0.2007307 0.372105,-0.5077305 0.372105,-0.9200156 0,-0.7438843 -0.528781,-1.1158264 -1.586344,-1.1158264 z"
   id="path3"
   style="stroke-width:0.981596;fill:#000000;fill-opacity:1" /><path
   d="m 1.0355768,12.99476 h 6.0000264 v 2.000001 H 1.0355768 Z m 0,4.000002 h 9.0000392 v 2 H 1.0355768 Z m 0,4.000001 H 13.03563 v 2.000001 H 1.0355768 Z"
   id="path4"
   style="stroke-width:0.0250001;fill:#000000;fill-opacity:1" />
                
            
</svg>
