<?xml version="1.0" encoding="UTF-8" standalone="no"?>
<svg
   width="100%"
   height="100%"
   viewBox="0 0 24 24"
   version="1.1"
   xml:space="preserve"
   style="fill-rule:evenodd;clip-rule:evenodd;stroke-linejoin:round;stroke-miterlimit:2;"
   id="svg7"
   xmlns="http://www.w3.org/2000/svg"
   xmlns:svg="http://www.w3.org/2000/svg">
    <path
   d="M 16.025453,6.9997362 12.025465,1.9997469 8.0254759,6.9997362 Z"
   style="fill:#000000;fill-rule:nonzero;stroke-width:0.0430012;fill-opacity:1"
   id="path1" /><path
   d="M 16.025453,17.012985 12.025465,22.012974 8.0254759,17.012985 Z"
   style="fill:#000000;fill-rule:nonzero;stroke-width:0.0430012;fill-opacity:1"
   id="path2" /><path
   d="m 7.7017581,13.139681 c 0.076089,-0.1 0.1503441,-0.224 0.2273496,-0.362 0.1796795,-0.322 0.3547754,-0.706 0.530788,-1.09 0.1943472,-0.424 0.3886945,-0.846 0.5857919,-1.198 0.1943473,-0.348 0.3978618,-0.634 0.5995429,-0.828 0.1622616,-0.154 0.3281902,-0.26 0.4913685,-0.326 l 0.213599,-0.062 0.231933,-0.024 0.231933,0.024 0.213599,0.062 c 0.163178,0.066 0.329107,0.172 0.491368,0.328 0.201681,0.192 0.404279,0.478 0.599543,0.826 0.197098,0.352 0.391445,0.774 0.584875,1.198 0.17693,0.384 0.352026,0.768 0.531705,1.09 0.07701,0.138 0.150344,0.262 0.226433,0.362 0.07701,-0.1 0.150344,-0.224 0.22735,-0.362 0.179679,-0.32 0.454699,-0.912 0.530788,-1.078 0.194347,-0.422 0.388694,-0.844 0.585792,-1.196 0.194347,-0.35 0.397861,-0.634 0.599543,-0.828 0.162261,-0.156 0.32819,-0.262 0.491368,-0.326 l 0.213599,-0.064 0.231933,-0.022 0.231933,0.022 0.213599,0.064 c 0.163178,0.064 0.329107,0.17 0.491368,0.326 0.201681,0.194 0.404279,0.478 0.599543,0.828 0.197098,0.352 0.391445,0.774 0.584875,1.196 0.17693,0.386 0.352026,0.77 0.531705,1.092 0.07701,0.138 0.150344,0.262 0.22735,0.36 0.07609,-0.098 0.149427,-0.222 0.226433,-0.36 0.179679,-0.322 0.354775,-0.706 0.531704,-1.092 0.08342,-0.182 0.166846,-0.364 0.251185,-0.542 l 1.35493,0.644 c -0.08159,0.172 -0.162261,0.348 -0.242934,0.524 -0.19343,0.422 -0.387777,0.844 -0.585792,1.198 -0.194347,0.348 -0.396945,0.632 -0.598626,0.826 -0.162261,0.156 -0.329107,0.262 -0.492285,0.326 l -0.213599,0.064 -0.231016,0.024 -0.231934,-0.024 -0.213598,-0.064 c -0.163178,-0.064 -0.330024,-0.17 -0.492285,-0.326 -0.200765,-0.194 -0.404279,-0.478 -0.598627,-0.826 -0.198014,-0.354 -0.392361,-0.776 -0.585791,-1.198 -0.176013,-0.384 -0.352026,-0.77 -0.531705,-1.092 -0.07609,-0.136 -0.150344,-0.26 -0.226433,-0.36 -0.07609,0.1 -0.150344,0.224 -0.22735,0.36 -0.178762,0.322 -0.354775,0.708 -0.530788,1.092 -0.08342,0.182 -0.387777,0.83 -0.585792,1.184 -0.194347,0.348 -0.397861,0.634 -0.598626,0.826 -0.162261,0.156 -0.329107,0.262 -0.492285,0.328 l -0.213599,0.062 -0.231933,0.024 -0.231016,-0.024 -0.213599,-0.062 c -0.163178,-0.066 -0.330024,-0.172 -0.492285,-0.328 -0.201681,-0.192 -0.404279,-0.478 -0.598627,-0.826 -0.198014,-0.352 -0.392361,-0.774 -0.585791,-1.198 -0.176013,-0.384 -0.352026,-0.77 -0.531705,-1.09 -0.07609,-0.138 -0.150344,-0.262 -0.226433,-0.362 -0.07609,0.1 -0.150344,0.224 -0.22735,0.362 -0.179679,0.322 -0.354775,0.706 -0.5307877,1.09 -0.1943472,0.424 -0.3886945,0.846 -0.5857919,1.198 -0.1943473,0.348 -0.3978618,0.634 -0.5995429,0.828 -0.1622616,0.154 -0.3281902,0.26 -0.4913685,0.326 l -0.2135987,0.062 -0.2319332,0.024 -0.2319333,-0.024 -0.2135986,-0.062 c -0.1631784,-0.066 -0.3291069,-0.172 -0.4913685,-0.328 -0.2016811,-0.192 -0.404279,-0.478 -0.5995429,-0.826 -0.1970975,-0.352 -0.3914447,-0.774 -0.5848752,-1.198 -0.1769294,-0.384 -0.3520252,-0.768 -0.5317048,-1.09 -0.077006,-0.138 -0.1503441,-0.262 -0.2264329,-0.362 -0.077006,0.1 -0.150344,0.224 -0.2273496,0.362 -0.1796795,0.32 -0.3547754,0.706 -0.530788,1.09 -0.081589,0.178 -0.1631783,0.356 -0.2447675,0.528 l -1.3549303,-0.644 c 0.078839,-0.166 0.1567612,-0.338 0.2356002,-0.508 0.1934305,-0.424 0.3886945,-0.846 0.5857919,-1.198 0.1943473,-0.348 0.3978618,-0.634 0.5986262,-0.826 0.1622616,-0.156 0.3291069,-0.262 0.4922853,-0.328 l 0.2135986,-0.062 0.2319332,-0.024 0.2310166,0.024 0.2135986,0.062 c 0.1631784,0.066 0.3300236,0.172 0.4922852,0.328 0.2016812,0.192 0.404279,0.478 0.5986262,0.826 0.1980142,0.352 0.3923615,0.774 0.585792,1.198 0.1760126,0.384 0.3520252,0.77 0.5317047,1.09 0.076089,0.138 0.1503441,0.262 0.2264329,0.362 z"
   id="path3"
   style="stroke-width:1.35405;fill:#000000;fill-opacity:1" />
    <defs
   id="defs7">
        <linearGradient
   id="_Linear1"
   x1="0"
   y1="0"
   x2="1"
   y2="0"
   gradientUnits="userSpaceOnUse"
   gradientTransform="matrix(-3.6407551,0,0,-4.550947,-35516.759,-4287.8661)"><stop
     offset="0"
     style="stop-color:black;stop-opacity:1"
     id="stop4" /><stop
     offset="1"
     style="stop-color:black;stop-opacity:1"
     id="stop5" /></linearGradient>
        <linearGradient
   id="_Linear2"
   x1="0"
   y1="0"
   x2="1"
   y2="0"
   gradientUnits="userSpaceOnUse"
   gradientTransform="matrix(-3.6407551,0,0,4.550947,-35516.759,4311.8788)"><stop
     offset="0"
     style="stop-color:black;stop-opacity:1"
     id="stop6" /><stop
     offset="1"
     style="stop-color:black;stop-opacity:1"
     id="stop7" /></linearGradient>
    
        
    
            
            
            
            
        
                
            
                
            
                
            </defs>
</svg>
