<?xml version="1.0" encoding="UTF-8" standalone="no"?>
<svg
   width="100%"
   height="100%"
   viewBox="0 0 24 24"
   version="1.1"
   xml:space="preserve"
   style="fill-rule:evenodd;clip-rule:evenodd;stroke-linejoin:round;stroke-miterlimit:2;"
   id="svg3"
   xmlns="http://www.w3.org/2000/svg"
   xmlns:svg="http://www.w3.org/2000/svg"><defs
   id="defs3">
        
    
            
            
            
        </defs>
    <g
   transform="matrix(0.05288466,0,0,0.05769246,-13.37421,24.418058)"
   id="g1"
   style="fill:#000000;fill-opacity:1">
                <path
   d="m 376,-352.667 h 208 c 3.749,0 7.144,2.031 8.654,5.177 1.51,3.146 0.849,6.813 -1.685,9.346 l -104,104 c -1.79,1.791 -4.319,2.811 -6.969,2.811 -2.65,0 -5.179,-1.02 -6.969,-2.811 l -104,-104 c -2.534,-2.533 -3.195,-6.2 -1.685,-9.346 1.51,-3.146 4.905,-5.177 8.654,-5.177 z"
   id="path1"
   style="fill:#000000;fill-opacity:1" />
            </g><g
   transform="matrix(0.05288466,0,0,-0.05769246,-13.37421,-0.27433867)"
   id="g2"
   style="fill:#000000;fill-opacity:1">
                <path
   d="m 376,-352.667 h 208 c 3.749,0 7.144,2.031 8.654,5.177 1.51,3.146 0.849,6.813 -1.685,9.346 l -104,104 c -1.79,1.791 -4.319,2.811 -6.969,2.811 -2.65,0 -5.179,-1.02 -6.969,-2.811 l -104,-104 c -2.534,-2.533 -3.195,-6.2 -1.685,-9.346 1.51,-3.146 4.905,-5.177 8.654,-5.177 z"
   id="path2"
   style="fill:#000000;fill-opacity:1" />
            </g>
</svg>
