<?xml version="1.0" encoding="UTF-8" standalone="no"?>
<svg
   width="100%"
   height="100%"
   viewBox="0 0 24 24"
   version="1.1"
   xml:space="preserve"
   style="fill-rule:evenodd;clip-rule:evenodd;stroke-linejoin:round;stroke-miterlimit:2;"
   id="svg3"
   xmlns="http://www.w3.org/2000/svg"
   xmlns:svg="http://www.w3.org/2000/svg"><defs
   id="defs3">
        
    
            
            
            
        
                
            
                
            </defs>
    <path
   d="m 23.000161,13.012827 v 5.999945 c 0,0.552074 -0.447999,1.000117 -0.999999,1.000117 h -8.999993 c -0.552,0 -0.999999,-0.448043 -0.999999,-1.000117 v -5.999945 c 0,-0.551885 0.447999,-0.999929 0.999999,-0.999929 h 8.999993 c 0.552,0 0.999999,0.448044 0.999999,0.999929 z M 21.000163,16.0128 V 14.012755 H 14.000168 V 16.0128 Z"
   id="path1"
   style="stroke-width:0.306415;fill:#000000;fill-opacity:1" /><path
   d="M 10.000357,19.013595 H 3.9991115 v -2.001054 h 2.4238376 c -1.1956578,-1.327659 -1.9226178,-3.085755 -1.9226178,-5.0122 0,-4.1398466 3.3612332,-7.5010811 7.4991657,-7.5010811 3.447321,0 6.355161,2.3300988 7.231339,5.5000279 h -2.106271 c -0.801569,-2.0469669 -2.79497,-3.4989743 -5.125068,-3.4989743 -3.0341012,0 -5.5000258,2.4640126 -5.5000258,5.5000275 0,1.45966 0.5700896,2.787319 1.4998331,3.772541 v -2.760535 h 2.0010527 z"
   id="path2"
   style="stroke-width:1.91305;fill:#000000;fill-opacity:1" />
</svg>
