<?xml version="1.0" encoding="UTF-8" standalone="no"?>
<svg
   width="100%"
   height="100%"
   viewBox="0 0 24 24"
   version="1.1"
   xml:space="preserve"
   style="fill-rule:evenodd;clip-rule:evenodd;stroke-linejoin:round;stroke-miterlimit:2;"
   id="svg2"
   xmlns="http://www.w3.org/2000/svg"
   xmlns:svg="http://www.w3.org/2000/svg"><defs
   id="defs2">
        
    
            
            
        </defs>
    <g
   transform="matrix(0.99999926,0,0,0.99999826,-1127.409,-300.85803)"
   id="g1"
   style="fill:#000000;fill-opacity:1">
                <path
   d="m 1134.14,313.852 c -0.34,0.604 -0.99,1.013 -1.74,1.013 -1.1,0 -2,-0.896 -2,-2 0,-1.104 0.9,-2 2,-2 0.13,0 0.25,0.012 0.38,0.035 l 7.89,-9.403 c 0.33,-0.4 0.92,-0.471 1.34,-0.177 0.01,0.007 0.1,0.075 0.11,0.084 3.25,2.753 5.31,6.861 5.31,11.448 0,0.551 -0.44,1 -1,1 z m 8.04,-11.047 -7.59,9.047 h 11.81 c -0.25,-3.541 -1.82,-6.719 -4.22,-9.047 z m -13.75,19.047 h 9 v 2 h -9 z m 0,-4 h 6 v 2 h -6 z"
   id="path1"
   style="fill:#000000;fill-opacity:1" />
            </g>
</svg>
