<?xml version="1.0" encoding="UTF-8" standalone="no"?>
<svg
   width="100%"
   height="100%"
   viewBox="0 0 24 24"
   version="1.1"
   xml:space="preserve"
   style="fill-rule:evenodd;clip-rule:evenodd;stroke-linejoin:round;stroke-miterlimit:2;"
   id="svg5"
   xmlns="http://www.w3.org/2000/svg"
   xmlns:svg="http://www.w3.org/2000/svg"><defs
   id="defs5">
        
    
            
            
            
        
                
                
            
                    
                
                    
                </defs>
    <path
   d="m 1.0303881,12.99476 h 6.0000264 v 2.000001 H 1.0303881 Z m 0,4.000002 h 9.0000399 v 2 H 1.0303881 Z m 0,4.000001 H 13.030441 v 2.000001 H 1.0303881 Z"
   id="path2"
   style="stroke-width:0.0250001;fill:#000000;fill-opacity:1" /><path
   d="m 12.734637,12.008032 c -0.348688,0.597545 -0.99242,1.000005 -1.7345,1.000005 -1.1026891,0 -1.9997416,-0.896195 -1.9997416,-2.000009 0,-1.1038144 0.8970525,-2.0000094 1.9997416,-2.0000094 0.12815,0 0.253321,0.012048 0.37551,0.035049 L 18.58485,0.45096308 c 3.278266,2.36096992 5.415098,6.21141972 5.415098,10.55706492 0,0.336499 -0.01192,0.669956 -0.03576,1.000004 z m 6.735345,-9.4992524 -6.294269,7.4992434 h 9.784131 C 22.718445,7.087114 21.428,4.4615694 19.469982,2.5087796 Z"
   id="path3"
   style="stroke-width:0.602241;fill:#000000;fill-opacity:1" />
                
            
</svg>
