<?xml version="1.0" encoding="UTF-8" standalone="no"?>
<svg
   width="100%"
   height="100%"
   viewBox="0 0 24 24"
   version="1.1"
   xml:space="preserve"
   style="fill-rule:evenodd;clip-rule:evenodd;stroke-linejoin:round;stroke-miterlimit:2;"
   id="svg2"
   xmlns="http://www.w3.org/2000/svg"
   xmlns:svg="http://www.w3.org/2000/svg"><defs
   id="defs2">
        
    
            
            
        </defs>
    <g
   transform="matrix(1.2472552,0,0,-1.8707497,12.178595,12.072015)"
   id="g1"
   style="fill:#000000;fill-opacity:1">
                <path
   d="m -6.039,-0.492 -1.012,0.466 c 0.086,0.083 0.171,0.168 0.257,0.253 0.213,0.213 0.426,0.426 0.643,0.604 0.211,0.172 0.427,0.313 0.644,0.409 0.263,0.115 0.528,0.17 0.795,0.17 0.267,0 0.532,-0.055 0.794,-0.17 0.218,-0.096 0.434,-0.237 0.644,-0.409 0.217,-0.178 0.431,-0.391 0.644,-0.604 0.19,-0.19 0.38,-0.381 0.574,-0.541 0.123,-0.1 0.242,-0.186 0.368,-0.242 0.04,-0.018 0.076,-0.034 0.117,-0.034 0.041,0 0.077,0.016 0.117,0.034 0.127,0.056 0.246,0.142 0.368,0.242 0.194,0.16 0.384,0.351 0.575,0.541 0.213,0.213 0.426,0.426 0.643,0.604 C 0.343,1.003 0.559,1.144 0.777,1.24 1.039,1.355 1.304,1.41 1.571,1.41 1.838,1.41 2.103,1.355 2.365,1.24 2.583,1.144 2.799,1.003 3.009,0.831 3.226,0.653 3.44,0.44 3.653,0.227 3.844,0.037 4.033,-0.154 4.228,-0.314 4.35,-0.414 4.469,-0.5 4.595,-0.556 4.635,-0.574 4.671,-0.59 4.712,-0.59 c 0.041,0 0.077,0.016 0.118,0.034 0.126,0.056 0.245,0.142 0.367,0.242 0.194,0.16 0.493,0.452 0.575,0.535 L 6.794,-0.234 C 6.702,-0.326 6.368,-0.653 6.151,-0.831 5.94,-1.003 5.724,-1.144 5.507,-1.24 5.244,-1.355 4.979,-1.41 4.712,-1.41 4.445,-1.41 4.18,-1.355 3.918,-1.24 3.7,-1.144 3.484,-1.003 3.274,-0.831 3.057,-0.653 2.843,-0.44 2.63,-0.227 2.44,-0.037 2.25,0.154 2.056,0.314 1.933,0.414 1.814,0.5 1.688,0.556 1.648,0.574 1.612,0.59 1.571,0.59 1.53,0.59 1.494,0.574 1.454,0.556 1.327,0.5 1.208,0.414 1.086,0.314 0.892,0.154 0.702,-0.037 0.511,-0.227 0.298,-0.44 0.085,-0.653 -0.132,-0.831 -0.343,-1.003 -0.559,-1.144 -0.777,-1.24 c -0.262,-0.115 -0.527,-0.17 -0.794,-0.17 -0.267,0 -0.532,0.055 -0.794,0.17 -0.218,0.096 -0.434,0.237 -0.644,0.409 -0.217,0.178 -0.431,0.391 -0.644,0.604 -0.191,0.19 -0.38,0.381 -0.575,0.541 C -4.35,0.414 -4.469,0.5 -4.595,0.556 -4.635,0.574 -4.671,0.59 -4.712,0.59 -4.753,0.59 -4.789,0.574 -4.83,0.556 -4.956,0.5 -5.075,0.414 -5.197,0.314 -5.391,0.154 -5.581,-0.037 -5.772,-0.227 -5.861,-0.316 -5.95,-0.405 -6.039,-0.492 Z M 7.085,3.78 V 2.711 H -7.347 V 3.78 Z m 0,-6.414 V -3.703 H -7.347 v 1.069 z"
   id="path1"
   style="fill:#000000;fill-opacity:1" />
            </g>
</svg>
