<?xml version="1.0" encoding="UTF-8" standalone="no"?>
<svg
   width="100%"
   height="100%"
   viewBox="0 0 24 24"
   version="1.1"
   xml:space="preserve"
   style="fill-rule:evenodd;clip-rule:evenodd;stroke-linejoin:round;stroke-miterlimit:2;"
   id="svg2"
   xmlns="http://www.w3.org/2000/svg"
   xmlns:svg="http://www.w3.org/2000/svg"><defs
   id="defs2">
        
    
            
            
        
                
            </defs>
    <path
   d="m 8.0205874,19.000073 v -1.999998 h 7.0999806 c 1.049997,0 1.962494,-0.333325 2.737492,-1 0.774998,-0.666674 1.162497,-1.499998 1.162497,-2.499998 0,-0.999999 -0.387499,-1.833323 -1.162497,-2.499998 C 17.083062,10.333405 16.170565,10.00008 15.120568,10.00008 H 8.8205852 L 11.420578,12.600078 10.020582,14.000077 5.0205958,9.000081 10.020582,4.000085 11.420578,5.4000839 8.8205852,8.0000818 h 6.2999828 c 1.61667,0 3.004166,0.5249996 4.162488,1.5749987 1.158322,1.0499995 1.737495,2.3583235 1.737495,3.9249965 0,1.566674 -0.579173,2.874998 -1.737495,3.924997 -1.158322,1.049999 -2.545818,1.574999 -4.162488,1.574999 z"
   style="fill-rule:nonzero;stroke-width:0.025;fill:#000000;fill-opacity:1"
   id="path1" />
</svg>
