<?xml version="1.0" encoding="UTF-8" standalone="no"?>
<svg
   width="100%"
   height="100%"
   viewBox="0 0 24 24"
   version="1.1"
   xml:space="preserve"
   style="fill-rule:evenodd;clip-rule:evenodd;stroke-linejoin:round;stroke-miterlimit:2;"
   id="svg2"
   xmlns="http://www.w3.org/2000/svg"
   xmlns:svg="http://www.w3.org/2000/svg"><defs
   id="defs2">
        
    
            
            
        
                
            </defs>
    <path
   d="M 6.5750382,9.022631 C 5.9091901,9.1012309 5.3314167,9.3853807 4.8417181,9.8750803 4.2583947,10.458405 3.9667205,11.166754 3.9667205,12.000079 c 0,0.833324 0.2916742,1.541673 0.8749976,2.124998 0.5833233,0.583324 1.2916713,0.874999 2.124994,0.874999 h 2.9999916 l 1.9999943,1.999999 H 6.9667121 c -1.3833211,0 -2.5624928,-0.4875 -3.5374901,-1.462499 -0.9749973,-0.974999 -1.4624959,-2.154174 -1.4624959,-3.537497 0,-1.383324 0.4874986,-2.5624984 1.4624959,-3.5374976 C 3.8921207,7.9996818 4.4010193,7.6466821 4.9559677,7.4035323 L 3.1885477,5.6361337 4.6027687,4.2219098 18.744854,18.364024 17.330633,19.778247 10.552477,13.000078 H 7.9667093 v -1.999999 h 0.5857734 z m 7.5129788,1.977448 h 1.87867 v 1.878674 z m 3.849864,3.849872 c 0.427499,-0.14155 0.812098,-0.383174 1.153797,-0.724874 0.583324,-0.583325 0.874998,-1.291674 0.874998,-2.124998 0,-0.833325 -0.291674,-1.541674 -0.874998,-2.1249987 C 18.508355,9.2917558 17.800007,9.000081 16.966684,9.000081 H 12.966695 V 7.0000826 h 3.999989 c 1.383321,0 2.562493,0.4874996 3.53749,1.4624988 0.974997,0.9749992 1.462496,2.1541736 1.462496,3.5374976 0,1.383323 -0.487499,2.562498 -1.462496,3.537497 -0.329274,0.329275 -0.681823,0.602949 -1.057672,0.821024 z"
   id="path1"
   style="stroke-width:0.025;fill:#000000;fill-opacity:1" />
</svg>
