<?xml version="1.0" encoding="UTF-8" standalone="no"?>
<svg
   width="100%"
   height="100%"
   viewBox="0 0 24 24"
   version="1.1"
   xml:space="preserve"
   style="fill-rule:evenodd;clip-rule:evenodd;stroke-linejoin:round;stroke-miterlimit:2;"
   id="svg2"
   xmlns="http://www.w3.org/2000/svg"
   xmlns:svg="http://www.w3.org/2000/svg"><defs
   id="defs2">
        
    
            
            
        
                
            </defs>
    <path
   d="M 9.1841749,17.610999 6.3098169,20.485354 4.8955879,19.071136 19.037755,4.9290376 20.451963,6.3432355 18.411211,8.3839924 c 1.13167,0.9776186 1.986364,2.1829966 2.564083,3.6160946 -0.736365,1.826657 -1.92273,3.283335 -3.559096,4.369993 -1.636365,1.086659 -3.450011,1.629998 -5.440915,1.629998 -0.972697,0 -1.903052,-0.1297 -2.7911081,-0.389079 z M 17.346755,9.4484308 14.441858,12.353326 c -0.155475,1.097359 -1.024589,1.966478 -2.121957,2.121957 l -1.889102,1.889077 c 0.500053,0.09052 1.014895,0.13572 1.544484,0.13572 1.687093,0 3.224458,-0.458739 4.611114,-1.379558 1.206452,-0.801178 2.122305,-1.841297 2.747908,-3.120795 -0.486757,-0.994959 -1.149199,-1.845437 -1.98755,-2.5512962 z M 4.9283153,15.038422 C 4.0949961,14.175544 3.443968,13.162765 2.975272,12.000087 3.7116365,10.17343 4.8980016,8.7167519 6.5343672,7.6300936 8.1707328,6.5434352 9.9843781,6.000096 11.975283,6.000096 c 0.627444,0 1.237276,0.05396 1.829497,0.1618998 l -1.350635,1.3506379 c -0.158257,-0.00836 -0.317885,-0.01254 -0.478862,-0.01254 -1.687093,0 -3.2244586,0.4587394 -4.6111148,1.379558 -1.2064515,0.8011788 -2.1223048,1.8412973 -2.7479079,3.1207953 0.3611868,0.738299 0.8191237,1.397038 1.3738721,1.976157 z"
   id="path1"
   style="stroke-width:0.020226;fill:#000000;fill-opacity:1" />
</svg>
