<?xml version="1.0" encoding="UTF-8" standalone="no"?>
<svg
   width="100%"
   height="100%"
   viewBox="0 0 24 24"
   version="1.1"
   xml:space="preserve"
   style="fill-rule:evenodd;clip-rule:evenodd;stroke-linejoin:round;stroke-miterlimit:2;"
   id="svg2"
   xmlns="http://www.w3.org/2000/svg"
   xmlns:svg="http://www.w3.org/2000/svg"><defs
   id="defs2">
        
    
            
            
        
                
            </defs>
    <path
   d="m 11.975283,18.000078 c -1.9909049,0 -3.8045502,-0.543339 -5.4409158,-1.629998 C 4.8980016,15.283422 3.7116365,13.826744 2.975272,12.000087 3.7116365,10.17343 4.8980016,8.7167519 6.5343672,7.6300936 8.1707328,6.5434352 9.9843781,6.000096 11.975283,6.000096 c 1.990904,0 3.80455,0.5433392 5.440915,1.6299976 1.636366,1.0866583 2.822731,2.5433364 3.559096,4.3699934 -0.736365,1.826657 -1.92273,3.283335 -3.559096,4.369993 -1.636365,1.086659 -3.450011,1.629998 -5.440915,1.629998 z m 0,-1.499998 c 1.687093,0 3.224458,-0.458739 4.611114,-1.379558 1.206452,-0.801178 2.122305,-1.841297 2.747908,-3.120795 -0.625603,-1.278778 -1.541456,-2.3188965 -2.747908,-3.1200753 -1.386656,-0.9208186 -2.924021,-1.379558 -4.611114,-1.379558 -1.687093,0 -3.2244586,0.4587394 -4.6111148,1.379558 -1.2064515,0.8011788 -2.1223048,1.8412973 -2.7479079,3.1207953 0.6256031,1.278778 1.5414564,2.318897 2.7479079,3.120075 1.3866562,0.920819 2.9240218,1.379558 4.6111148,1.379558 z m -0.0086,-6.9999892 c 1.379784,0 2.499999,1.1202182 2.499999,2.4999962 0,1.379778 -1.120215,2.499996 -2.499999,2.499996 -1.379783,0 -2.499998,-1.120218 -2.499998,-2.499996 0,-1.379778 1.120215,-2.4999962 2.499998,-2.4999962 z"
   id="path1"
   style="stroke-width:0.020226;fill:#000000;fill-opacity:1" />
</svg>
