<?xml version="1.0" encoding="UTF-8" standalone="no"?>
<svg
   width="100%"
   height="100%"
   viewBox="0 0 24 24"
   version="1.1"
   xml:space="preserve"
   style="fill-rule:evenodd;clip-rule:evenodd;stroke-linejoin:round;stroke-miterlimit:2;"
   id="svg2"
   xmlns="http://www.w3.org/2000/svg"
   xmlns:svg="http://www.w3.org/2000/svg"><defs
   id="defs2">
        
    
            
            
        </defs>
    <g
   transform="matrix(1.0000021,0,0,0.99999859,-1204.0362,-337.9846)"
   id="g1"
   style="fill:#000000;fill-opacity:1">
                <path
   d="m 1212.17,355.226 -2.53,2.539 -1.42,-1.414 14.14,-14.142 1.42,1.414 -2.13,2.129 c 1.53,1.072 2.65,2.483 3.36,4.235 -0.74,1.826 -1.92,3.283 -3.56,4.37 -1.64,1.086 -3.45,1.63 -5.44,1.63 -1.36,0 -2.64,-0.254 -3.84,-0.761 z m 8.4,-8.393 -2.24,2.24 c 0.11,0.283 0.17,0.591 0.17,0.914 0,1.38 -1.12,2.5 -2.5,2.5 -0.32,0 -0.63,-0.061 -0.91,-0.173 l -1.75,1.748 c 0.84,0.283 1.73,0.425 2.67,0.425 1.69,0 3.22,-0.459 4.61,-1.38 1.21,-0.801 2.12,-1.841 2.75,-3.121 -0.63,-1.278 -1.54,-2.319 -2.75,-3.12 -0.02,-0.011 -0.03,-0.022 -0.05,-0.033 z m -11.31,6.483 c -0.98,-0.923 -1.73,-2.033 -2.25,-3.329 0.74,-1.827 1.92,-3.284 3.56,-4.37 1.63,-1.087 3.45,-1.63 5.44,-1.63 0.8,0 1.57,0.087 2.31,0.263 l -1.29,1.295 c -0.34,-0.039 -0.67,-0.058 -1.02,-0.058 -1.69,0 -3.23,0.458 -4.61,1.379 -1.21,0.801 -2.12,1.842 -2.75,3.121 0.42,0.865 0.98,1.621 1.67,2.268 z"
   id="path1"
   style="fill:#000000;fill-opacity:1" />
            </g>
</svg>
