<?xml version="1.0" encoding="UTF-8" standalone="no"?>
<svg
   width="100%"
   height="100%"
   viewBox="0 0 24 24"
   version="1.1"
   xml:space="preserve"
   style="fill-rule:evenodd;clip-rule:evenodd;stroke-linejoin:round;stroke-miterlimit:2;"
   id="svg3"
   xmlns="http://www.w3.org/2000/svg"
   xmlns:svg="http://www.w3.org/2000/svg"><defs
   id="defs3">
        
    
            
            
            
        </defs>
    <g
   transform="matrix(0.02045457,0,0,0.01999997,2.1570892,22.000072)"
   id="g1"
   style="fill:#000000;fill-opacity:1">
                <path
   d="M 146.84,-336.476 C 100.616,-382.061 65.002,-436.569 40,-500 c 36,-91.333 94,-164.167 174,-218.5 80,-54.333 168.667,-81.5 266,-81.5 37.382,0 73.485,4.007 108.31,12.021 l -63.827,65.278 C 509.9,-724.234 495.072,-725 480,-725 c -82.48,0 -157.64,22.937 -225.432,68.978 -58.982,40.059 -103.757,92.065 -134.342,156.04 20.064,41.945 46.235,78.754 78.517,110.424 z m 665.891,-327.471 c 46.433,45.671 82.19,100.32 107.269,163.947 -36,91.333 -94,164.167 -174,218.5 -80,54.333 -168.667,81.5 -266,81.5 -37.627,0 -73.96,-4.06 -108.997,-12.18 l 63.751,-65.2 c 14.829,1.587 29.911,2.38 45.246,2.38 82.48,0 157.64,-22.937 225.432,-68.978 58.982,-40.059 103.757,-92.065 134.342,-156.04 -20.153,-42.131 -46.467,-79.08 -78.947,-110.845 z"
   id="path1"
   style="fill:#000000;fill-opacity:1" />
            </g><g
   transform="matrix(0.03008967,-0.03008962,0.02357025,0.0235702,17.54841,38.945336)"
   id="g2">
                <rect
   x="120"
   y="-720"
   width="470"
   height="60"
   style="fill:#ff0000"
   id="rect2" />
            </g>
</svg>
