<?xml version="1.0" encoding="UTF-8" standalone="no"?>
<svg
   width="100%"
   height="100%"
   viewBox="0 0 24 24"
   version="1.1"
   xml:space="preserve"
   style="fill-rule:evenodd;clip-rule:evenodd;stroke-linejoin:round;stroke-miterlimit:2;"
   id="svg2"
   xmlns="http://www.w3.org/2000/svg"
   xmlns:svg="http://www.w3.org/2000/svg"><defs
   id="defs2">
        
    
            
            
        
                
            </defs>
    <path
   d="M 2.304145,18.074634 10.304131,4.0746379 c 0.356079,-0.6231613 1.018753,-1.0077305 1.736474,-1.0077305 0.71772,0 1.380395,0.3845692 1.736474,1.0077305 l 7.999986,13.9999961 c 0.353721,0.619016 0.351178,1.379512 -0.0066,1.996131 -0.357854,0.616619 -1.016873,0.996153 -1.729825,0.996153 H 4.0406188 c -0.7129524,0 -1.3719712,-0.379534 -1.7298248,-0.996153 C 1.9529668,19.454146 1.9504237,18.69365 2.304145,18.074634 Z m 1.7364738,0.992277 H 20.040591 L 12.040605,5.0669146 Z M 11.040607,14.06692 V 9.066902 h 1.999996 v 5.000018 z m 0.999998,3.999987 c -0.283337,0 -0.52082,-0.09582 -0.712502,-0.287484 -0.191656,-0.191665 -0.287496,-0.429181 -0.287496,-0.712519 0,-0.283339 0.09584,-0.520827 0.287496,-0.712492 0.191682,-0.191666 0.429165,-0.287512 0.712502,-0.287512 0.283337,0 0.52082,0.09585 0.712502,0.287512 0.191655,0.191665 0.287496,0.429153 0.287496,0.712492 0,0.283338 -0.09584,0.520854 -0.287496,0.712519 -0.191682,0.191665 -0.429165,0.287484 -0.712502,0.287484 z"
   id="path1"
   style="stroke-width:0.0267057;fill:#000000;fill-opacity:1" />
</svg>
