<?xml version="1.0" encoding="UTF-8" standalone="no"?>
<svg
   width="100%"
   height="100%"
   viewBox="0 0 24 24"
   version="1.1"
   xml:space="preserve"
   style="fill-rule:evenodd;clip-rule:evenodd;stroke-linejoin:round;stroke-miterlimit:2;"
   id="svg2"
   xmlns="http://www.w3.org/2000/svg"
   xmlns:svg="http://www.w3.org/2000/svg"><defs
   id="defs2">
        
    
            
            
        
                
            </defs>
    <path
   d="m 15.867067,17.318923 c -1.350003,1.052999 -3.050006,1.680998 -4.90001,1.680998 -4.4100093,0 -8.0000168,-3.584995 -8.0000168,-7.999989 0,-4.4149939 3.5900075,-7.9999888 8.0000168,-7.9999888 4.410009,0 8.000017,3.5849949 8.000017,7.9999888 0,1.847997 -0.630002,3.549995 -1.680004,4.904993 l 5.400012,5.397992 -1.420003,1.414998 z M 10.967057,4.9999404 c -3.310007,0 -6.0000126,2.6889962 -6.0000126,5.9999916 0,3.310995 2.6900056,5.999991 6.0000126,5.999991 3.310007,0 6.000013,-2.688996 6.000013,-5.999991 0,-3.3109954 -2.690006,-5.9999916 -6.000013,-5.9999916 z M 9.9670549,14.999926 V 11.99993 H 6.9670486 V 9.9999333 H 9.9670549 V 6.9999375 h 2.0000041 v 2.9999958 h 3.000006 V 11.99993 h -3.000006 v 2.999996 z"
   id="path1"
   style="fill:#000000;fill-opacity:1" />
</svg>
