<?xml version="1.0" encoding="UTF-8" standalone="no"?>
<svg
   width="100%"
   height="100%"
   viewBox="0 0 24 24"
   version="1.1"
   xml:space="preserve"
   style="fill-rule:evenodd;clip-rule:evenodd;stroke-linejoin:round;stroke-miterlimit:2;"
   id="svg2"
   xmlns="http://www.w3.org/2000/svg"
   xmlns:svg="http://www.w3.org/2000/svg"><defs
   id="defs2">
        
    
            
            
        
                
            </defs>
    <path
   d="m 15.866339,17.318923 c -1.350003,1.052999 -3.050007,1.680998 -4.900011,1.680998 -4.4100089,0 -8.0000164,-3.584995 -8.0000164,-7.999989 0,-4.4149939 3.5900075,-7.9999888 8.0000164,-7.9999888 4.41001,0 8.000017,3.5849949 8.000017,7.9999888 0,1.847997 -0.630001,3.549995 -1.680003,4.904993 l 5.400011,5.397992 -1.420003,1.414998 z M 10.966328,4.9999404 c -3.3100066,0 -6.0000122,2.6889962 -6.0000122,5.9999916 0,3.310995 2.6900056,5.999991 6.0000122,5.999991 3.310007,0 6.000013,-2.688996 6.000013,-5.999991 0,-3.3109954 -2.690006,-5.9999916 -6.000013,-5.9999916 z M 14.966337,11.99993 H 6.96632 V 9.9999333 h 8.000017 z"
   id="path1"
   style="fill:#000000;fill-opacity:1" />
</svg>
